<svg width="105" height="105" viewBox="0 0 105 105" fill="none" xmlns="http://www.w3.org/2000/svg">
<path d="M0 25C0 11.1929 11.1929 0 25 0H80C93.8071 0 105 11.1929 105 25V80C105 93.8071 93.8071 105 80 105H25C11.1929 105 0 93.8071 0 80V25Z" fill="white" fill-opacity="0.8"/>
<path d="M17.9765 94V87.752H15.5125V86.3H22.2225V87.752H19.7585V94H17.9765ZM28.9013 86.3H30.6833V94H28.9013V86.3ZM25.4033 94H23.6213V86.3H25.4033V94ZM29.0333 90.843H25.2713V89.336H29.0333V90.843ZM31.933 94L35.365 86.3H37.125L40.568 94H38.698L35.882 87.202H36.586L33.759 94H31.933ZM33.649 92.35L34.122 90.997H38.082L38.566 92.35H33.649ZM45.4175 94.132C44.8088 94.132 44.2478 94.0367 43.7345 93.846C43.2285 93.648 42.7848 93.3693 42.4035 93.01C42.0295 92.6507 41.7362 92.229 41.5235 91.745C41.3182 91.261 41.2155 90.7293 41.2155 90.15C41.2155 89.5707 41.3182 89.039 41.5235 88.555C41.7362 88.071 42.0332 87.6493 42.4145 87.29C42.7958 86.9307 43.2432 86.6557 43.7565 86.465C44.2698 86.267 44.8345 86.168 45.4505 86.168C46.1325 86.168 46.7448 86.2817 47.2875 86.509C47.8375 86.7363 48.2995 87.0663 48.6735 87.499L47.5295 88.555C47.2508 88.2617 46.9465 88.0453 46.6165 87.906C46.2865 87.7593 45.9272 87.686 45.5385 87.686C45.1645 87.686 44.8235 87.7447 44.5155 87.862C44.2075 87.9793 43.9398 88.148 43.7125 88.368C43.4925 88.588 43.3202 88.8483 43.1955 89.149C43.0782 89.4497 43.0195 89.7833 43.0195 90.15C43.0195 90.5093 43.0782 90.8393 43.1955 91.14C43.3202 91.4407 43.4925 91.7047 43.7125 91.932C43.9398 92.152 44.2038 92.3207 44.5045 92.438C44.8125 92.5553 45.1498 92.614 45.5165 92.614C45.8685 92.614 46.2095 92.559 46.5395 92.449C46.8768 92.3317 47.2032 92.1373 47.5185 91.866L48.5305 93.153C48.1125 93.4683 47.6248 93.7103 47.0675 93.879C46.5175 94.0477 45.9675 94.132 45.4175 94.132ZM46.9025 92.922V90.029H48.5305V93.153L46.9025 92.922ZM49.6138 94L53.0458 86.3H54.8058L58.2488 94H56.3788L53.5628 87.202H54.2668L51.4398 94H49.6138ZM51.3298 92.35L51.8028 90.997H55.7628L56.2468 92.35H51.3298ZM64.6379 94V87.752H62.1739V86.3H68.8839V87.752H66.4199V94H64.6379ZM68.884 94L72.316 86.3H74.076L77.519 94H75.649L72.833 87.202H73.537L70.71 94H68.884ZM70.6 92.35L71.073 90.997H75.033L75.517 92.35H70.6ZM77.4697 94L80.7807 89.435V90.733L77.6127 86.3H79.6367L81.8257 89.391L80.9787 89.402L83.1347 86.3H85.0707L81.9247 90.656V89.38L85.2577 94H83.2007L80.9347 90.733H81.7487L79.5157 94H77.4697ZM86.3952 94V86.3H88.1772V94H86.3952Z" fill="#2C85D4"/>
<path d="M17.9765 94H17.7265V94.25H17.9765V94ZM17.9765 87.752H18.2265V87.502H17.9765V87.752ZM15.5125 87.752H15.2625V88.002H15.5125V87.752ZM15.5125 86.3V86.05H15.2625V86.3H15.5125ZM22.2225 86.3H22.4725V86.05H22.2225V86.3ZM22.2225 87.752V88.002H22.4725V87.752H22.2225ZM19.7585 87.752V87.502H19.5085V87.752H19.7585ZM19.7585 94V94.25H20.0085V94H19.7585ZM18.2265 94V87.752H17.7265V94H18.2265ZM17.9765 87.502H15.5125V88.002H17.9765V87.502ZM15.7625 87.752V86.3H15.2625V87.752H15.7625ZM15.5125 86.55H22.2225V86.05H15.5125V86.55ZM21.9725 86.3V87.752H22.4725V86.3H21.9725ZM22.2225 87.502H19.7585V88.002H22.2225V87.502ZM19.5085 87.752V94H20.0085V87.752H19.5085ZM19.7585 93.75H17.9765V94.25H19.7585V93.75ZM28.9013 86.3V86.05H28.6513V86.3H28.9013ZM30.6833 86.3H30.9333V86.05H30.6833V86.3ZM30.6833 94V94.25H30.9333V94H30.6833ZM28.9013 94H28.6513V94.25H28.9013V94ZM25.4033 94V94.25H25.6533V94H25.4033ZM23.6213 94H23.3713V94.25H23.6213V94ZM23.6213 86.3V86.05H23.3713V86.3H23.6213ZM25.4033 86.3H25.6533V86.05H25.4033V86.3ZM29.0333 90.843V91.093H29.2833V90.843H29.0333ZM25.2713 90.843H25.0213V91.093H25.2713V90.843ZM25.2713 89.336V89.086H25.0213V89.336H25.2713ZM29.0333 89.336H29.2833V89.086H29.0333V89.336ZM28.9013 86.55H30.6833V86.05H28.9013V86.55ZM30.4333 86.3V94H30.9333V86.3H30.4333ZM30.6833 93.75H28.9013V94.25H30.6833V93.75ZM29.1513 94V86.3H28.6513V94H29.1513ZM25.4033 93.75H23.6213V94.25H25.4033V93.75ZM23.8713 94V86.3H23.3713V94H23.8713ZM23.6213 86.55H25.4033V86.05H23.6213V86.55ZM25.1533 86.3V94H25.6533V86.3H25.1533ZM29.0333 90.593H25.2713V91.093H29.0333V90.593ZM25.5213 90.843V89.336H25.0213V90.843H25.5213ZM25.2713 89.586H29.0333V89.086H25.2713V89.586ZM28.7833 89.336V90.843H29.2833V89.336H28.7833ZM31.933 94L31.7047 93.8982L31.5479 94.25H31.933V94ZM35.365 86.3V86.05H35.2028L35.1367 86.1982L35.365 86.3ZM37.125 86.3L37.3533 86.198L37.2871 86.05H37.125V86.3ZM40.568 94V94.25H40.9537L40.7963 93.898L40.568 94ZM38.698 94L38.4671 94.0957L38.531 94.25H38.698V94ZM35.882 87.202V86.952H35.5079L35.6511 87.2977L35.882 87.202ZM36.586 87.202L36.8169 87.298L36.9608 86.952H36.586V87.202ZM33.759 94V94.25H33.9258L33.9899 94.096L33.759 94ZM33.649 92.35L33.4131 92.2675L33.2968 92.6H33.649V92.35ZM34.122 90.997V90.747H33.9446L33.8861 90.9145L34.122 90.997ZM38.082 90.997L38.3174 90.9128L38.2581 90.747H38.082V90.997ZM38.566 92.35V92.6H38.921L38.8014 92.2658L38.566 92.35ZM32.1614 94.1018L35.5934 86.4018L35.1367 86.1982L31.7047 93.8982L32.1614 94.1018ZM35.365 86.55H37.125V86.05H35.365V86.55ZM36.8968 86.402L40.3398 94.102L40.7963 93.898L37.3533 86.198L36.8968 86.402ZM40.568 93.75H38.698V94.25H40.568V93.75ZM38.929 93.9043L36.113 87.1063L35.6511 87.2977L38.4671 94.0957L38.929 93.9043ZM35.882 87.452H36.586V86.952H35.882V87.452ZM36.3552 87.106L33.5282 93.904L33.9899 94.096L36.8169 87.298L36.3552 87.106ZM33.759 93.75H31.933V94.25H33.759V93.75ZM33.885 92.4325L34.358 91.0795L33.8861 90.9145L33.4131 92.2675L33.885 92.4325ZM34.122 91.247H38.082V90.747H34.122V91.247ZM37.8467 91.0812L38.3307 92.4342L38.8014 92.2658L38.3174 90.9128L37.8467 91.0812ZM38.566 92.1H33.649V92.6H38.566V92.1ZM43.7345 93.846L43.6434 94.0788L43.6475 94.0804L43.7345 93.846ZM42.4035 93.01L42.2303 93.1903L42.2321 93.1919L42.4035 93.01ZM41.5235 91.745L41.2933 91.8426L41.2946 91.8456L41.5235 91.745ZM41.5235 88.555L41.2946 88.4544L41.2934 88.4574L41.5235 88.555ZM42.4145 87.29L42.586 87.4719L42.586 87.4719L42.4145 87.29ZM43.7565 86.465L43.8436 86.6994L43.8465 86.6982L43.7565 86.465ZM47.2875 86.509L47.1909 86.7396L47.192 86.74L47.2875 86.509ZM48.6735 87.499L48.8431 87.6827L49.0209 87.5186L48.8626 87.3355L48.6735 87.499ZM47.5295 88.555L47.3483 88.7272L47.518 88.9059L47.6991 88.7387L47.5295 88.555ZM46.6165 87.906L46.515 88.1345L46.5193 88.1363L46.6165 87.906ZM43.7125 88.368L43.5386 88.1883L43.5357 88.1912L43.7125 88.368ZM43.1955 89.149L42.9645 89.0532L42.9626 89.0581L43.1955 89.149ZM43.1955 91.14L42.9626 91.2309L42.9646 91.2358L43.1955 91.14ZM43.7125 91.932L43.5328 92.1059L43.5386 92.1117L43.7125 91.932ZM44.5045 92.438L44.4136 92.6709L44.4155 92.6716L44.5045 92.438ZM46.5395 92.449L46.6186 92.6862L46.6216 92.6851L46.5395 92.449ZM47.5185 91.866L47.715 91.7115L47.5535 91.5061L47.3554 91.6765L47.5185 91.866ZM48.5305 93.153L48.6811 93.3526L48.8847 93.199L48.727 92.9985L48.5305 93.153ZM47.0675 93.879L46.9951 93.6397L46.9942 93.64L47.0675 93.879ZM46.9025 92.922H46.6525V93.139L46.8674 93.1695L46.9025 92.922ZM46.9025 90.029V89.779H46.6525V90.029H46.9025ZM48.5305 90.029H48.7805V89.779H48.5305V90.029ZM48.5305 93.153L48.4954 93.4005L48.7805 93.441V93.153H48.5305ZM45.4175 93.882C44.8353 93.882 44.3041 93.7909 43.8215 93.6116L43.6475 94.0804C44.1916 94.2825 44.7824 94.382 45.4175 94.382V93.882ZM43.8256 93.6132C43.3483 93.4264 42.9321 93.1646 42.575 92.8281L42.2321 93.1919C42.6375 93.574 43.1087 93.8696 43.6434 94.0788L43.8256 93.6132ZM42.5767 92.8297C42.2268 92.4935 41.9521 92.0991 41.7524 91.6444L41.2946 91.8456C41.5202 92.3589 41.8322 92.8078 42.2303 93.1903L42.5767 92.8297ZM41.7536 91.6474C41.5627 91.1973 41.4655 90.6992 41.4655 90.15H40.9655C40.9655 90.7594 41.0736 91.3247 41.2934 91.8426L41.7536 91.6474ZM41.4655 90.15C41.4655 89.6008 41.5627 89.1027 41.7536 88.6526L41.2934 88.4574C41.0736 88.9753 40.9655 89.5406 40.9655 90.15H41.4655ZM41.7524 88.6556C41.9517 88.202 42.2293 87.8081 42.586 87.4719L42.2431 87.1081C41.8371 87.4906 41.5207 87.94 41.2946 88.4544L41.7524 88.6556ZM42.586 87.4719C42.9418 87.1366 43.3601 86.8789 43.8435 86.6994L43.6695 86.2306C43.1262 86.4324 42.6498 86.7247 42.2431 87.1081L42.586 87.4719ZM43.8465 86.6982C44.3279 86.5126 44.8616 86.418 45.4505 86.418V85.918C44.8074 85.918 44.2118 86.0214 43.6665 86.2317L43.8465 86.6982ZM45.4505 86.418C46.1046 86.418 46.6833 86.5269 47.1909 86.7396L47.3841 86.2784C46.8064 86.0364 46.1604 85.918 45.4505 85.918V86.418ZM47.192 86.74C47.7075 86.9531 48.1369 87.2605 48.4844 87.6625L48.8626 87.3355C48.4621 86.8721 47.9675 86.5196 47.383 86.278L47.192 86.74ZM48.5039 87.3153L47.3599 88.3713L47.6991 88.7387L48.8431 87.6827L48.5039 87.3153ZM47.7108 88.3828C47.4115 88.0678 47.0793 87.83 46.7137 87.6757L46.5193 88.1363C46.8137 88.2606 47.0902 88.4556 47.3483 88.7272L47.7108 88.3828ZM46.718 87.6775C46.3537 87.5156 45.9594 87.436 45.5385 87.436V87.936C45.8949 87.936 46.2193 88.0031 46.515 88.1345L46.718 87.6775ZM45.5385 87.436C45.1381 87.436 44.7665 87.4989 44.4265 87.6284L44.6045 88.0956C44.8805 87.9905 45.1909 87.936 45.5385 87.936V87.436ZM44.4265 87.6284C44.0882 87.7573 43.7913 87.9438 43.5386 88.1883L43.8864 88.5477C44.0883 88.3522 44.3268 88.2014 44.6045 88.0956L44.4265 87.6284ZM43.5357 88.1912C43.2915 88.4355 43.1012 88.7237 42.9646 89.0532L43.4264 89.2448C43.5391 88.973 43.6935 88.7405 43.8893 88.5448L43.5357 88.1912ZM42.9626 89.0581C42.8325 89.3914 42.7695 89.7564 42.7695 90.15H43.2695C43.2695 89.8102 43.3238 89.5079 43.4284 89.2399L42.9626 89.0581ZM42.7695 90.15C42.7695 90.5369 42.8328 90.8981 42.9626 91.2309L43.4284 91.0491C43.3236 90.7805 43.2695 90.4818 43.2695 90.15H42.7695ZM42.9646 91.2358C43.1009 91.5646 43.2904 91.8553 43.5329 92.1059L43.8922 91.7581C43.6946 91.554 43.5394 91.3167 43.4264 91.0442L42.9646 91.2358ZM43.5386 92.1117C43.7903 92.3552 44.0827 92.5417 44.4136 92.6709L44.5954 92.2051C44.325 92.0996 44.0894 91.9488 43.8864 91.7523L43.5386 92.1117ZM44.4155 92.6716C44.7549 92.8009 45.1228 92.864 45.5165 92.864V92.364C45.1768 92.364 44.8701 92.3097 44.5935 92.2044L44.4155 92.6716ZM45.5165 92.864C45.895 92.864 46.2628 92.8048 46.6186 92.6862L46.4604 92.2118C46.1562 92.3132 45.842 92.364 45.5165 92.364V92.864ZM46.6216 92.6851C46.9931 92.5559 47.3463 92.344 47.6816 92.0555L47.3554 91.6765C47.0601 91.9307 46.7606 92.1074 46.4574 92.2129L46.6216 92.6851ZM47.322 92.0205L48.334 93.3075L48.727 92.9985L47.715 91.7115L47.322 92.0205ZM48.3799 92.9534C47.9879 93.2491 47.5274 93.4786 46.9951 93.6397L47.1399 94.1183C47.7223 93.942 48.2371 93.6875 48.6811 93.3526L48.3799 92.9534ZM46.9942 93.64C46.4669 93.8017 45.9415 93.882 45.4175 93.882V94.382C45.9935 94.382 46.5681 94.2936 47.1408 94.118L46.9942 93.64ZM47.1525 92.922V90.029H46.6525V92.922H47.1525ZM46.9025 90.279H48.5305V89.779H46.9025V90.279ZM48.2805 90.029V93.153H48.7805V90.029H48.2805ZM48.5656 92.9055L46.9376 92.6745L46.8674 93.1695L48.4954 93.4005L48.5656 92.9055ZM49.6138 94L49.3855 93.8982L49.2287 94.25H49.6138V94ZM53.0458 86.3V86.05H52.8835L52.8175 86.1982L53.0458 86.3ZM54.8058 86.3L55.0341 86.198L54.9679 86.05H54.8058V86.3ZM58.2488 94V94.25H58.6345L58.4771 93.898L58.2488 94ZM56.3788 94L56.1479 94.0957L56.2118 94.25H56.3788V94ZM53.5628 87.202V86.952H53.1887L53.3319 87.2977L53.5628 87.202ZM54.2668 87.202L54.4977 87.298L54.6415 86.952H54.2668V87.202ZM51.4398 94V94.25H51.6066L51.6707 94.096L51.4398 94ZM51.3298 92.35L51.0938 92.2675L50.9776 92.6H51.3298V92.35ZM51.8028 90.997V90.747H51.6254L51.5668 90.9145L51.8028 90.997ZM55.7628 90.997L55.9982 90.9128L55.9389 90.747H55.7628V90.997ZM56.2468 92.35V92.6H56.6018L56.4822 92.2658L56.2468 92.35ZM49.8422 94.1018L53.2742 86.4018L52.8175 86.1982L49.3855 93.8982L49.8422 94.1018ZM53.0458 86.55H54.8058V86.05H53.0458V86.55ZM54.5776 86.402L58.0206 94.102L58.4771 93.898L55.0341 86.198L54.5776 86.402ZM58.2488 93.75H56.3788V94.25H58.2488V93.75ZM56.6098 93.9043L53.7938 87.1063L53.3319 87.2977L56.1479 94.0957L56.6098 93.9043ZM53.5628 87.452H54.2668V86.952H53.5628V87.452ZM54.036 87.106L51.209 93.904L51.6707 94.096L54.4977 87.298L54.036 87.106ZM51.4398 93.75H49.6138V94.25H51.4398V93.75ZM51.5658 92.4325L52.0388 91.0795L51.5668 90.9145L51.0938 92.2675L51.5658 92.4325ZM51.8028 91.247H55.7628V90.747H51.8028V91.247ZM55.5274 91.0812L56.0114 92.4342L56.4822 92.2658L55.9982 90.9128L55.5274 91.0812ZM56.2468 92.1H51.3298V92.6H56.2468V92.1ZM64.6379 94H64.3879V94.25H64.6379V94ZM64.6379 87.752H64.8879V87.502H64.6379V87.752ZM62.1739 87.752H61.9239V88.002H62.1739V87.752ZM62.1739 86.3V86.05H61.9239V86.3H62.1739ZM68.8839 86.3H69.1339V86.05H68.8839V86.3ZM68.8839 87.752V88.002H69.1339V87.752H68.8839ZM66.4199 87.752V87.502H66.1699V87.752H66.4199ZM66.4199 94V94.25H66.6699V94H66.4199ZM64.8879 94V87.752H64.3879V94H64.8879ZM64.6379 87.502H62.1739V88.002H64.6379V87.502ZM62.4239 87.752V86.3H61.9239V87.752H62.4239ZM62.1739 86.55H68.8839V86.05H62.1739V86.55ZM68.6339 86.3V87.752H69.1339V86.3H68.6339ZM68.8839 87.502H66.4199V88.002H68.8839V87.502ZM66.1699 87.752V94H66.6699V87.752H66.1699ZM66.4199 93.75H64.6379V94.25H66.4199V93.75ZM68.884 94L68.6557 93.8982L68.4989 94.25H68.884V94ZM72.316 86.3V86.05H72.1537L72.0877 86.1982L72.316 86.3ZM74.076 86.3L74.3043 86.198L74.2381 86.05H74.076V86.3ZM77.519 94V94.25H77.9047L77.7473 93.898L77.519 94ZM75.649 94L75.4181 94.0957L75.482 94.25H75.649V94ZM72.833 87.202V86.952H72.4589L72.6021 87.2977L72.833 87.202ZM73.537 87.202L73.7679 87.298L73.9117 86.952H73.537V87.202ZM70.71 94V94.25H70.8768L70.9409 94.096L70.71 94ZM70.6 92.35L70.364 92.2675L70.2478 92.6H70.6V92.35ZM71.073 90.997V90.747H70.8956L70.837 90.9145L71.073 90.997ZM75.033 90.997L75.2684 90.9128L75.2091 90.747H75.033V90.997ZM75.517 92.35V92.6H75.872L75.7524 92.2658L75.517 92.35ZM69.1124 94.1018L72.5444 86.4018L72.0877 86.1982L68.6557 93.8982L69.1124 94.1018ZM72.316 86.55H74.076V86.05H72.316V86.55ZM73.8478 86.402L77.2908 94.102L77.7473 93.898L74.3043 86.198L73.8478 86.402ZM77.519 93.75H75.649V94.25H77.519V93.75ZM75.88 93.9043L73.064 87.1063L72.6021 87.2977L75.4181 94.0957L75.88 93.9043ZM72.833 87.452H73.537V86.952H72.833V87.452ZM73.3062 87.106L70.4792 93.904L70.9409 94.096L73.7679 87.298L73.3062 87.106ZM70.71 93.75H68.884V94.25H70.71V93.75ZM70.836 92.4325L71.309 91.0795L70.837 90.9145L70.364 92.2675L70.836 92.4325ZM71.073 91.247H75.033V90.747H71.073V91.247ZM74.7976 91.0812L75.2816 92.4342L75.7524 92.2658L75.2684 90.9128L74.7976 91.0812ZM75.517 92.1H70.6V92.6H75.517V92.1ZM77.4697 94L77.2673 93.8532L76.9795 94.25H77.4697V94ZM80.7807 89.435H81.0307V88.6645L80.5783 89.2882L80.7807 89.435ZM80.7807 90.733L80.5773 90.8784L81.0307 91.5128V90.733H80.7807ZM77.6127 86.3V86.05H77.1268L77.4093 86.4454L77.6127 86.3ZM79.6367 86.3L79.8407 86.1555L79.766 86.05H79.6367V86.3ZM81.8257 89.391L81.8289 89.641L82.3047 89.6348L82.0297 89.2465L81.8257 89.391ZM80.9787 89.402L80.7734 89.2593L80.4961 89.6583L80.9819 89.652L80.9787 89.402ZM83.1347 86.3V86.05H83.004L82.9294 86.1573L83.1347 86.3ZM85.0707 86.3L85.2734 86.4464L85.5596 86.05H85.0707V86.3ZM81.9247 90.656H81.6747V91.4291L82.1274 90.8024L81.9247 90.656ZM81.9247 89.38L82.1274 89.2337L81.6747 88.6062V89.38H81.9247ZM85.2577 94V94.25H85.7463L85.4604 93.8537L85.2577 94ZM83.2007 94L82.9953 94.1425L83.0699 94.25H83.2007V94ZM80.9347 90.733V90.483H80.457L80.7293 90.8755L80.9347 90.733ZM81.7487 90.733L81.9551 90.8741L82.2224 90.483H81.7487V90.733ZM79.5157 94V94.25H79.6476L79.7221 94.1411L79.5157 94ZM77.6721 94.1468L80.9831 89.5818L80.5783 89.2882L77.2673 93.8532L77.6721 94.1468ZM80.5307 89.435V90.733H81.0307V89.435H80.5307ZM80.9841 90.5876L77.8161 86.1546L77.4093 86.4454L80.5773 90.8784L80.9841 90.5876ZM77.6127 86.55H79.6367V86.05H77.6127V86.55ZM79.4327 86.4445L81.6217 89.5355L82.0297 89.2465L79.8407 86.1555L79.4327 86.4445ZM81.8225 89.141L80.9755 89.152L80.9819 89.652L81.8289 89.641L81.8225 89.141ZM81.184 89.5447L83.34 86.4427L82.9294 86.1573L80.7734 89.2593L81.184 89.5447ZM83.1347 86.55H85.0707V86.05H83.1347V86.55ZM84.868 86.1536L81.722 90.5096L82.1274 90.8024L85.2734 86.4464L84.868 86.1536ZM82.1747 90.656V89.38H81.6747V90.656H82.1747ZM81.722 89.5263L85.055 94.1463L85.4604 93.8537L82.1274 89.2337L81.722 89.5263ZM85.2577 93.75H83.2007V94.25H85.2577V93.75ZM83.4061 93.8575L81.1401 90.5905L80.7293 90.8755L82.9953 94.1425L83.4061 93.8575ZM80.9347 90.983H81.7487V90.483H80.9347V90.983ZM81.5423 90.5919L79.3093 93.8589L79.7221 94.1411L81.9551 90.8741L81.5423 90.5919ZM79.5157 93.75H77.4697V94.25H79.5157V93.75ZM86.3952 94H86.1452V94.25H86.3952V94ZM86.3952 86.3V86.05H86.1452V86.3H86.3952ZM88.1772 86.3H88.4272V86.05H88.1772V86.3ZM88.1772 94V94.25H88.4272V94H88.1772ZM86.6452 94V86.3H86.1452V94H86.6452ZM86.3952 86.55H88.1772V86.05H86.3952V86.55ZM87.9272 86.3V94H88.4272V86.3H87.9272ZM88.1772 93.75H86.3952V94.25H88.1772V93.75Z" fill="#2C85D4"/>
<path d="M46.8459 11.4558C46.9792 11.4545 47.1125 11.4532 47.2498 11.4519C47.6916 11.4479 48.1334 11.4453 48.5752 11.443C48.7264 11.4422 48.8776 11.4414 49.0334 11.4405C49.8343 11.4363 50.6352 11.4332 51.4361 11.4309C52.0973 11.4288 52.7584 11.4244 53.4196 11.4179C54.2193 11.4101 55.0188 11.4062 55.8185 11.4051C56.1223 11.404 56.4261 11.4016 56.7299 11.3978C58.6007 11.3758 59.9851 11.4075 61.4879 12.6432C62.1999 13.5178 62.8065 14.353 62.7987 15.5125C62.7982 15.6465 62.7977 15.7806 62.7971 15.9188C62.7958 16.0582 62.7945 16.1976 62.7931 16.3412C62.7924 16.4824 62.7917 16.6236 62.791 16.7691C62.7891 17.1176 62.7865 17.466 62.7832 17.8144C62.928 17.813 63.0728 17.8116 63.222 17.8102C64.5927 17.7974 65.9634 17.7878 67.3342 17.7816C68.0387 17.7784 68.7433 17.7739 69.4478 17.7667C70.1289 17.7598 70.81 17.756 71.4912 17.7544C71.7498 17.7532 72.0085 17.751 72.2671 17.7475C74.4466 17.7197 76.1777 17.9966 77.8125 19.5547C79.307 21.1308 79.7913 23.4123 80.3858 25.4428C80.4622 25.7011 80.5388 25.9593 80.6154 26.2175C80.8149 26.8911 81.0132 27.5651 81.2113 28.2391C81.3735 28.7906 81.5366 29.3418 81.6998 29.8929C82.0369 31.0315 82.3734 32.1702 82.7083 33.3094C82.7391 33.4136 82.7698 33.5178 82.8015 33.6252C82.9411 34.1009 83.0765 34.5763 83.1914 35.0586C83.3684 35.0584 83.5454 35.0582 83.7277 35.058C84.3929 35.0586 85.058 35.0654 85.7232 35.074C86.0095 35.0769 86.2958 35.0781 86.5821 35.0776C88.4796 35.0755 90.0744 35.1224 91.5726 36.4413C91.826 36.703 92.0158 36.965 92.209 37.2734C92.2739 37.3717 92.3387 37.47 92.4055 37.5713C93.0143 38.6755 93.0397 40.0041 92.8418 41.2285C92.4745 42.3875 91.8674 43.4596 90.7852 44.0762C90.4711 44.1882 90.1549 44.2949 89.836 44.3926C89.9277 44.519 90.0195 44.6454 90.1141 44.7757C92.2484 47.7567 92.9434 50.4233 92.9259 54.0405C92.9263 54.3557 92.9269 54.6709 92.9277 54.9861C92.9286 55.6424 92.9273 56.2987 92.9243 56.955C92.9207 57.792 92.9228 58.6289 92.9266 59.466C92.9289 60.1153 92.9281 60.7646 92.9265 61.4139C92.9261 61.7225 92.9266 62.031 92.9281 62.3395C92.9368 64.6634 92.7838 66.5191 91.1016 68.2812C90.0036 69.3294 88.7405 70.0418 87.1963 70.0277C87.0683 70.0268 86.9404 70.0259 86.8086 70.025C86.7113 70.0238 86.614 70.0227 86.5137 70.0215C86.5155 70.1287 86.5172 70.236 86.519 70.3465C86.5365 71.4628 86.5485 72.5791 86.5572 73.6956C86.5611 74.1122 86.5665 74.5288 86.5734 74.9454C86.583 75.5443 86.5875 76.1431 86.5909 76.742C86.595 76.9283 86.5991 77.1145 86.6033 77.3064C86.6034 77.4805 86.6034 77.6547 86.6035 77.8341C86.6053 77.9869 86.607 78.1397 86.6088 78.2972C86.472 78.909 86.2182 79.1391 85.7227 79.5137C85.2125 79.6141 85.2125 79.6141 84.6289 79.616C84.4686 79.6181 84.4686 79.6181 84.305 79.6202C83.9535 79.6237 83.6023 79.6214 83.2508 79.6187C83.0055 79.6192 82.7602 79.62 82.515 79.621C82.0016 79.6222 81.4884 79.6205 80.975 79.6168C80.318 79.6123 79.6612 79.6149 79.0041 79.6196C78.4979 79.6225 77.9917 79.6216 77.4854 79.6195C77.2432 79.619 77.001 79.6196 76.7588 79.6215C76.4198 79.6235 76.0813 79.6204 75.7423 79.616C75.5497 79.6154 75.3571 79.6148 75.1587 79.6141C74.6485 79.5137 74.6485 79.5137 73.8574 78.7226C73.8574 75.8513 73.8574 72.9799 73.8574 70.0215C59.7616 70.0215 45.6657 70.0215 31.1426 70.0215C31.1426 72.8929 31.1426 75.7642 31.1426 78.7226C30.2525 79.6128 30.2525 79.6128 29.2578 79.616C29.0975 79.6181 29.0975 79.6181 28.934 79.6202C28.5824 79.6237 28.2312 79.6214 27.8797 79.6187C27.6344 79.6192 27.3891 79.62 27.1439 79.621C26.6305 79.6222 26.1173 79.6205 25.604 79.6168C24.9469 79.6123 24.2901 79.6149 23.6331 79.6196C23.1268 79.6225 22.6206 79.6216 22.1143 79.6195C21.8721 79.619 21.6299 79.6196 21.3877 79.6215C21.0487 79.6235 20.7102 79.6204 20.3712 79.616C20.1786 79.6154 19.986 79.6148 19.7876 79.6141C19.1229 79.4833 18.889 79.2607 18.4864 78.7226C18.3912 78.2972 18.3912 78.2972 18.3966 77.8341C18.3966 77.66 18.3967 77.4858 18.3967 77.3064C18.4008 77.1201 18.4049 76.9339 18.4091 76.742C18.4102 76.55 18.4113 76.358 18.4125 76.1602C18.4169 75.5475 18.4269 74.9352 18.4369 74.3226C18.4409 73.907 18.4445 73.4914 18.4477 73.0758C18.4564 72.0576 18.4697 71.0396 18.4864 70.0215C18.389 70.0226 18.2917 70.0238 18.1914 70.025C18.0635 70.0259 17.9356 70.0268 17.8038 70.0277C17.6771 70.0288 17.5504 70.03 17.4199 70.0312C15.8903 69.9896 14.6003 69.0164 13.5864 67.9543C12.0378 66.1164 12.0632 64.1648 12.0742 61.8814C12.0738 61.5668 12.0731 61.2522 12.0724 60.9376C12.0714 60.2802 12.0728 59.6228 12.0757 58.9654C12.0793 58.1291 12.0773 57.2929 12.0735 56.4566C12.0712 55.8073 12.0719 55.158 12.0736 54.5086C12.074 54.2006 12.0735 53.8926 12.072 53.5846C12.0585 50.0017 12.9151 47.2549 15.1641 44.3926C15.0189 44.3481 14.8737 44.3036 14.7241 44.2578C13.6844 43.8869 13.1103 43.2234 12.5636 42.2766C11.9487 40.9406 11.8872 39.5437 12.3344 38.1472C12.9893 36.7244 13.8336 35.9633 15.2499 35.3501C15.8755 35.1356 16.4709 35.1214 17.1274 35.1204C17.2623 35.1178 17.3973 35.1151 17.5363 35.1124C17.9618 35.1048 18.3871 35.1014 18.8127 35.0981C19.1034 35.0937 19.3942 35.0889 19.6849 35.0839C20.3928 35.0723 21.1007 35.0644 21.8086 35.0586C21.8418 34.9458 21.8751 34.8329 21.9093 34.7167C22.2277 33.6352 22.5463 32.5537 22.8651 31.4723C23.0289 30.9168 23.1925 30.3613 23.3561 29.8058C23.7003 28.6366 24.0455 27.4677 24.3926 26.2993C24.5872 25.6437 24.7786 24.9873 24.9689 24.3305C25.0638 24.0077 25.1588 23.6848 25.2539 23.362C25.2943 23.2199 25.3347 23.0777 25.3764 22.9313C25.9136 21.1252 26.8861 19.3983 28.5845 18.4651C30.0476 17.7145 31.4802 17.7522 33.0862 17.7681C33.3501 17.769 33.6141 17.7696 33.8781 17.7701C34.5686 17.7719 35.2591 17.7766 35.9496 17.7818C36.656 17.7867 37.3623 17.7889 38.0686 17.7913C39.4514 17.7963 40.8341 17.8044 42.2168 17.8144C42.2128 17.6082 42.2088 17.402 42.2047 17.1896C42.2014 16.9163 42.1983 16.6429 42.1952 16.3696C42.1923 16.234 42.1894 16.0984 42.1864 15.9588C42.1752 14.6288 42.5339 13.803 43.3737 12.7816C44.5059 11.86 45.3763 11.4637 46.8459 11.4558Z" fill="#2169AC"/>
<path d="M23.1479 44.6075C23.4117 44.6064 23.6755 44.6051 23.9392 44.6034C24.661 44.5998 25.3828 44.6011 26.1046 44.6032C26.8842 44.6047 27.6638 44.6016 28.4434 44.5991C29.9695 44.595 31.4955 44.5952 33.0217 44.5969C34.2622 44.5983 35.5027 44.5981 36.7433 44.597C36.92 44.5968 37.0966 44.5966 37.2787 44.5965C37.6376 44.5961 37.9965 44.5958 38.3554 44.5954C41.7199 44.5923 45.0844 44.5942 48.4489 44.5978C51.3345 44.6006 54.22 44.5989 57.1056 44.5939C60.458 44.5881 63.8103 44.5854 67.1627 44.5875C67.5203 44.5877 67.8779 44.5879 68.2356 44.5881C68.4995 44.5883 68.4995 44.5883 68.7688 44.5884C70.0074 44.5889 71.2461 44.5871 72.4848 44.5844C73.9949 44.5812 75.5049 44.5814 77.015 44.5858C77.7852 44.588 78.5553 44.5886 79.3255 44.5852C80.0312 44.582 80.7367 44.5833 81.4424 44.5881C81.6971 44.589 81.9517 44.5884 82.2063 44.5859C84.3099 44.5674 85.7454 45.1023 87.2843 46.5586C89.384 48.8355 89.8021 51.2883 89.7772 54.2494C89.7774 54.537 89.7778 54.8245 89.7784 55.1121C89.7788 55.7102 89.7766 56.3082 89.7722 56.9062C89.7668 57.6695 89.7678 58.4327 89.7707 59.196C89.7724 59.7881 89.771 60.3801 89.7686 60.9721C89.7678 61.2535 89.7678 61.5349 89.7688 61.8164C89.7757 64.9215 89.7757 64.9215 88.8272 65.9968C87.9819 66.7736 87.0535 66.9047 85.9486 66.8981C85.8306 66.8987 85.7126 66.8992 85.5911 66.8998C85.1955 66.9013 84.7999 66.9005 84.4042 66.8997C84.1178 66.9003 83.8315 66.901 83.5451 66.9019C82.7578 66.9038 81.9705 66.9038 81.1833 66.9034C80.3343 66.9033 79.4854 66.9051 78.6364 66.9066C76.9732 66.9092 75.3099 66.9101 73.6466 66.9103C72.2949 66.9104 70.9431 66.9111 69.5914 66.9121C65.7601 66.9149 61.9289 66.9163 58.0977 66.9161C57.7878 66.9161 57.7878 66.9161 57.4717 66.916C57.2648 66.916 57.058 66.916 56.8449 66.916C53.4918 66.9159 50.1388 66.9189 46.7857 66.9234C43.3439 66.9279 39.9022 66.9301 36.4605 66.9298C34.5277 66.9297 32.595 66.9306 30.6622 66.934C29.0168 66.9369 27.3715 66.9376 25.7261 66.9354C24.8865 66.9344 24.0469 66.9344 23.2072 66.9371C22.4386 66.9396 21.6701 66.9391 20.9015 66.9364C20.6234 66.9359 20.3454 66.9365 20.0673 66.9382C17.2242 66.955 17.2242 66.955 16.1928 66.0068C15.389 65.1326 15.2748 64.193 15.2738 63.0507C15.2725 62.9263 15.2712 62.8019 15.2698 62.6737C15.266 62.264 15.2646 61.8543 15.2636 61.4445C15.2622 61.1572 15.2607 60.8698 15.2592 60.5824C15.2566 59.9799 15.2554 59.3774 15.255 58.7748C15.2541 58.0089 15.2482 57.2431 15.2409 56.4772C15.2362 55.8831 15.2351 55.289 15.2349 54.6949C15.2343 54.4129 15.2323 54.1309 15.229 53.849C15.1981 51.0156 15.7583 48.6664 17.7565 46.5178C19.4232 44.9296 20.8969 44.5915 23.1479 44.6075Z" fill="#FEFEFE"/>
<path d="M32.7345 20.8971C32.9969 20.8955 32.9969 20.8955 33.2645 20.8938C33.8499 20.8909 34.4352 20.8925 35.0206 20.8941C35.4406 20.893 35.8606 20.8917 36.2806 20.89C37.3026 20.8866 38.3246 20.8866 39.3466 20.8879C40.1776 20.8889 41.0086 20.8887 41.8397 20.8877C41.958 20.8875 42.0764 20.8874 42.1984 20.8873C42.4389 20.887 42.6794 20.8867 42.9199 20.8864C45.1745 20.8838 47.4291 20.8851 49.6837 20.8878C51.7445 20.8901 53.8053 20.8878 55.866 20.8832C57.9838 20.8786 60.1016 20.8769 62.2193 20.8784C62.4591 20.8785 62.6989 20.8787 62.9386 20.8788C63.1156 20.879 63.1156 20.879 63.2961 20.8791C64.1254 20.8794 64.9547 20.8779 65.7841 20.8756C66.7958 20.8728 67.8075 20.8728 68.8192 20.8764C69.335 20.8782 69.8507 20.8782 70.3664 20.8757C70.9267 20.8732 71.4867 20.8756 72.047 20.8791C72.2085 20.8773 72.3699 20.8754 72.5363 20.8735C73.6467 20.8878 74.5161 21.1363 75.4395 21.7695C76.2583 22.6669 76.533 23.8609 76.8633 25.0028C76.9452 25.278 76.9452 25.278 77.0289 25.5587C77.1862 26.0881 77.3412 26.6182 77.4961 27.1485C77.5685 27.3912 77.6412 27.6339 77.7142 27.8764C77.995 28.8136 78.2652 29.7529 78.5201 30.6975C79.0524 32.659 79.6412 34.5945 80.2844 36.522C80.3208 36.6313 80.3571 36.7406 80.3946 36.8533C80.8228 38.1375 81.2759 39.406 81.7826 40.6617C81.9258 41.0703 81.9258 41.0703 81.9258 41.5449C80.3074 41.5449 78.6889 41.5449 77.0215 41.5449C76.9693 41.1273 76.9171 40.7096 76.8633 40.2793C76.4486 37.564 75.0458 35.3644 72.831 33.7293C70.5668 32.2891 68.0017 31.8255 65.3676 32.3197C62.8614 33.0375 60.6977 34.546 59.3757 36.8192C58.5762 38.3904 58.2929 39.7543 58.0371 41.5449C46.4994 41.5449 34.9616 41.5449 23.0742 41.5449C23.2523 40.4766 23.2523 40.4766 23.4388 39.9882C23.4991 39.829 23.4991 39.829 23.5606 39.6666C23.6024 39.5588 23.6442 39.451 23.6873 39.34C23.7481 39.1792 23.7481 39.1792 23.8102 39.0152C24.004 38.5075 24.2063 38.009 24.427 37.512C24.6787 36.9027 24.8546 36.298 25.0221 35.6618C25.3053 34.616 25.6001 33.5748 25.912 32.5372C25.9518 32.4047 25.9917 32.2721 26.0327 32.1356C26.337 31.1297 26.6565 30.1291 26.9779 29.1285C27.3712 27.888 27.7154 26.6339 28.052 25.3769C28.8882 22.3091 28.8882 22.3091 30.3479 21.279C31.1147 20.8512 31.8752 20.8902 32.7345 20.8971Z" fill="#88CBFE"/>
<path d="M43.3226 50.9552C43.5432 50.9543 43.7637 50.9532 43.9842 50.9518C44.5795 50.949 45.1746 50.9501 45.7699 50.9521C46.3952 50.9537 47.0205 50.9522 47.6458 50.9512C48.6957 50.9501 49.7456 50.9516 50.7955 50.9546C52.0061 50.958 53.2166 50.9569 54.4272 50.9534C55.4699 50.9506 56.5125 50.9502 57.5551 50.9518C58.1764 50.9528 58.7977 50.9529 59.419 50.9508C60.0035 50.949 60.5879 50.9503 61.1724 50.9539C61.4868 50.9552 61.8013 50.9533 62.1157 50.9513C63.7396 50.9665 65.0901 51.2879 66.2909 52.435C67.253 53.5739 67.6804 54.7533 67.6004 56.2411C67.4059 57.5856 66.8305 58.6958 65.7891 59.5801C64.8321 60.1647 63.9568 60.5472 62.8293 60.5547C62.641 60.5563 62.4527 60.5579 62.2588 60.5595C61.9485 60.5609 61.9485 60.5609 61.6319 60.5623C61.4121 60.5638 61.1922 60.5654 60.9723 60.567C60.2496 60.572 59.5268 60.5752 58.804 60.5781C58.6809 60.5786 58.5577 60.5791 58.4308 60.5797C57.2681 60.5846 56.1055 60.5888 54.9428 60.5915C53.4585 60.5949 51.9744 60.6015 50.4902 60.6126C49.4451 60.6201 48.4001 60.6239 47.355 60.625C46.7317 60.6258 46.1086 60.6282 45.4853 60.6345C44.8977 60.6404 44.3102 60.6416 43.7225 60.6395C43.407 60.6395 43.0915 60.6442 42.776 60.6491C41.2644 60.6371 40.0164 60.2813 38.8575 59.2723C37.883 58.2763 37.4459 57.1021 37.3718 55.7239C37.4218 54.3104 37.9939 53.1139 39.0231 52.1445C40.3171 51.0476 41.684 50.9449 43.3226 50.9552Z" fill="#2269AC"/>
<path d="M81.9555 50.345C83.4337 51.2945 84.4279 52.6404 84.813 54.3495C85.1156 56.1595 84.8536 57.8174 83.8638 59.4021C82.8479 60.7932 81.4976 61.7414 79.7962 62.0601C77.8173 62.3127 76.2918 61.9801 74.6682 60.7963C73.2202 59.5813 72.4091 57.9971 72.2321 56.1138C72.1725 54.2615 72.7623 52.7236 74.0156 51.3535C76.1849 49.1536 79.275 48.874 81.9555 50.345Z" fill="#236AAC"/>
<path d="M29.7484 50.345C31.2267 51.2945 32.2209 52.6404 32.606 54.3495C32.9085 56.1595 32.6465 57.8174 31.6567 59.4021C30.6409 60.7932 29.2906 61.7414 27.5892 62.0601C25.6103 62.3127 24.0848 61.9801 22.4612 60.7963C21.0132 59.5813 20.2021 57.9971 20.0251 56.1138C19.9654 54.2615 20.5553 52.7236 21.8086 51.3535C23.9778 49.1536 27.068 48.874 29.7484 50.345Z" fill="#236AAC"/>
<path d="M42.4134 54.179C42.5933 54.1781 42.7732 54.1772 42.9585 54.1762C43.1576 54.1761 43.3568 54.1759 43.5619 54.1757C43.7703 54.1749 43.9786 54.1741 44.1933 54.1733C44.7667 54.1712 45.34 54.1702 45.9134 54.1695C46.2715 54.1691 46.6297 54.1684 46.9879 54.1677C48.1083 54.1655 49.2287 54.164 50.3491 54.1634C51.6427 54.1627 52.9363 54.1599 54.2299 54.1553C55.2293 54.1519 56.2288 54.1503 57.2283 54.1501C57.8254 54.1499 58.4224 54.149 59.0195 54.1462C59.5816 54.1436 60.1437 54.1432 60.7058 54.1446C61.0098 54.1448 61.3138 54.1426 61.6178 54.1404C63.3197 54.1486 63.3197 54.1486 64.0488 54.6758C64.4418 55.2652 64.4254 55.5597 64.3652 56.2578C64.1541 56.7578 64.0222 56.9835 63.5338 57.226C63.0624 57.3772 62.6874 57.4063 62.193 57.4086C62.012 57.4102 61.831 57.4118 61.6445 57.4134C61.4474 57.4135 61.2503 57.4136 61.0473 57.4137C60.8386 57.415 60.6299 57.4164 60.4149 57.4177C59.8435 57.4212 59.2722 57.4226 58.7008 57.4234C58.3437 57.424 57.9866 57.4249 57.6295 57.4261C56.3833 57.4299 55.1371 57.432 53.8909 57.4326C52.7297 57.4331 51.5686 57.4379 50.4075 57.4445C49.4098 57.45 48.4123 57.4524 47.4146 57.4525C46.8191 57.4527 46.2236 57.4541 45.628 57.4586C44.9641 57.4635 44.3003 57.4621 43.6363 57.4601C43.4392 57.4624 43.2421 57.4648 43.039 57.4672C41.5572 57.4545 41.5572 57.4545 41.0689 56.9864C40.6642 56.3819 40.5404 55.8739 40.6347 55.1504C41.0105 54.6758 41.0105 54.6758 41.4258 54.3594C41.6957 54.0895 42.0443 54.1801 42.4134 54.179Z" fill="#FEFEFE"/>
<path d="M70.6934 36.0078C72.2258 36.9252 73.0657 38.1893 73.7388 39.8047C73.8574 40.2793 73.8574 40.2793 73.8574 41.5449C69.6809 41.5449 65.5043 41.5449 61.2012 41.5449C61.2012 39.6531 61.8798 38.1919 63.2034 36.8495C65.3322 34.9045 68.1612 34.7004 70.6934 36.0078Z" fill="#88CBFE"/>
<path d="M47.0529 14.5432C47.1654 14.5448 47.278 14.5464 47.3939 14.548C47.5746 14.5459 47.5746 14.5459 47.759 14.5438C48.156 14.5403 48.5527 14.5426 48.9497 14.5453C49.2265 14.5448 49.5033 14.544 49.7801 14.543C50.3598 14.5419 50.9394 14.5436 51.5191 14.5472C52.2609 14.5518 53.0025 14.5492 53.7443 14.5444C54.3159 14.5416 54.8873 14.5425 55.4589 14.5445C55.7323 14.5451 56.0057 14.5444 56.2792 14.5426C56.662 14.5405 57.0446 14.5436 57.4274 14.548C57.5396 14.5464 57.6519 14.5448 57.7675 14.5432C58.3241 14.555 58.7161 14.6716 59.2222 14.904C59.6191 15.4414 59.6191 15.4414 59.6191 17.8144C54.9205 17.8144 50.2219 17.8144 45.3809 17.8144C45.3809 14.5787 45.3809 14.5787 47.0529 14.5432Z" fill="#FEFEFE"/>
<path d="M77.0215 70.0215C79.1098 70.0215 81.198 70.0215 83.3496 70.0215C83.3496 72.1098 83.3496 74.198 83.3496 76.3496C81.2613 76.3496 79.173 76.3496 77.0215 76.3496C77.0215 74.2613 77.0215 72.173 77.0215 70.0215Z" fill="white"/>
<path d="M21.6504 70.0215C23.7387 70.0215 25.827 70.0215 27.9785 70.0215C27.9785 72.1098 27.9785 74.198 27.9785 76.3496C25.8902 76.3496 23.802 76.3496 21.6504 76.3496C21.6504 74.2613 21.6504 72.173 21.6504 70.0215Z" fill="white"/>
<path d="M80.3308 53.0288C81.0369 53.5071 81.5004 54.1907 81.7676 54.9922C81.898 56.0569 81.7068 56.9306 81.1348 57.8398C80.5294 58.5387 79.8163 58.877 78.9045 58.9874C77.9866 59.0362 77.2991 58.8466 76.5469 58.3144C75.7493 57.5938 75.4363 56.78 75.3801 55.7239C75.4037 54.9457 75.6004 54.3487 76.0723 53.7265C77.3583 52.5362 78.7261 52.2448 80.3308 53.0288Z" fill="#FBFCFD"/>
<path d="M28.1237 53.0288C28.8299 53.5071 29.2934 54.1907 29.5605 54.9922C29.691 56.0569 29.4997 56.9306 28.9277 57.8398C28.3224 58.5387 27.6093 58.877 26.6974 58.9874C25.7796 59.0362 25.092 58.8466 24.3398 58.3144C23.5423 57.5938 23.2293 56.78 23.1731 55.7239C23.1966 54.9457 23.3934 54.3487 23.8652 53.7265C25.1513 52.5362 26.5191 52.2448 28.1237 53.0288Z" fill="#FBFCFD"/>
<path d="M16.6961 38.3629C16.8809 38.3637 17.0656 38.3646 17.256 38.3654C17.4553 38.3659 17.6547 38.3664 17.8601 38.367C18.0721 38.3683 18.2842 38.3696 18.4963 38.371C18.709 38.3718 18.9216 38.3725 19.1343 38.3732C19.6566 38.375 20.1789 38.3776 20.7012 38.3809C20.6129 38.8663 20.5066 39.3116 20.3199 39.7682C20.2776 39.8728 20.2353 39.9773 20.1917 40.085C20.1477 40.1915 20.1038 40.2981 20.0585 40.4079C20.014 40.5175 19.9694 40.6271 19.9235 40.74C19.8142 41.0086 19.7041 41.2768 19.5938 41.5449C19.0566 41.568 18.5196 41.582 17.9821 41.5944C17.8303 41.601 17.6784 41.6076 17.522 41.6145C16.395 41.634 16.395 41.634 15.7802 41.1908C15.3583 40.5758 15.2255 40.0723 15.3223 39.3301C15.698 38.8555 15.698 38.8555 16.1133 38.5391C16.2715 38.3809 16.2715 38.3809 16.6961 38.3629Z" fill="#FCFCFD"/>
<path d="M84.2988 38.3809C84.9646 38.367 85.6303 38.3586 86.2961 38.3512C86.5785 38.3452 86.5785 38.3452 86.8665 38.3391C88.6358 38.3243 88.6358 38.3243 89.3613 38.8555C89.759 39.452 89.6996 39.7274 89.606 40.4122C89.4856 40.8877 89.2836 41.1066 88.8867 41.3867C88.4399 41.5356 88.1702 41.5635 87.7082 41.5604C87.5741 41.5599 87.4401 41.5594 87.3019 41.5588C87.1625 41.5575 87.0231 41.5562 86.8795 41.5548C86.7383 41.5541 86.5971 41.5534 86.4516 41.5526C86.1031 41.5508 85.7547 41.5482 85.4062 41.5449C85.2207 41.107 85.0363 40.6686 84.8525 40.2299C84.7733 40.0434 84.7733 40.0434 84.6925 39.8532C84.6425 39.7334 84.5926 39.6136 84.5411 39.4901C84.4947 39.3799 84.4483 39.2698 84.4005 39.1562C84.2988 38.8555 84.2988 38.8555 84.2988 38.3809Z" fill="#FCFDFE"/>
</svg>
