<svg width="290" height="165" viewBox="0 0 290 165" fill="none" xmlns="http://www.w3.org/2000/svg">
<mask id="mask0_2335_609" style="mask-type:luminance" maskUnits="userSpaceOnUse" x="0" y="0" width="290" height="165">
<path d="M290 0H0V165H290V0Z" fill="white"/>
</mask>
<g mask="url(#mask0_2335_609)">
<path d="M169.718 7.0994e-08H120.285C112.793 7.09939e-08 105.608 2.9548 100.31 8.21437C95.0128 13.474 92.0366 20.6075 92.0366 28.0456V77.1225C92.0298 82.3243 93.4875 87.4246 96.2454 91.8475C100.496 85.1194 107.9 75.8217 109.508 73.5205C108.128 63.5525 110.292 45.1457 130.305 39.1986C150.319 33.2516 156.581 38.237 169.012 37.6964C181.444 37.1558 188.226 23.4671 187.474 14.7869C198.881 58.7266 156.194 65.6024 150.251 63.0258C157.284 68.0433 162.817 69.7091 166.779 69.1026C147.767 87.0486 124.825 84.8541 115.121 80.7683C115.463 80.2543 115.831 79.7196 116.226 79.1643C117.962 76.6982 119.846 74.3388 121.869 72.0991C122.974 70.8602 124.18 69.6413 125.426 68.4213C126.697 67.2303 128.011 66.0323 129.398 64.9301L130.436 64.0962L131.502 63.2982C132.205 62.7535 132.941 62.2727 133.661 61.773C134.382 61.2732 135.135 60.8354 135.859 60.3705C136.593 59.9246 137.344 59.5256 138.069 59.1067C138.809 58.7166 139.551 58.3556 140.269 57.9895C141.002 57.6513 141.729 57.3401 142.433 57.0259C143.861 56.4523 145.227 55.9287 146.519 55.5446C146.84 55.4449 147.156 55.3451 147.463 55.2454C147.776 55.1649 148.081 55.0854 148.379 55.007L150.075 54.5711C151.154 54.3646 152.095 54.1571 152.877 54.0324L155.345 53.6953L152.852 53.8329C152.06 53.8938 151.102 54.0324 149.996 54.1481C149.449 54.2479 148.867 54.3476 148.253 54.4474L147.306 54.6139C146.987 54.6868 146.66 54.7636 146.328 54.8414C144.985 55.1286 143.557 55.5456 142.051 56.0134C141.309 56.2768 140.544 56.5331 139.763 56.8214C138.999 57.1356 138.208 57.4428 137.416 57.783C136.637 58.1501 135.831 58.4992 135.038 58.8982C134.256 59.3162 133.439 59.6962 132.66 60.159C131.88 60.6219 131.07 61.0508 130.301 61.5555L129.131 62.2887L127.989 63.0637C126.457 64.0952 124.998 65.2243 123.575 66.3555C122.176 67.5146 120.819 68.6836 119.566 69.8786C117.265 72.0464 115.098 74.3502 113.076 76.7774C112.843 77.0567 112.623 77.326 112.405 77.5923C110.61 80.2456 102.674 90.2096 99.2887 95.8834C101.934 98.8103 105.172 101.15 108.79 102.751C112.409 104.352 116.326 105.177 120.287 105.173H169.72C177.212 105.173 184.397 102.218 189.695 96.9587C194.992 91.6991 197.968 84.5656 197.968 77.1275V28.0506C197.969 24.367 197.239 20.7194 195.819 17.316C194.4 13.9127 192.319 10.8202 189.696 8.21541C187.072 5.61058 183.958 3.54437 180.53 2.13475C177.102 0.72513 173.428 -0.000262015 169.718 7.0994e-08Z" fill="white"/>
</g>
<path d="M23.745 150V127.28H14.785V122H39.185V127.28H30.225V150H23.745ZM63.4716 122H69.9516V150H63.4716V122ZM50.7516 150H44.2716V122H50.7516V150ZM63.9516 138.52H50.2716V133.04H63.9516V138.52ZM74.4962 150L86.9762 122H93.3762L105.896 150H99.0962L88.8562 125.28H91.4162L81.1362 150H74.4962ZM80.7362 144L82.4562 139.08H96.8562L98.6162 144H80.7362ZM123.531 150.48C121.317 150.48 119.277 150.133 117.411 149.44C115.571 148.72 113.957 147.707 112.571 146.4C111.211 145.093 110.144 143.56 109.371 141.8C108.624 140.04 108.251 138.107 108.251 136C108.251 133.893 108.624 131.96 109.371 130.2C110.144 128.44 111.224 126.907 112.611 125.6C113.997 124.293 115.624 123.293 117.491 122.6C119.357 121.88 121.411 121.52 123.651 121.52C126.131 121.52 128.357 121.933 130.331 122.76C132.331 123.587 134.011 124.787 135.371 126.36L131.211 130.2C130.197 129.133 129.091 128.347 127.891 127.84C126.691 127.307 125.384 127.04 123.971 127.04C122.611 127.04 121.371 127.253 120.251 127.68C119.131 128.107 118.157 128.72 117.331 129.52C116.531 130.32 115.904 131.267 115.451 132.36C115.024 133.453 114.811 134.667 114.811 136C114.811 137.307 115.024 138.507 115.451 139.6C115.904 140.693 116.531 141.653 117.331 142.48C118.157 143.28 119.117 143.893 120.211 144.32C121.331 144.747 122.557 144.96 123.891 144.96C125.171 144.96 126.411 144.76 127.611 144.36C128.837 143.933 130.024 143.227 131.171 142.24L134.851 146.92C133.331 148.067 131.557 148.947 129.531 149.56C127.531 150.173 125.531 150.48 123.531 150.48ZM128.931 146.08V135.56H134.851V146.92L128.931 146.08ZM138.79 150L151.27 122H157.67L170.19 150H163.39L153.15 125.28H155.71L145.43 150H138.79ZM145.03 144L146.75 139.08H161.15L162.91 144H145.03Z" fill="white"/>
<path d="M23.745 150H22.745V151H23.745V150ZM23.745 127.28H24.745V126.28H23.745V127.28ZM14.785 127.28H13.785V128.28H14.785V127.28ZM14.785 122V121H13.785V122H14.785ZM39.185 122H40.185V121H39.185V122ZM39.185 127.28V128.28H40.185V127.28H39.185ZM30.225 127.28V126.28H29.225V127.28H30.225ZM30.225 150V151H31.225V150H30.225ZM24.745 150V127.28H22.745V150H24.745ZM23.745 126.28H14.785V128.28H23.745V126.28ZM15.785 127.28V122H13.785V127.28H15.785ZM14.785 123H39.185V121H14.785V123ZM38.185 122V127.28H40.185V122H38.185ZM39.185 126.28H30.225V128.28H39.185V126.28ZM29.225 127.28V150H31.225V127.28H29.225ZM30.225 149H23.745V151H30.225V149ZM63.4716 122V121H62.4716V122H63.4716ZM69.9516 122H70.9516V121H69.9516V122ZM69.9516 150V151H70.9516V150H69.9516ZM63.4716 150H62.4716V151H63.4716V150ZM50.7516 150V151H51.7516V150H50.7516ZM44.2716 150H43.2716V151H44.2716V150ZM44.2716 122V121H43.2716V122H44.2716ZM50.7516 122H51.7516V121H50.7516V122ZM63.9516 138.52V139.52H64.9516V138.52H63.9516ZM50.2716 138.52H49.2716V139.52H50.2716V138.52ZM50.2716 133.04V132.04H49.2716V133.04H50.2716ZM63.9516 133.04H64.9516V132.04H63.9516V133.04ZM63.4716 123H69.9516V121H63.4716V123ZM68.9516 122V150H70.9516V122H68.9516ZM69.9516 149H63.4716V151H69.9516V149ZM64.4716 150V122H62.4716V150H64.4716ZM50.7516 149H44.2716V151H50.7516V149ZM45.2716 150V122H43.2716V150H45.2716ZM44.2716 123H50.7516V121H44.2716V123ZM49.7516 122V150H51.7516V122H49.7516ZM63.9516 137.52H50.2716V139.52H63.9516V137.52ZM51.2716 138.52V133.04H49.2716V138.52H51.2716ZM50.2716 134.04H63.9516V132.04H50.2716V134.04ZM62.9516 133.04V138.52H64.9516V133.04H62.9516ZM74.4962 150L73.5829 149.593L72.9557 151H74.4962V150ZM86.9762 122V121H86.3271L86.0629 121.593L86.9762 122ZM93.3763 122L94.2891 121.592L94.0245 121H93.3763V122ZM105.896 150V151H107.439L106.809 149.592L105.896 150ZM99.0962 150L98.1724 150.383L98.4281 151H99.0962V150ZM88.8562 125.28V124.28H87.3596L87.9324 125.663L88.8562 125.28ZM91.4162 125.28L92.3396 125.664L92.9151 124.28H91.4162V125.28ZM81.1362 150V151H81.8034L82.0596 150.384L81.1362 150ZM80.7362 144L79.7923 143.67L79.3273 145H80.7362V144ZM82.4562 139.08V138.08H81.7465L81.5123 138.75L82.4562 139.08ZM96.8562 139.08L97.7978 138.743L97.5606 138.08H96.8562V139.08ZM98.6162 144V145H100.036L99.5578 143.663L98.6162 144ZM75.4096 150.407L87.8896 122.407L86.0629 121.593L73.5829 149.593L75.4096 150.407ZM86.9762 123H93.3763V121H86.9762V123ZM92.4634 122.408L104.983 150.408L106.809 149.592L94.2891 121.592L92.4634 122.408ZM105.896 149H99.0962V151H105.896V149ZM100.02 149.617L89.7801 124.897L87.9324 125.663L98.1724 150.383L100.02 149.617ZM88.8562 126.28H91.4162V124.28H88.8562V126.28ZM90.4929 124.896L80.2129 149.616L82.0596 150.384L92.3396 125.664L90.4929 124.896ZM81.1362 149H74.4962V151H81.1362V149ZM81.6802 144.33L83.4002 139.41L81.5123 138.75L79.7923 143.67L81.6802 144.33ZM82.4562 140.08H96.8562V138.08H82.4562V140.08ZM95.9147 139.417L97.6747 144.337L99.5578 143.663L97.7978 138.743L95.9147 139.417ZM98.6162 143H80.7362V145H98.6162V143ZM117.411 149.44L117.046 150.371L117.054 150.374L117.062 150.377L117.411 149.44ZM112.571 146.4L111.878 147.121L111.885 147.128L112.571 146.4ZM109.371 141.8L108.45 142.191L108.455 142.202L109.371 141.8ZM109.371 130.2L108.455 129.798L108.45 129.809L109.371 130.2ZM112.611 125.6L113.296 126.328L112.611 125.6ZM117.491 122.6L117.839 123.537L117.851 123.533L117.491 122.6ZM130.331 122.76L129.944 123.682L129.949 123.684L130.331 122.76ZM135.371 126.36L136.049 127.095L136.76 126.438L136.127 125.706L135.371 126.36ZM131.211 130.2L130.486 130.889L131.165 131.603L131.889 130.935L131.211 130.2ZM127.891 127.84L127.484 128.754L127.493 128.758L127.502 128.761L127.891 127.84ZM117.331 129.52L116.635 128.801L116.629 128.807L116.624 128.813L117.331 129.52ZM115.451 132.36L114.527 131.977L114.523 131.987L114.519 131.996L115.451 132.36ZM115.451 139.6L114.519 139.964L114.523 139.973L114.527 139.983L115.451 139.6ZM117.331 142.48L116.612 143.175L116.623 143.187L116.635 143.199L117.331 142.48ZM120.211 144.32L119.847 145.252L119.855 145.254L120.211 144.32ZM127.611 144.36L127.927 145.309L127.939 145.304L127.611 144.36ZM131.171 142.24L131.957 141.622L131.311 140.8L130.518 141.482L131.171 142.24ZM134.851 146.92L135.453 147.718L136.267 147.104L135.637 146.302L134.851 146.92ZM129.531 149.56L129.241 148.603L129.237 148.604L129.531 149.56ZM128.931 146.08H127.931V146.948L128.79 147.07L128.931 146.08ZM128.931 135.56V134.56H127.931V135.56H128.931ZM134.851 135.56H135.851V134.56H134.851V135.56ZM134.851 146.92L134.71 147.91L135.851 148.072V146.92H134.851ZM123.531 149.48C121.423 149.48 119.502 149.15 117.759 148.503L117.062 150.377C119.052 151.117 121.212 151.48 123.531 151.48V149.48ZM117.775 148.509C116.05 147.834 114.547 146.888 113.256 145.672L111.885 147.128C113.368 148.525 115.092 149.606 117.046 150.371L117.775 148.509ZM113.263 145.679C112 144.465 111.008 143.04 110.286 141.398L108.455 142.202C109.28 144.08 110.422 145.722 111.878 147.121L113.263 145.679ZM110.291 141.409C109.602 139.785 109.251 137.986 109.251 136H107.251C107.251 138.227 107.646 140.295 108.45 142.191L110.291 141.409ZM109.251 136C109.251 134.014 109.602 132.215 110.291 130.591L108.45 129.809C107.646 131.705 107.251 133.773 107.251 136H109.251ZM110.286 130.602C111.006 128.964 112.008 127.542 113.296 126.328L111.925 124.872C110.44 126.272 109.282 127.916 108.455 129.798L110.286 130.602ZM113.296 126.328C114.581 125.117 116.092 124.186 117.839 123.537L117.142 121.663C115.156 122.4 113.413 123.47 111.925 124.872L113.296 126.328ZM117.851 123.533C119.589 122.862 121.519 122.52 123.651 122.52V120.52C121.302 120.52 119.125 120.898 117.131 121.667L117.851 123.533ZM123.651 122.52C126.019 122.52 128.111 122.914 129.944 123.682L130.717 121.838C128.603 120.952 126.242 120.52 123.651 120.52V122.52ZM129.949 123.684C131.81 124.454 133.36 125.564 134.614 127.014L136.127 125.706C134.661 124.01 132.851 122.72 130.713 121.836L129.949 123.684ZM134.692 125.625L130.532 129.465L131.889 130.935L136.049 127.095L134.692 125.625ZM131.936 129.511C130.84 128.358 129.622 127.485 128.28 126.919L127.502 128.761C128.559 129.208 129.555 129.909 130.486 130.889L131.936 129.511ZM128.297 126.926C126.959 126.332 125.513 126.04 123.971 126.04V128.04C125.255 128.04 126.422 128.282 127.484 128.754L128.297 126.926ZM123.971 126.04C122.505 126.04 121.143 126.27 119.895 126.746L120.607 128.614C121.599 128.237 122.716 128.04 123.971 128.04V126.04ZM119.895 126.746C118.653 127.218 117.563 127.903 116.635 128.801L118.026 130.239C118.751 129.537 119.608 128.995 120.607 128.614L119.895 126.746ZM116.624 128.813C115.726 129.71 115.028 130.768 114.527 131.977L116.374 132.743C116.78 131.765 117.335 130.93 118.038 130.227L116.624 128.813ZM114.519 131.996C114.041 133.22 113.811 134.559 113.811 136H115.811C115.811 134.774 116.006 133.686 116.382 132.724L114.519 131.996ZM113.811 136C113.811 137.417 114.042 138.742 114.519 139.964L116.382 139.236C116.006 138.271 115.811 137.196 115.811 136H113.811ZM114.527 139.983C115.027 141.189 115.722 142.256 116.612 143.175L118.049 141.785C117.339 141.051 116.781 140.198 116.374 139.217L114.527 139.983ZM116.635 143.199C117.559 144.093 118.633 144.778 119.847 145.252L120.574 143.388C119.602 143.009 118.755 142.467 118.026 141.761L116.635 143.199ZM119.855 145.254C121.1 145.729 122.449 145.96 123.891 145.96V143.96C122.665 143.96 121.561 143.764 120.567 143.386L119.855 145.254ZM123.891 145.96C125.277 145.96 126.624 145.743 127.927 145.309L127.294 143.411C126.198 143.777 125.064 143.96 123.891 143.96V145.96ZM127.939 145.304C129.302 144.83 130.596 144.053 131.823 142.998L130.518 141.482C129.451 142.4 128.372 143.036 127.282 143.416L127.939 145.304ZM130.385 142.858L134.065 147.538L135.637 146.302L131.957 141.622L130.385 142.858ZM134.248 146.122C132.832 147.19 131.167 148.02 129.241 148.603L129.82 150.517C131.947 149.873 133.829 148.943 135.453 147.718L134.248 146.122ZM129.237 148.604C127.328 149.189 125.427 149.48 123.531 149.48V151.48C125.634 151.48 127.733 151.157 129.824 150.516L129.237 148.604ZM129.931 146.08V135.56H127.931V146.08H129.931ZM128.931 136.56H134.851V134.56H128.931V136.56ZM133.851 135.56V146.92H135.851V135.56H133.851ZM134.991 145.93L129.071 145.09L128.79 147.07L134.71 147.91L134.991 145.93ZM138.79 150L137.877 149.593L137.249 151H138.79V150ZM151.27 122V121H150.621L150.357 121.593L151.27 122ZM157.67 122L158.583 121.592L158.318 121H157.67V122ZM170.19 150V151H171.733L171.103 149.592L170.19 150ZM163.39 150L162.466 150.383L162.722 151H163.39V150ZM153.15 125.28V124.28H151.653L152.226 125.663L153.15 125.28ZM155.71 125.28L156.633 125.664L157.209 124.28H155.71V125.28ZM145.43 150V151H146.097L146.353 150.384L145.43 150ZM145.03 144L144.086 143.67L143.621 145H145.03V144ZM146.75 139.08V138.08H146.04L145.806 138.75L146.75 139.08ZM161.15 139.08L162.092 138.743L161.854 138.08H161.15V139.08ZM162.91 144V145H164.33L163.852 143.663L162.91 144ZM139.703 150.407L152.183 122.407L150.357 121.593L137.877 149.593L139.703 150.407ZM151.27 123H157.67V121H151.27V123ZM156.757 122.408L169.277 150.408L171.103 149.592L158.583 121.592L156.757 122.408ZM170.19 149H163.39V151H170.19V149ZM164.314 149.617L154.074 124.897L152.226 125.663L162.466 150.383L164.314 149.617ZM153.15 126.28H155.71V124.28H153.15V126.28ZM154.787 124.896L144.507 149.616L146.353 150.384L156.633 125.664L154.787 124.896ZM145.43 149H138.79V151H145.43V149ZM145.974 144.33L147.694 139.41L145.806 138.75L144.086 143.67L145.974 144.33ZM146.75 140.08H161.15V138.08H146.75V140.08ZM160.208 139.417L161.968 144.337L163.852 143.663L162.092 138.743L160.208 139.417ZM162.91 143H145.03V145H162.91V143Z" fill="white"/>
<path d="M190.099 150V127.28H181.139V122H205.539V127.28H196.579V150H190.099ZM205.539 150L218.019 122H224.419L236.939 150H230.139L219.899 125.28H222.459L212.179 150H205.539ZM211.779 144L213.499 139.08H227.899L229.659 144H211.779ZM236.76 150L248.8 133.4V138.12L237.28 122H244.64L252.6 133.24L249.52 133.28L257.36 122H264.4L252.96 137.84V133.2L265.08 150H257.6L249.36 138.12H252.32L244.2 150H236.76ZM269.216 150V122H275.696V150H269.216Z" fill="white"/>
<path d="M190.099 150H189.099V151H190.099V150ZM190.099 127.28H191.099V126.28H190.099V127.28ZM181.139 127.28H180.139V128.28H181.139V127.28ZM181.139 122V121H180.139V122H181.139ZM205.539 122H206.539V121H205.539V122ZM205.539 127.28V128.28H206.539V127.28H205.539ZM196.579 127.28V126.28H195.579V127.28H196.579ZM196.579 150V151H197.579V150H196.579ZM191.099 150V127.28H189.099V150H191.099ZM190.099 126.28H181.139V128.28H190.099V126.28ZM182.139 127.28V122H180.139V127.28H182.139ZM181.139 123H205.539V121H181.139V123ZM204.539 122V127.28H206.539V122H204.539ZM205.539 126.28H196.579V128.28H205.539V126.28ZM195.579 127.28V150H197.579V127.28H195.579ZM196.579 149H190.099V151H196.579V149ZM205.539 150L204.626 149.593L203.999 151H205.539V150ZM218.019 122V121H217.37L217.106 121.593L218.019 122ZM224.419 122L225.332 121.592L225.067 121H224.419V122ZM236.939 150V151H238.482L237.852 149.592L236.939 150ZM230.139 150L229.215 150.383L229.471 151H230.139V150ZM219.899 125.28V124.28H218.403L218.975 125.663L219.899 125.28ZM222.459 125.28L223.383 125.664L223.958 124.28H222.459V125.28ZM212.179 150V151H212.846L213.103 150.384L212.179 150ZM211.779 144L210.835 143.67L210.37 145H211.779V144ZM213.499 139.08V138.08H212.789L212.555 138.75L213.499 139.08ZM227.899 139.08L228.841 138.743L228.604 138.08H227.899V139.08ZM229.659 144V145H231.079L230.601 143.663L229.659 144ZM206.453 150.407L218.933 122.407L217.106 121.593L204.626 149.593L206.453 150.407ZM218.019 123H224.419V121H218.019V123ZM223.506 122.408L236.026 150.408L237.852 149.592L225.332 121.592L223.506 122.408ZM236.939 149H230.139V151H236.939V149ZM231.063 149.617L220.823 124.897L218.975 125.663L229.215 150.383L231.063 149.617ZM219.899 126.28H222.459V124.28H219.899V126.28ZM221.536 124.896L211.256 149.616L213.103 150.384L223.383 125.664L221.536 124.896ZM212.179 149H205.539V151H212.179V149ZM212.723 144.33L214.443 139.41L212.555 138.75L210.835 143.67L212.723 144.33ZM213.499 140.08H227.899V138.08H213.499V140.08ZM226.958 139.417L228.718 144.337L230.601 143.663L228.841 138.743L226.958 139.417ZM229.659 143H211.779V145H229.659V143ZM236.76 150L235.95 149.413L234.799 151H236.76V150ZM248.8 133.4H249.8V130.318L247.99 132.813L248.8 133.4ZM248.8 138.12L247.986 138.701L249.8 141.239V138.12H248.8ZM237.28 122V121H235.336L236.466 122.581L237.28 122ZM244.64 122L245.456 121.422L245.157 121H244.64V122ZM252.6 133.24L252.613 134.24L254.516 134.215L253.416 132.662L252.6 133.24ZM249.52 133.28L248.699 132.709L247.59 134.305L249.533 134.28L249.52 133.28ZM257.36 122V121H256.837L256.539 121.429L257.36 122ZM264.4 122L265.211 122.585L266.356 121H264.4V122ZM252.96 137.84H251.96V140.933L253.771 138.425L252.96 137.84ZM252.96 133.2L253.771 132.615L251.96 130.105V133.2H252.96ZM265.08 150V151H267.034L265.891 149.415L265.08 150ZM257.6 150L256.778 150.57L257.076 151H257.6V150ZM249.36 138.12V137.12H247.449L248.538 138.69L249.36 138.12ZM252.32 138.12L253.145 138.684L254.215 137.12H252.32V138.12ZM244.2 150V151H244.728L245.025 150.564L244.2 150ZM237.569 150.587L249.609 133.987L247.99 132.813L235.95 149.413L237.569 150.587ZM247.8 133.4V138.12H249.8V133.4H247.8ZM249.613 137.539L238.093 121.419L236.466 122.581L247.986 138.701L249.613 137.539ZM237.28 123H244.64V121H237.28V123ZM243.824 122.578L251.784 133.818L253.416 132.662L245.456 121.422L243.824 122.578ZM252.587 132.24L249.507 132.28L249.533 134.28L252.613 134.24L252.587 132.24ZM250.341 133.851L258.181 122.571L256.539 121.429L248.699 132.709L250.341 133.851ZM257.36 123H264.4V121H257.36V123ZM263.589 121.415L252.149 137.255L253.771 138.425L265.211 122.585L263.589 121.415ZM253.96 137.84V133.2H251.96V137.84H253.96ZM252.149 133.785L264.269 150.585L265.891 149.415L253.771 132.615L252.149 133.785ZM265.08 149H257.6V151H265.08V149ZM258.422 149.43L250.182 137.55L248.538 138.69L256.778 150.57L258.422 149.43ZM249.36 139.12H252.32V137.12H249.36V139.12ZM251.494 137.556L243.374 149.436L245.025 150.564L253.145 138.684L251.494 137.556ZM244.2 149H236.76V151H244.2V149ZM269.216 150H268.216V151H269.216V150ZM269.216 122V121H268.216V122H269.216ZM275.696 122H276.696V121H275.696V122ZM275.696 150V151H276.696V150H275.696ZM270.216 150V122H268.216V150H270.216ZM269.216 123H275.696V121H269.216V123ZM274.696 122V150H276.696V122H274.696ZM275.696 149H269.216V151H275.696V149Z" fill="white"/>
</svg>
