<svg width="290" height="165" viewBox="0 0 290 165" fill="none" xmlns="http://www.w3.org/2000/svg">
<path d="M23.745 150V127.28H14.785V122H39.185V127.28H30.225V150H23.745ZM63.4716 122H69.9516V150H63.4716V122ZM50.7516 150H44.2716V122H50.7516V150ZM63.9516 138.52H50.2716V133.04H63.9516V138.52ZM74.4962 150L86.9762 122H93.3762L105.896 150H99.0962L88.8562 125.28H91.4162L81.1362 150H74.4962ZM80.7362 144L82.4562 139.08H96.8562L98.6162 144H80.7362ZM123.531 150.48C121.317 150.48 119.277 150.133 117.411 149.44C115.571 148.72 113.957 147.707 112.571 146.4C111.211 145.093 110.144 143.56 109.371 141.8C108.624 140.04 108.251 138.107 108.251 136C108.251 133.893 108.624 131.96 109.371 130.2C110.144 128.44 111.224 126.907 112.611 125.6C113.997 124.293 115.624 123.293 117.491 122.6C119.357 121.88 121.411 121.52 123.651 121.52C126.131 121.52 128.357 121.933 130.331 122.76C132.331 123.587 134.011 124.787 135.371 126.36L131.211 130.2C130.197 129.133 129.091 128.347 127.891 127.84C126.691 127.307 125.384 127.04 123.971 127.04C122.611 127.04 121.371 127.253 120.251 127.68C119.131 128.107 118.157 128.72 117.331 129.52C116.531 130.32 115.904 131.267 115.451 132.36C115.024 133.453 114.811 134.667 114.811 136C114.811 137.307 115.024 138.507 115.451 139.6C115.904 140.693 116.531 141.653 117.331 142.48C118.157 143.28 119.117 143.893 120.211 144.32C121.331 144.747 122.557 144.96 123.891 144.96C125.171 144.96 126.411 144.76 127.611 144.36C128.837 143.933 130.024 143.227 131.171 142.24L134.851 146.92C133.331 148.067 131.557 148.947 129.531 149.56C127.531 150.173 125.531 150.48 123.531 150.48ZM128.931 146.08V135.56H134.851V146.92L128.931 146.08ZM138.79 150L151.27 122H157.67L170.19 150H163.39L153.15 125.28H155.71L145.43 150H138.79ZM145.03 144L146.75 139.08H161.15L162.91 144H145.03Z" fill="white"/>
<path d="M23.745 150H22.745V151H23.745V150ZM23.745 127.28H24.745V126.28H23.745V127.28ZM14.785 127.28H13.785V128.28H14.785V127.28ZM14.785 122V121H13.785V122H14.785ZM39.185 122H40.185V121H39.185V122ZM39.185 127.28V128.28H40.185V127.28H39.185ZM30.225 127.28V126.28H29.225V127.28H30.225ZM30.225 150V151H31.225V150H30.225ZM24.745 150V127.28H22.745V150H24.745ZM23.745 126.28H14.785V128.28H23.745V126.28ZM15.785 127.28V122H13.785V127.28H15.785ZM14.785 123H39.185V121H14.785V123ZM38.185 122V127.28H40.185V122H38.185ZM39.185 126.28H30.225V128.28H39.185V126.28ZM29.225 127.28V150H31.225V127.28H29.225ZM30.225 149H23.745V151H30.225V149ZM63.4716 122V121H62.4716V122H63.4716ZM69.9516 122H70.9516V121H69.9516V122ZM69.9516 150V151H70.9516V150H69.9516ZM63.4716 150H62.4716V151H63.4716V150ZM50.7516 150V151H51.7516V150H50.7516ZM44.2716 150H43.2716V151H44.2716V150ZM44.2716 122V121H43.2716V122H44.2716ZM50.7516 122H51.7516V121H50.7516V122ZM63.9516 138.52V139.52H64.9516V138.52H63.9516ZM50.2716 138.52H49.2716V139.52H50.2716V138.52ZM50.2716 133.04V132.04H49.2716V133.04H50.2716ZM63.9516 133.04H64.9516V132.04H63.9516V133.04ZM63.4716 123H69.9516V121H63.4716V123ZM68.9516 122V150H70.9516V122H68.9516ZM69.9516 149H63.4716V151H69.9516V149ZM64.4716 150V122H62.4716V150H64.4716ZM50.7516 149H44.2716V151H50.7516V149ZM45.2716 150V122H43.2716V150H45.2716ZM44.2716 123H50.7516V121H44.2716V123ZM49.7516 122V150H51.7516V122H49.7516ZM63.9516 137.52H50.2716V139.52H63.9516V137.52ZM51.2716 138.52V133.04H49.2716V138.52H51.2716ZM50.2716 134.04H63.9516V132.04H50.2716V134.04ZM62.9516 133.04V138.52H64.9516V133.04H62.9516ZM74.4962 150L73.5829 149.593L72.9557 151H74.4962V150ZM86.9762 122V121H86.3271L86.0629 121.593L86.9762 122ZM93.3763 122L94.2891 121.592L94.0245 121H93.3763V122ZM105.896 150V151H107.439L106.809 149.592L105.896 150ZM99.0962 150L98.1724 150.383L98.4281 151H99.0962V150ZM88.8562 125.28V124.28H87.3596L87.9324 125.663L88.8562 125.28ZM91.4162 125.28L92.3396 125.664L92.9151 124.28H91.4162V125.28ZM81.1362 150V151H81.8034L82.0596 150.384L81.1362 150ZM80.7362 144L79.7923 143.67L79.3273 145H80.7362V144ZM82.4562 139.08V138.08H81.7465L81.5123 138.75L82.4562 139.08ZM96.8562 139.08L97.7978 138.743L97.5606 138.08H96.8562V139.08ZM98.6162 144V145H100.036L99.5578 143.663L98.6162 144ZM75.4096 150.407L87.8896 122.407L86.0629 121.593L73.5829 149.593L75.4096 150.407ZM86.9762 123H93.3763V121H86.9762V123ZM92.4634 122.408L104.983 150.408L106.809 149.592L94.2891 121.592L92.4634 122.408ZM105.896 149H99.0962V151H105.896V149ZM100.02 149.617L89.7801 124.897L87.9324 125.663L98.1724 150.383L100.02 149.617ZM88.8562 126.28H91.4162V124.28H88.8562V126.28ZM90.4929 124.896L80.2129 149.616L82.0596 150.384L92.3396 125.664L90.4929 124.896ZM81.1362 149H74.4962V151H81.1362V149ZM81.6802 144.33L83.4002 139.41L81.5123 138.75L79.7923 143.67L81.6802 144.33ZM82.4562 140.08H96.8562V138.08H82.4562V140.08ZM95.9147 139.417L97.6747 144.337L99.5578 143.663L97.7978 138.743L95.9147 139.417ZM98.6162 143H80.7362V145H98.6162V143ZM117.411 149.44L117.046 150.371L117.054 150.374L117.062 150.377L117.411 149.44ZM112.571 146.4L111.878 147.121L111.885 147.128L112.571 146.4ZM109.371 141.8L108.45 142.191L108.455 142.202L109.371 141.8ZM109.371 130.2L108.455 129.798L108.45 129.809L109.371 130.2ZM112.611 125.6L113.296 126.328L112.611 125.6ZM117.491 122.6L117.839 123.537L117.851 123.533L117.491 122.6ZM130.331 122.76L129.944 123.682L129.949 123.684L130.331 122.76ZM135.371 126.36L136.049 127.095L136.76 126.438L136.127 125.706L135.371 126.36ZM131.211 130.2L130.486 130.889L131.165 131.603L131.889 130.935L131.211 130.2ZM127.891 127.84L127.484 128.754L127.493 128.758L127.502 128.761L127.891 127.84ZM117.331 129.52L116.635 128.801L116.629 128.807L116.624 128.813L117.331 129.52ZM115.451 132.36L114.527 131.977L114.523 131.987L114.519 131.996L115.451 132.36ZM115.451 139.6L114.519 139.964L114.523 139.973L114.527 139.983L115.451 139.6ZM117.331 142.48L116.612 143.175L116.623 143.187L116.635 143.199L117.331 142.48ZM120.211 144.32L119.847 145.252L119.855 145.254L120.211 144.32ZM127.611 144.36L127.927 145.309L127.939 145.304L127.611 144.36ZM131.171 142.24L131.957 141.622L131.311 140.8L130.518 141.482L131.171 142.24ZM134.851 146.92L135.453 147.718L136.267 147.104L135.637 146.302L134.851 146.92ZM129.531 149.56L129.241 148.603L129.237 148.604L129.531 149.56ZM128.931 146.08H127.931V146.948L128.79 147.07L128.931 146.08ZM128.931 135.56V134.56H127.931V135.56H128.931ZM134.851 135.56H135.851V134.56H134.851V135.56ZM134.851 146.92L134.71 147.91L135.851 148.072V146.92H134.851ZM123.531 149.48C121.423 149.48 119.502 149.15 117.759 148.503L117.062 150.377C119.052 151.117 121.212 151.48 123.531 151.48V149.48ZM117.775 148.509C116.05 147.834 114.547 146.888 113.256 145.672L111.885 147.128C113.368 148.525 115.092 149.606 117.046 150.371L117.775 148.509ZM113.263 145.679C112 144.465 111.008 143.04 110.286 141.398L108.455 142.202C109.28 144.08 110.422 145.722 111.878 147.121L113.263 145.679ZM110.291 141.409C109.602 139.785 109.251 137.986 109.251 136H107.251C107.251 138.227 107.646 140.295 108.45 142.191L110.291 141.409ZM109.251 136C109.251 134.014 109.602 132.215 110.291 130.591L108.45 129.809C107.646 131.705 107.251 133.773 107.251 136H109.251ZM110.286 130.602C111.006 128.964 112.008 127.542 113.296 126.328L111.925 124.872C110.44 126.272 109.282 127.916 108.455 129.798L110.286 130.602ZM113.296 126.328C114.581 125.117 116.092 124.186 117.839 123.537L117.142 121.663C115.156 122.4 113.413 123.47 111.925 124.872L113.296 126.328ZM117.851 123.533C119.589 122.862 121.519 122.52 123.651 122.52V120.52C121.302 120.52 119.125 120.898 117.131 121.667L117.851 123.533ZM123.651 122.52C126.019 122.52 128.111 122.914 129.944 123.682L130.717 121.838C128.603 120.952 126.242 120.52 123.651 120.52V122.52ZM129.949 123.684C131.81 124.454 133.36 125.564 134.614 127.014L136.127 125.706C134.661 124.01 132.851 122.72 130.713 121.836L129.949 123.684ZM134.692 125.625L130.532 129.465L131.889 130.935L136.049 127.095L134.692 125.625ZM131.936 129.511C130.84 128.358 129.622 127.485 128.28 126.919L127.502 128.761C128.559 129.208 129.555 129.909 130.486 130.889L131.936 129.511ZM128.297 126.926C126.959 126.332 125.513 126.04 123.971 126.04V128.04C125.255 128.04 126.422 128.282 127.484 128.754L128.297 126.926ZM123.971 126.04C122.505 126.04 121.143 126.27 119.895 126.746L120.607 128.614C121.599 128.237 122.716 128.04 123.971 128.04V126.04ZM119.895 126.746C118.653 127.218 117.563 127.903 116.635 128.801L118.026 130.239C118.751 129.537 119.608 128.995 120.607 128.614L119.895 126.746ZM116.624 128.813C115.726 129.71 115.028 130.768 114.527 131.977L116.374 132.743C116.78 131.765 117.335 130.93 118.038 130.227L116.624 128.813ZM114.519 131.996C114.041 133.22 113.811 134.559 113.811 136H115.811C115.811 134.774 116.006 133.686 116.382 132.724L114.519 131.996ZM113.811 136C113.811 137.417 114.042 138.742 114.519 139.964L116.382 139.236C116.006 138.271 115.811 137.196 115.811 136H113.811ZM114.527 139.983C115.027 141.189 115.722 142.256 116.612 143.175L118.049 141.785C117.339 141.051 116.781 140.198 116.374 139.217L114.527 139.983ZM116.635 143.199C117.559 144.093 118.633 144.778 119.847 145.252L120.574 143.388C119.602 143.009 118.755 142.467 118.026 141.761L116.635 143.199ZM119.855 145.254C121.1 145.729 122.449 145.96 123.891 145.96V143.96C122.665 143.96 121.561 143.764 120.567 143.386L119.855 145.254ZM123.891 145.96C125.277 145.96 126.624 145.743 127.927 145.309L127.294 143.411C126.198 143.777 125.064 143.96 123.891 143.96V145.96ZM127.939 145.304C129.302 144.83 130.596 144.053 131.823 142.998L130.518 141.482C129.451 142.4 128.372 143.036 127.282 143.416L127.939 145.304ZM130.385 142.858L134.065 147.538L135.637 146.302L131.957 141.622L130.385 142.858ZM134.248 146.122C132.832 147.19 131.167 148.02 129.241 148.603L129.82 150.517C131.947 149.873 133.829 148.943 135.453 147.718L134.248 146.122ZM129.237 148.604C127.328 149.189 125.427 149.48 123.531 149.48V151.48C125.634 151.48 127.733 151.157 129.824 150.516L129.237 148.604ZM129.931 146.08V135.56H127.931V146.08H129.931ZM128.931 136.56H134.851V134.56H128.931V136.56ZM133.851 135.56V146.92H135.851V135.56H133.851ZM134.991 145.93L129.071 145.09L128.79 147.07L134.71 147.91L134.991 145.93ZM138.79 150L137.877 149.593L137.249 151H138.79V150ZM151.27 122V121H150.621L150.357 121.593L151.27 122ZM157.67 122L158.583 121.592L158.318 121H157.67V122ZM170.19 150V151H171.733L171.103 149.592L170.19 150ZM163.39 150L162.466 150.383L162.722 151H163.39V150ZM153.15 125.28V124.28H151.653L152.226 125.663L153.15 125.28ZM155.71 125.28L156.633 125.664L157.209 124.28H155.71V125.28ZM145.43 150V151H146.097L146.353 150.384L145.43 150ZM145.03 144L144.086 143.67L143.621 145H145.03V144ZM146.75 139.08V138.08H146.04L145.806 138.75L146.75 139.08ZM161.15 139.08L162.092 138.743L161.854 138.08H161.15V139.08ZM162.91 144V145H164.33L163.852 143.663L162.91 144ZM139.703 150.407L152.183 122.407L150.357 121.593L137.877 149.593L139.703 150.407ZM151.27 123H157.67V121H151.27V123ZM156.757 122.408L169.277 150.408L171.103 149.592L158.583 121.592L156.757 122.408ZM170.19 149H163.39V151H170.19V149ZM164.314 149.617L154.074 124.897L152.226 125.663L162.466 150.383L164.314 149.617ZM153.15 126.28H155.71V124.28H153.15V126.28ZM154.787 124.896L144.507 149.616L146.353 150.384L156.633 125.664L154.787 124.896ZM145.43 149H138.79V151H145.43V149ZM145.974 144.33L147.694 139.41L145.806 138.75L144.086 143.67L145.974 144.33ZM146.75 140.08H161.15V138.08H146.75V140.08ZM160.208 139.417L161.968 144.337L163.852 143.663L162.092 138.743L160.208 139.417ZM162.91 143H145.03V145H162.91V143Z" fill="white"/>
<path d="M190.099 150V127.28H181.139V122H205.539V127.28H196.579V150H190.099ZM205.539 150L218.019 122H224.419L236.939 150H230.139L219.899 125.28H222.459L212.179 150H205.539ZM211.779 144L213.499 139.08H227.899L229.659 144H211.779ZM236.76 150L248.8 133.4V138.12L237.28 122H244.64L252.6 133.24L249.52 133.28L257.36 122H264.4L252.96 137.84V133.2L265.08 150H257.6L249.36 138.12H252.32L244.2 150H236.76ZM269.216 150V122H275.696V150H269.216Z" fill="white"/>
<path d="M190.099 150H189.099V151H190.099V150ZM190.099 127.28H191.099V126.28H190.099V127.28ZM181.139 127.28H180.139V128.28H181.139V127.28ZM181.139 122V121H180.139V122H181.139ZM205.539 122H206.539V121H205.539V122ZM205.539 127.28V128.28H206.539V127.28H205.539ZM196.579 127.28V126.28H195.579V127.28H196.579ZM196.579 150V151H197.579V150H196.579ZM191.099 150V127.28H189.099V150H191.099ZM190.099 126.28H181.139V128.28H190.099V126.28ZM182.139 127.28V122H180.139V127.28H182.139ZM181.139 123H205.539V121H181.139V123ZM204.539 122V127.28H206.539V122H204.539ZM205.539 126.28H196.579V128.28H205.539V126.28ZM195.579 127.28V150H197.579V127.28H195.579ZM196.579 149H190.099V151H196.579V149ZM205.539 150L204.626 149.593L203.999 151H205.539V150ZM218.019 122V121H217.37L217.106 121.593L218.019 122ZM224.419 122L225.332 121.592L225.067 121H224.419V122ZM236.939 150V151H238.482L237.852 149.592L236.939 150ZM230.139 150L229.215 150.383L229.471 151H230.139V150ZM219.899 125.28V124.28H218.403L218.975 125.663L219.899 125.28ZM222.459 125.28L223.383 125.664L223.958 124.28H222.459V125.28ZM212.179 150V151H212.846L213.103 150.384L212.179 150ZM211.779 144L210.835 143.67L210.37 145H211.779V144ZM213.499 139.08V138.08H212.789L212.555 138.75L213.499 139.08ZM227.899 139.08L228.841 138.743L228.604 138.08H227.899V139.08ZM229.659 144V145H231.079L230.601 143.663L229.659 144ZM206.453 150.407L218.933 122.407L217.106 121.593L204.626 149.593L206.453 150.407ZM218.019 123H224.419V121H218.019V123ZM223.506 122.408L236.026 150.408L237.852 149.592L225.332 121.592L223.506 122.408ZM236.939 149H230.139V151H236.939V149ZM231.063 149.617L220.823 124.897L218.975 125.663L229.215 150.383L231.063 149.617ZM219.899 126.28H222.459V124.28H219.899V126.28ZM221.536 124.896L211.256 149.616L213.103 150.384L223.383 125.664L221.536 124.896ZM212.179 149H205.539V151H212.179V149ZM212.723 144.33L214.443 139.41L212.555 138.75L210.835 143.67L212.723 144.33ZM213.499 140.08H227.899V138.08H213.499V140.08ZM226.958 139.417L228.718 144.337L230.601 143.663L228.841 138.743L226.958 139.417ZM229.659 143H211.779V145H229.659V143ZM236.76 150L235.95 149.413L234.799 151H236.76V150ZM248.8 133.4H249.8V130.318L247.99 132.813L248.8 133.4ZM248.8 138.12L247.986 138.701L249.8 141.239V138.12H248.8ZM237.28 122V121H235.336L236.466 122.581L237.28 122ZM244.64 122L245.456 121.422L245.157 121H244.64V122ZM252.6 133.24L252.613 134.24L254.516 134.215L253.416 132.662L252.6 133.24ZM249.52 133.28L248.699 132.709L247.59 134.305L249.533 134.28L249.52 133.28ZM257.36 122V121H256.837L256.539 121.429L257.36 122ZM264.4 122L265.211 122.585L266.356 121H264.4V122ZM252.96 137.84H251.96V140.933L253.771 138.425L252.96 137.84ZM252.96 133.2L253.771 132.615L251.96 130.105V133.2H252.96ZM265.08 150V151H267.034L265.891 149.415L265.08 150ZM257.6 150L256.778 150.57L257.076 151H257.6V150ZM249.36 138.12V137.12H247.449L248.538 138.69L249.36 138.12ZM252.32 138.12L253.145 138.684L254.215 137.12H252.32V138.12ZM244.2 150V151H244.728L245.025 150.564L244.2 150ZM237.569 150.587L249.609 133.987L247.99 132.813L235.95 149.413L237.569 150.587ZM247.8 133.4V138.12H249.8V133.4H247.8ZM249.613 137.539L238.093 121.419L236.466 122.581L247.986 138.701L249.613 137.539ZM237.28 123H244.64V121H237.28V123ZM243.824 122.578L251.784 133.818L253.416 132.662L245.456 121.422L243.824 122.578ZM252.587 132.24L249.507 132.28L249.533 134.28L252.613 134.24L252.587 132.24ZM250.341 133.851L258.181 122.571L256.539 121.429L248.699 132.709L250.341 133.851ZM257.36 123H264.4V121H257.36V123ZM263.589 121.415L252.149 137.255L253.771 138.425L265.211 122.585L263.589 121.415ZM253.96 137.84V133.2H251.96V137.84H253.96ZM252.149 133.785L264.269 150.585L265.891 149.415L253.771 132.615L252.149 133.785ZM265.08 149H257.6V151H265.08V149ZM258.422 149.43L250.182 137.55L248.538 138.69L256.778 150.57L258.422 149.43ZM249.36 139.12H252.32V137.12H249.36V139.12ZM251.494 137.556L243.374 149.436L245.025 150.564L253.145 138.684L251.494 137.556ZM244.2 149H236.76V151H244.2V149ZM269.216 150H268.216V151H269.216V150ZM269.216 122V121H268.216V122H269.216ZM275.696 122H276.696V121H275.696V122ZM275.696 150V151H276.696V150H275.696ZM270.216 150V122H268.216V150H270.216ZM269.216 123H275.696V121H269.216V123ZM274.696 122V150H276.696V122H274.696ZM275.696 149H269.216V151H275.696V149Z" fill="white"/>
<path d="M92 25C92 11.1929 103.193 0 117 0H172C185.807 0 197 11.1929 197 25V80C197 93.8071 185.807 105 172 105H117C103.193 105 92 93.8071 92 80V25Z" fill="white" fill-opacity="0.9"/>
<path d="M109.976 94V87.752H107.512V86.3H114.222V87.752H111.758V94H109.976ZM120.901 86.3H122.683V94H120.901V86.3ZM117.403 94H115.621V86.3H117.403V94ZM121.033 90.843H117.271V89.336H121.033V90.843ZM123.933 94L127.365 86.3H129.125L132.568 94H130.698L127.882 87.202H128.586L125.759 94H123.933ZM125.649 92.35L126.122 90.997H130.082L130.566 92.35H125.649ZM137.418 94.132C136.809 94.132 136.248 94.0367 135.735 93.846C135.229 93.648 134.785 93.3693 134.404 93.01C134.03 92.6507 133.736 92.229 133.524 91.745C133.318 91.261 133.216 90.7293 133.216 90.15C133.216 89.5707 133.318 89.039 133.524 88.555C133.736 88.071 134.033 87.6493 134.415 87.29C134.796 86.9307 135.243 86.6557 135.757 86.465C136.27 86.267 136.835 86.168 137.451 86.168C138.133 86.168 138.745 86.2817 139.288 86.509C139.838 86.7363 140.3 87.0663 140.674 87.499L139.53 88.555C139.251 88.2617 138.947 88.0453 138.617 87.906C138.287 87.7593 137.927 87.686 137.539 87.686C137.165 87.686 136.824 87.7447 136.516 87.862C136.208 87.9793 135.94 88.148 135.713 88.368C135.493 88.588 135.32 88.8483 135.196 89.149C135.078 89.4497 135.02 89.7833 135.02 90.15C135.02 90.5093 135.078 90.8393 135.196 91.14C135.32 91.4407 135.493 91.7047 135.713 91.932C135.94 92.152 136.204 92.3207 136.505 92.438C136.813 92.5553 137.15 92.614 137.517 92.614C137.869 92.614 138.21 92.559 138.54 92.449C138.877 92.3317 139.203 92.1373 139.519 91.866L140.531 93.153C140.113 93.4683 139.625 93.7103 139.068 93.879C138.518 94.0477 137.968 94.132 137.418 94.132ZM138.903 92.922V90.029H140.531V93.153L138.903 92.922ZM141.614 94L145.046 86.3H146.806L150.249 94H148.379L145.563 87.202H146.267L143.44 94H141.614ZM143.33 92.35L143.803 90.997H147.763L148.247 92.35H143.33ZM156.638 94V87.752H154.174V86.3H160.884V87.752H158.42V94H156.638ZM160.884 94L164.316 86.3H166.076L169.519 94H167.649L164.833 87.202H165.537L162.71 94H160.884ZM162.6 92.35L163.073 90.997H167.033L167.517 92.35H162.6ZM169.47 94L172.781 89.435V90.733L169.613 86.3H171.637L173.826 89.391L172.979 89.402L175.135 86.3H177.071L173.925 90.656V89.38L177.258 94H175.201L172.935 90.733H173.749L171.516 94H169.47ZM178.395 94V86.3H180.177V94H178.395Z" fill="#2C85D4"/>
<path d="M109.976 94H109.726V94.25H109.976V94ZM109.976 87.752H110.226V87.502H109.976V87.752ZM107.512 87.752H107.262V88.002H107.512V87.752ZM107.512 86.3V86.05H107.262V86.3H107.512ZM114.222 86.3H114.472V86.05H114.222V86.3ZM114.222 87.752V88.002H114.472V87.752H114.222ZM111.758 87.752V87.502H111.508V87.752H111.758ZM111.758 94V94.25H112.008V94H111.758ZM110.226 94V87.752H109.726V94H110.226ZM109.976 87.502H107.512V88.002H109.976V87.502ZM107.762 87.752V86.3H107.262V87.752H107.762ZM107.512 86.55H114.222V86.05H107.512V86.55ZM113.972 86.3V87.752H114.472V86.3H113.972ZM114.222 87.502H111.758V88.002H114.222V87.502ZM111.508 87.752V94H112.008V87.752H111.508ZM111.758 93.75H109.976V94.25H111.758V93.75ZM120.901 86.3V86.05H120.651V86.3H120.901ZM122.683 86.3H122.933V86.05H122.683V86.3ZM122.683 94V94.25H122.933V94H122.683ZM120.901 94H120.651V94.25H120.901V94ZM117.403 94V94.25H117.653V94H117.403ZM115.621 94H115.371V94.25H115.621V94ZM115.621 86.3V86.05H115.371V86.3H115.621ZM117.403 86.3H117.653V86.05H117.403V86.3ZM121.033 90.843V91.093H121.283V90.843H121.033ZM117.271 90.843H117.021V91.093H117.271V90.843ZM117.271 89.336V89.086H117.021V89.336H117.271ZM121.033 89.336H121.283V89.086H121.033V89.336ZM120.901 86.55H122.683V86.05H120.901V86.55ZM122.433 86.3V94H122.933V86.3H122.433ZM122.683 93.75H120.901V94.25H122.683V93.75ZM121.151 94V86.3H120.651V94H121.151ZM117.403 93.75H115.621V94.25H117.403V93.75ZM115.871 94V86.3H115.371V94H115.871ZM115.621 86.55H117.403V86.05H115.621V86.55ZM117.153 86.3V94H117.653V86.3H117.153ZM121.033 90.593H117.271V91.093H121.033V90.593ZM117.521 90.843V89.336H117.021V90.843H117.521ZM117.271 89.586H121.033V89.086H117.271V89.586ZM120.783 89.336V90.843H121.283V89.336H120.783ZM123.933 94L123.705 93.8982L123.548 94.25H123.933V94ZM127.365 86.3V86.05H127.203L127.137 86.1982L127.365 86.3ZM129.125 86.3L129.353 86.198L129.287 86.05H129.125V86.3ZM132.568 94V94.25H132.954L132.796 93.898L132.568 94ZM130.698 94L130.467 94.0957L130.531 94.25H130.698V94ZM127.882 87.202V86.952H127.508L127.651 87.2977L127.882 87.202ZM128.586 87.202L128.817 87.298L128.961 86.952H128.586V87.202ZM125.759 94V94.25H125.926L125.99 94.096L125.759 94ZM125.649 92.35L125.413 92.2675L125.297 92.6H125.649V92.35ZM126.122 90.997V90.747H125.945L125.886 90.9145L126.122 90.997ZM130.082 90.997L130.317 90.9128L130.258 90.747H130.082V90.997ZM130.566 92.35V92.6H130.921L130.801 92.2658L130.566 92.35ZM124.161 94.1018L127.593 86.4018L127.137 86.1982L123.705 93.8982L124.161 94.1018ZM127.365 86.55H129.125V86.05H127.365V86.55ZM128.897 86.402L132.34 94.102L132.796 93.898L129.353 86.198L128.897 86.402ZM132.568 93.75H130.698V94.25H132.568V93.75ZM130.929 93.9043L128.113 87.1063L127.651 87.2977L130.467 94.0957L130.929 93.9043ZM127.882 87.452H128.586V86.952H127.882V87.452ZM128.355 87.106L125.528 93.904L125.99 94.096L128.817 87.298L128.355 87.106ZM125.759 93.75H123.933V94.25H125.759V93.75ZM125.885 92.4325L126.358 91.0795L125.886 90.9145L125.413 92.2675L125.885 92.4325ZM126.122 91.247H130.082V90.747H126.122V91.247ZM129.847 91.0812L130.331 92.4342L130.801 92.2658L130.317 90.9128L129.847 91.0812ZM130.566 92.1H125.649V92.6H130.566V92.1ZM135.735 93.846L135.643 94.0788L135.647 94.0804L135.735 93.846ZM134.404 93.01L134.23 93.1903L134.232 93.1919L134.404 93.01ZM133.524 91.745L133.293 91.8426L133.295 91.8456L133.524 91.745ZM133.524 88.555L133.295 88.4544L133.293 88.4574L133.524 88.555ZM134.415 87.29L134.586 87.4719V87.4719L134.415 87.29ZM135.757 86.465L135.844 86.6994L135.846 86.6982L135.757 86.465ZM139.288 86.509L139.191 86.7396L139.192 86.74L139.288 86.509ZM140.674 87.499L140.843 87.6827L141.021 87.5186L140.863 87.3355L140.674 87.499ZM139.53 88.555L139.348 88.7272L139.518 88.9059L139.699 88.7387L139.53 88.555ZM138.617 87.906L138.515 88.1345L138.519 88.1363L138.617 87.906ZM135.713 88.368L135.539 88.1883L135.536 88.1912L135.713 88.368ZM135.196 89.149L134.965 89.0532L134.963 89.0581L135.196 89.149ZM135.196 91.14L134.963 91.2309L134.965 91.2358L135.196 91.14ZM135.713 91.932L135.533 92.1059L135.539 92.1117L135.713 91.932ZM136.505 92.438L136.414 92.6709L136.416 92.6716L136.505 92.438ZM138.54 92.449L138.619 92.6862L138.622 92.6851L138.54 92.449ZM139.519 91.866L139.715 91.7115L139.554 91.5061L139.355 91.6765L139.519 91.866ZM140.531 93.153L140.681 93.3526L140.885 93.199L140.727 92.9985L140.531 93.153ZM139.068 93.879L138.995 93.6397L138.994 93.64L139.068 93.879ZM138.903 92.922H138.653V93.139L138.867 93.1695L138.903 92.922ZM138.903 90.029V89.779H138.653V90.029H138.903ZM140.531 90.029H140.781V89.779H140.531V90.029ZM140.531 93.153L140.495 93.4005L140.781 93.441V93.153H140.531ZM137.418 93.882C136.835 93.882 136.304 93.7909 135.822 93.6116L135.647 94.0804C136.192 94.2825 136.782 94.382 137.418 94.382V93.882ZM135.826 93.6132C135.348 93.4264 134.932 93.1646 134.575 92.8281L134.232 93.1919C134.638 93.574 135.109 93.8696 135.643 94.0788L135.826 93.6132ZM134.577 92.8297C134.227 92.4935 133.952 92.0991 133.752 91.6444L133.295 91.8456C133.52 92.3589 133.832 92.8078 134.23 93.1903L134.577 92.8297ZM133.754 91.6474C133.563 91.1973 133.466 90.6992 133.466 90.15H132.966C132.966 90.7594 133.074 91.3247 133.293 91.8426L133.754 91.6474ZM133.466 90.15C133.466 89.6008 133.563 89.1027 133.754 88.6526L133.293 88.4574C133.074 88.9753 132.966 89.5406 132.966 90.15H133.466ZM133.752 88.6556C133.952 88.202 134.229 87.8081 134.586 87.4719L134.243 87.1081C133.837 87.4906 133.521 87.94 133.295 88.4544L133.752 88.6556ZM134.586 87.4719C134.942 87.1366 135.36 86.8789 135.844 86.6994L135.669 86.2306C135.126 86.4324 134.65 86.7247 134.243 87.1081L134.586 87.4719ZM135.846 86.6982C136.328 86.5126 136.862 86.418 137.451 86.418V85.918C136.807 85.918 136.212 86.0214 135.667 86.2317L135.846 86.6982ZM137.451 86.418C138.105 86.418 138.683 86.5269 139.191 86.7396L139.384 86.2784C138.806 86.0364 138.16 85.918 137.451 85.918V86.418ZM139.192 86.74C139.707 86.9531 140.137 87.2605 140.484 87.6625L140.863 87.3355C140.462 86.8721 139.968 86.5196 139.383 86.278L139.192 86.74ZM140.504 87.3153L139.36 88.3713L139.699 88.7387L140.843 87.6827L140.504 87.3153ZM139.711 88.3828C139.411 88.0678 139.079 87.83 138.714 87.6757L138.519 88.1363C138.814 88.2606 139.09 88.4556 139.348 88.7272L139.711 88.3828ZM138.718 87.6775C138.354 87.5156 137.959 87.436 137.539 87.436V87.936C137.895 87.936 138.219 88.0031 138.515 88.1345L138.718 87.6775ZM137.539 87.436C137.138 87.436 136.766 87.4989 136.427 87.6284L136.605 88.0956C136.881 87.9905 137.191 87.936 137.539 87.936V87.436ZM136.427 87.6284C136.088 87.7573 135.791 87.9438 135.539 88.1883L135.886 88.5477C136.088 88.3522 136.327 88.2014 136.605 88.0956L136.427 87.6284ZM135.536 88.1912C135.291 88.4355 135.101 88.7237 134.965 89.0532L135.426 89.2448C135.539 88.973 135.694 88.7405 135.889 88.5448L135.536 88.1912ZM134.963 89.0581C134.833 89.3914 134.77 89.7564 134.77 90.15H135.27C135.27 89.8102 135.324 89.5079 135.428 89.2399L134.963 89.0581ZM134.77 90.15C134.77 90.5369 134.833 90.8981 134.963 91.2309L135.428 91.0491C135.324 90.7805 135.27 90.4818 135.27 90.15H134.77ZM134.965 91.2358C135.101 91.5646 135.29 91.8553 135.533 92.1059L135.892 91.7581C135.695 91.554 135.539 91.3167 135.426 91.0442L134.965 91.2358ZM135.539 92.1117C135.79 92.3552 136.083 92.5417 136.414 92.6709L136.595 92.2051C136.325 92.0996 136.089 91.9488 135.886 91.7523L135.539 92.1117ZM136.416 92.6716C136.755 92.8009 137.123 92.864 137.517 92.864V92.364C137.177 92.364 136.87 92.3097 136.594 92.2044L136.416 92.6716ZM137.517 92.864C137.895 92.864 138.263 92.8048 138.619 92.6862L138.46 92.2118C138.156 92.3132 137.842 92.364 137.517 92.364V92.864ZM138.622 92.6851C138.993 92.5559 139.346 92.344 139.682 92.0555L139.355 91.6765C139.06 91.9307 138.761 92.1074 138.457 92.2129L138.622 92.6851ZM139.322 92.0205L140.334 93.3075L140.727 92.9985L139.715 91.7115L139.322 92.0205ZM140.38 92.9534C139.988 93.2491 139.527 93.4786 138.995 93.6397L139.14 94.1183C139.722 93.942 140.237 93.6875 140.681 93.3526L140.38 92.9534ZM138.994 93.64C138.467 93.8017 137.942 93.882 137.418 93.882V94.382C137.993 94.382 138.568 94.2936 139.141 94.118L138.994 93.64ZM139.153 92.922V90.029H138.653V92.922H139.153ZM138.903 90.279H140.531V89.779H138.903V90.279ZM140.281 90.029V93.153H140.781V90.029H140.281ZM140.566 92.9055L138.938 92.6745L138.867 93.1695L140.495 93.4005L140.566 92.9055ZM141.614 94L141.385 93.8982L141.229 94.25H141.614V94ZM145.046 86.3V86.05H144.884L144.817 86.1982L145.046 86.3ZM146.806 86.3L147.034 86.198L146.968 86.05H146.806V86.3ZM150.249 94V94.25H150.634L150.477 93.898L150.249 94ZM148.379 94L148.148 94.0957L148.212 94.25H148.379V94ZM145.563 87.202V86.952H145.189L145.332 87.2977L145.563 87.202ZM146.267 87.202L146.498 87.298L146.642 86.952H146.267V87.202ZM143.44 94V94.25H143.607L143.671 94.096L143.44 94ZM143.33 92.35L143.094 92.2675L142.978 92.6H143.33V92.35ZM143.803 90.997V90.747H143.625L143.567 90.9145L143.803 90.997ZM147.763 90.997L147.998 90.9128L147.939 90.747H147.763V90.997ZM148.247 92.35V92.6H148.602L148.482 92.2658L148.247 92.35ZM141.842 94.1018L145.274 86.4018L144.817 86.1982L141.385 93.8982L141.842 94.1018ZM145.046 86.55H146.806V86.05H145.046V86.55ZM146.578 86.402L150.021 94.102L150.477 93.898L147.034 86.198L146.578 86.402ZM150.249 93.75H148.379V94.25H150.249V93.75ZM148.61 93.9043L145.794 87.1063L145.332 87.2977L148.148 94.0957L148.61 93.9043ZM145.563 87.452H146.267V86.952H145.563V87.452ZM146.036 87.106L143.209 93.904L143.671 94.096L146.498 87.298L146.036 87.106ZM143.44 93.75H141.614V94.25H143.44V93.75ZM143.566 92.4325L144.039 91.0795L143.567 90.9145L143.094 92.2675L143.566 92.4325ZM143.803 91.247H147.763V90.747H143.803V91.247ZM147.527 91.0812L148.011 92.4342L148.482 92.2658L147.998 90.9128L147.527 91.0812ZM148.247 92.1H143.33V92.6H148.247V92.1ZM156.638 94H156.388V94.25H156.638V94ZM156.638 87.752H156.888V87.502H156.638V87.752ZM154.174 87.752H153.924V88.002H154.174V87.752ZM154.174 86.3V86.05H153.924V86.3H154.174ZM160.884 86.3H161.134V86.05H160.884V86.3ZM160.884 87.752V88.002H161.134V87.752H160.884ZM158.42 87.752V87.502H158.17V87.752H158.42ZM158.42 94V94.25H158.67V94H158.42ZM156.888 94V87.752H156.388V94H156.888ZM156.638 87.502H154.174V88.002H156.638V87.502ZM154.424 87.752V86.3H153.924V87.752H154.424ZM154.174 86.55H160.884V86.05H154.174V86.55ZM160.634 86.3V87.752H161.134V86.3H160.634ZM160.884 87.502H158.42V88.002H160.884V87.502ZM158.17 87.752V94H158.67V87.752H158.17ZM158.42 93.75H156.638V94.25H158.42V93.75ZM160.884 94L160.656 93.8982L160.499 94.25H160.884V94ZM164.316 86.3V86.05H164.154L164.088 86.1982L164.316 86.3ZM166.076 86.3L166.304 86.198L166.238 86.05H166.076V86.3ZM169.519 94V94.25H169.905L169.747 93.898L169.519 94ZM167.649 94L167.418 94.0957L167.482 94.25H167.649V94ZM164.833 87.202V86.952H164.459L164.602 87.2977L164.833 87.202ZM165.537 87.202L165.768 87.298L165.912 86.952H165.537V87.202ZM162.71 94V94.25H162.877L162.941 94.096L162.71 94ZM162.6 92.35L162.364 92.2675L162.248 92.6H162.6V92.35ZM163.073 90.997V90.747H162.896L162.837 90.9145L163.073 90.997ZM167.033 90.997L167.268 90.9128L167.209 90.747H167.033V90.997ZM167.517 92.35V92.6H167.872L167.752 92.2658L167.517 92.35ZM161.112 94.1018L164.544 86.4018L164.088 86.1982L160.656 93.8982L161.112 94.1018ZM164.316 86.55H166.076V86.05H164.316V86.55ZM165.848 86.402L169.291 94.102L169.747 93.898L166.304 86.198L165.848 86.402ZM169.519 93.75H167.649V94.25H169.519V93.75ZM167.88 93.9043L165.064 87.1063L164.602 87.2977L167.418 94.0957L167.88 93.9043ZM164.833 87.452H165.537V86.952H164.833V87.452ZM165.306 87.106L162.479 93.904L162.941 94.096L165.768 87.298L165.306 87.106ZM162.71 93.75H160.884V94.25H162.71V93.75ZM162.836 92.4325L163.309 91.0795L162.837 90.9145L162.364 92.2675L162.836 92.4325ZM163.073 91.247H167.033V90.747H163.073V91.247ZM166.798 91.0812L167.282 92.4342L167.752 92.2658L167.268 90.9128L166.798 91.0812ZM167.517 92.1H162.6V92.6H167.517V92.1ZM169.47 94L169.267 93.8532L168.98 94.25H169.47V94ZM172.781 89.435H173.031V88.6645L172.578 89.2882L172.781 89.435ZM172.781 90.733L172.577 90.8784L173.031 91.5128V90.733H172.781ZM169.613 86.3V86.05H169.127L169.409 86.4454L169.613 86.3ZM171.637 86.3L171.841 86.1555L171.766 86.05H171.637V86.3ZM173.826 89.391L173.829 89.641L174.305 89.6348L174.03 89.2465L173.826 89.391ZM172.979 89.402L172.773 89.2593L172.496 89.6583L172.982 89.652L172.979 89.402ZM175.135 86.3V86.05H175.004L174.929 86.1573L175.135 86.3ZM177.071 86.3L177.273 86.4464L177.56 86.05H177.071V86.3ZM173.925 90.656H173.675V91.4291L174.127 90.8024L173.925 90.656ZM173.925 89.38L174.127 89.2337L173.675 88.6062V89.38H173.925ZM177.258 94V94.25H177.746L177.46 93.8537L177.258 94ZM175.201 94L174.995 94.1425L175.07 94.25H175.201V94ZM172.935 90.733V90.483H172.457L172.729 90.8755L172.935 90.733ZM173.749 90.733L173.955 90.8741L174.222 90.483H173.749V90.733ZM171.516 94V94.25H171.648L171.722 94.1411L171.516 94ZM169.672 94.1468L172.983 89.5818L172.578 89.2882L169.267 93.8532L169.672 94.1468ZM172.531 89.435V90.733H173.031V89.435H172.531ZM172.984 90.5876L169.816 86.1546L169.409 86.4454L172.577 90.8784L172.984 90.5876ZM169.613 86.55H171.637V86.05H169.613V86.55ZM171.433 86.4445L173.622 89.5355L174.03 89.2465L171.841 86.1555L171.433 86.4445ZM173.822 89.141L172.975 89.152L172.982 89.652L173.829 89.641L173.822 89.141ZM173.184 89.5447L175.34 86.4427L174.929 86.1573L172.773 89.2593L173.184 89.5447ZM175.135 86.55H177.071V86.05H175.135V86.55ZM176.868 86.1536L173.722 90.5096L174.127 90.8024L177.273 86.4464L176.868 86.1536ZM174.175 90.656V89.38H173.675V90.656H174.175ZM173.722 89.5263L177.055 94.1463L177.46 93.8537L174.127 89.2337L173.722 89.5263ZM177.258 93.75H175.201V94.25H177.258V93.75ZM175.406 93.8575L173.14 90.5905L172.729 90.8755L174.995 94.1425L175.406 93.8575ZM172.935 90.983H173.749V90.483H172.935V90.983ZM173.542 90.5919L171.309 93.8589L171.722 94.1411L173.955 90.8741L173.542 90.5919ZM171.516 93.75H169.47V94.25H171.516V93.75ZM178.395 94H178.145V94.25H178.395V94ZM178.395 86.3V86.05H178.145V86.3H178.395ZM180.177 86.3H180.427V86.05H180.177V86.3ZM180.177 94V94.25H180.427V94H180.177ZM178.645 94V86.3H178.145V94H178.645ZM178.395 86.55H180.177V86.05H178.395V86.55ZM179.927 86.3V94H180.427V86.3H179.927ZM180.177 93.75H178.395V94.25H180.177V93.75Z" fill="#2C85D4"/>
<path d="M138.846 11.4558C138.979 11.4545 139.112 11.4532 139.25 11.4519C139.692 11.4479 140.133 11.4453 140.575 11.443C140.726 11.4422 140.878 11.4414 141.033 11.4405C141.834 11.4363 142.635 11.4332 143.436 11.4309C144.097 11.4288 144.758 11.4244 145.42 11.4179C146.219 11.4101 147.019 11.4062 147.819 11.4051C148.122 11.404 148.426 11.4016 148.73 11.3978C150.601 11.3758 151.985 11.4075 153.488 12.6432C154.2 13.5178 154.806 14.353 154.799 15.5125C154.798 15.6465 154.798 15.7806 154.797 15.9188C154.796 16.0582 154.794 16.1976 154.793 16.3412C154.792 16.4824 154.792 16.6236 154.791 16.7691C154.789 17.1176 154.786 17.466 154.783 17.8144C154.928 17.813 155.073 17.8116 155.222 17.8102C156.593 17.7974 157.963 17.7878 159.334 17.7816C160.039 17.7784 160.743 17.7739 161.448 17.7667C162.129 17.7598 162.81 17.756 163.491 17.7544C163.75 17.7532 164.008 17.751 164.267 17.7475C166.447 17.7197 168.178 17.9966 169.813 19.5547C171.307 21.1308 171.791 23.4123 172.386 25.4428C172.462 25.7011 172.539 25.9593 172.615 26.2175C172.815 26.8911 173.013 27.5651 173.211 28.2391C173.374 28.7906 173.537 29.3418 173.7 29.8929C174.037 31.0315 174.373 32.1702 174.708 33.3094C174.739 33.4136 174.77 33.5178 174.801 33.6252C174.941 34.1009 175.076 34.5763 175.191 35.0586C175.368 35.0584 175.545 35.0582 175.728 35.058C176.393 35.0586 177.058 35.0654 177.723 35.074C178.009 35.0769 178.296 35.0781 178.582 35.0776C180.48 35.0755 182.074 35.1224 183.573 36.4413C183.826 36.703 184.016 36.965 184.209 37.2734C184.274 37.3717 184.339 37.47 184.406 37.5713C185.014 38.6755 185.04 40.0041 184.842 41.2285C184.475 42.3875 183.867 43.4596 182.785 44.0762C182.471 44.1882 182.155 44.2949 181.836 44.3926C181.928 44.519 182.02 44.6454 182.114 44.7757C184.248 47.7567 184.943 50.4233 184.926 54.0405C184.926 54.3557 184.927 54.6709 184.928 54.9861C184.929 55.6424 184.927 56.2987 184.924 56.955C184.921 57.792 184.923 58.6289 184.927 59.466C184.929 60.1153 184.928 60.7646 184.927 61.4139C184.926 61.7225 184.927 62.031 184.928 62.3395C184.937 64.6634 184.784 66.5191 183.102 68.2812C182.004 69.3294 180.741 70.0418 179.196 70.0277C179.068 70.0268 178.94 70.0259 178.809 70.025C178.711 70.0238 178.614 70.0227 178.514 70.0215C178.515 70.1287 178.517 70.236 178.519 70.3465C178.537 71.4628 178.548 72.5791 178.557 73.6956C178.561 74.1122 178.567 74.5288 178.573 74.9454C178.583 75.5443 178.587 76.1431 178.591 76.742C178.595 76.9283 178.599 77.1145 178.603 77.3064C178.603 77.4805 178.603 77.6547 178.603 77.8341C178.605 77.9869 178.607 78.1397 178.609 78.2972C178.472 78.909 178.218 79.1391 177.723 79.5137C177.212 79.6141 177.212 79.6141 176.629 79.616C176.469 79.6181 176.469 79.6181 176.305 79.6202C175.954 79.6237 175.602 79.6214 175.251 79.6187C175.005 79.6192 174.76 79.62 174.515 79.621C174.002 79.6222 173.488 79.6205 172.975 79.6168C172.318 79.6123 171.661 79.6149 171.004 79.6196C170.498 79.6225 169.992 79.6216 169.485 79.6195C169.243 79.619 169.001 79.6196 168.759 79.6215C168.42 79.6235 168.081 79.6204 167.742 79.616C167.55 79.6154 167.357 79.6148 167.159 79.6141C166.648 79.5137 166.648 79.5137 165.857 78.7226C165.857 75.8513 165.857 72.9799 165.857 70.0215C151.762 70.0215 137.666 70.0215 123.143 70.0215C123.143 72.8929 123.143 75.7642 123.143 78.7226C122.252 79.6128 122.252 79.6128 121.258 79.616C121.097 79.6181 121.097 79.6181 120.934 79.6202C120.582 79.6237 120.231 79.6214 119.88 79.6187C119.634 79.6192 119.389 79.62 119.144 79.621C118.631 79.6222 118.117 79.6205 117.604 79.6168C116.947 79.6123 116.29 79.6149 115.633 79.6196C115.127 79.6225 114.621 79.6216 114.114 79.6195C113.872 79.619 113.63 79.6196 113.388 79.6215C113.049 79.6235 112.71 79.6204 112.371 79.616C112.179 79.6154 111.986 79.6148 111.788 79.6141C111.123 79.4833 110.889 79.2607 110.486 78.7226C110.391 78.2972 110.391 78.2972 110.397 77.8341C110.397 77.66 110.397 77.4858 110.397 77.3064C110.401 77.1201 110.405 76.9339 110.409 76.742C110.41 76.55 110.411 76.358 110.413 76.1602C110.417 75.5475 110.427 74.9352 110.437 74.3226C110.441 73.907 110.444 73.4914 110.448 73.0758C110.456 72.0576 110.47 71.0396 110.486 70.0215C110.389 70.0226 110.292 70.0238 110.191 70.025C110.063 70.0259 109.936 70.0268 109.804 70.0277C109.677 70.0288 109.55 70.03 109.42 70.0312C107.89 69.9896 106.6 69.0164 105.586 67.9543C104.038 66.1164 104.063 64.1648 104.074 61.8814C104.074 61.5668 104.073 61.2522 104.072 60.9376C104.071 60.2802 104.073 59.6228 104.076 58.9654C104.079 58.1291 104.077 57.2929 104.073 56.4566C104.071 55.8073 104.072 55.158 104.074 54.5086C104.074 54.2006 104.073 53.8926 104.072 53.5846C104.058 50.0017 104.915 47.2549 107.164 44.3926C107.019 44.3481 106.874 44.3036 106.724 44.2578C105.684 43.8869 105.11 43.2234 104.564 42.2766C103.949 40.9406 103.887 39.5437 104.334 38.1472C104.989 36.7244 105.834 35.9633 107.25 35.3501C107.876 35.1356 108.471 35.1214 109.127 35.1204C109.262 35.1178 109.397 35.1151 109.536 35.1124C109.962 35.1048 110.387 35.1014 110.813 35.0981C111.103 35.0937 111.394 35.0889 111.685 35.0839C112.393 35.0723 113.101 35.0644 113.809 35.0586C113.842 34.9458 113.875 34.8329 113.909 34.7167C114.228 33.6352 114.546 32.5537 114.865 31.4723C115.029 30.9168 115.193 30.3613 115.356 29.8058C115.7 28.6366 116.046 27.4677 116.393 26.2993C116.587 25.6437 116.779 24.9873 116.969 24.3305C117.064 24.0077 117.159 23.6848 117.254 23.362C117.294 23.2199 117.335 23.0777 117.376 22.9313C117.914 21.1252 118.886 19.3983 120.585 18.4651C122.048 17.7145 123.48 17.7522 125.086 17.7681C125.35 17.769 125.614 17.7696 125.878 17.7701C126.569 17.7719 127.259 17.7766 127.95 17.7818C128.656 17.7867 129.362 17.7889 130.069 17.7913C131.451 17.7963 132.834 17.8044 134.217 17.8144C134.213 17.6082 134.209 17.402 134.205 17.1896C134.201 16.9163 134.198 16.6429 134.195 16.3696C134.192 16.234 134.189 16.0984 134.186 15.9588C134.175 14.6288 134.534 13.803 135.374 12.7816C136.506 11.86 137.376 11.4637 138.846 11.4558Z" fill="#2169AC"/>
<path d="M115.148 44.6075C115.412 44.6064 115.675 44.6051 115.939 44.6034C116.661 44.5998 117.383 44.6011 118.105 44.6032C118.884 44.6047 119.664 44.6016 120.443 44.5991C121.969 44.595 123.496 44.5952 125.022 44.5969C126.262 44.5983 127.503 44.5981 128.743 44.597C128.92 44.5968 129.097 44.5966 129.279 44.5965C129.638 44.5961 129.996 44.5958 130.355 44.5954C133.72 44.5923 137.084 44.5942 140.449 44.5978C143.334 44.6006 146.22 44.5989 149.106 44.5939C152.458 44.5881 155.81 44.5854 159.163 44.5875C159.52 44.5877 159.878 44.5879 160.236 44.5881C160.499 44.5883 160.499 44.5883 160.769 44.5884C162.007 44.5889 163.246 44.5871 164.485 44.5844C165.995 44.5812 167.505 44.5814 169.015 44.5858C169.785 44.588 170.555 44.5886 171.326 44.5852C172.031 44.582 172.737 44.5833 173.442 44.5881C173.697 44.589 173.952 44.5884 174.206 44.5859C176.31 44.5674 177.745 45.1023 179.284 46.5586C181.384 48.8355 181.802 51.2883 181.777 54.2494C181.777 54.537 181.778 54.8245 181.778 55.1121C181.779 55.7102 181.777 56.3082 181.772 56.9062C181.767 57.6695 181.768 58.4327 181.771 59.196C181.772 59.7881 181.771 60.3801 181.769 60.9721C181.768 61.2535 181.768 61.5349 181.769 61.8164C181.776 64.9215 181.776 64.9215 180.827 65.9968C179.982 66.7736 179.054 66.9047 177.949 66.8981C177.831 66.8987 177.713 66.8992 177.591 66.8998C177.195 66.9013 176.8 66.9005 176.404 66.8997C176.118 66.9003 175.831 66.901 175.545 66.9019C174.758 66.9038 173.971 66.9038 173.183 66.9034C172.334 66.9033 171.485 66.9051 170.636 66.9066C168.973 66.9092 167.31 66.9101 165.647 66.9103C164.295 66.9104 162.943 66.9111 161.591 66.9121C157.76 66.9149 153.929 66.9163 150.098 66.9161C149.788 66.9161 149.788 66.9161 149.472 66.916C149.265 66.916 149.058 66.916 148.845 66.916C145.492 66.9159 142.139 66.9189 138.786 66.9234C135.344 66.9279 131.902 66.9301 128.46 66.9298C126.528 66.9297 124.595 66.9306 122.662 66.934C121.017 66.9369 119.371 66.9376 117.726 66.9354C116.886 66.9344 116.047 66.9344 115.207 66.9371C114.439 66.9396 113.67 66.9391 112.902 66.9364C112.623 66.9359 112.345 66.9365 112.067 66.9382C109.224 66.955 109.224 66.955 108.193 66.0068C107.389 65.1326 107.275 64.193 107.274 63.0507C107.272 62.9263 107.271 62.8019 107.27 62.6737C107.266 62.264 107.265 61.8543 107.264 61.4445C107.262 61.1572 107.261 60.8698 107.259 60.5824C107.257 59.9799 107.255 59.3774 107.255 58.7748C107.254 58.0089 107.248 57.2431 107.241 56.4772C107.236 55.8831 107.235 55.289 107.235 54.6949C107.234 54.4129 107.232 54.1309 107.229 53.849C107.198 51.0156 107.758 48.6664 109.757 46.5178C111.423 44.9296 112.897 44.5915 115.148 44.6075Z" fill="#FEFEFE"/>
<path d="M124.735 20.8971C124.997 20.8955 124.997 20.8955 125.265 20.8938C125.85 20.8909 126.435 20.8925 127.021 20.8941C127.441 20.893 127.861 20.8917 128.281 20.89C129.303 20.8866 130.325 20.8866 131.347 20.8879C132.178 20.8889 133.009 20.8887 133.84 20.8877C133.958 20.8875 134.076 20.8874 134.198 20.8873C134.439 20.887 134.679 20.8867 134.92 20.8864C137.175 20.8838 139.429 20.8851 141.684 20.8878C143.745 20.8901 145.805 20.8878 147.866 20.8832C149.984 20.8786 152.102 20.8769 154.219 20.8784C154.459 20.8785 154.699 20.8787 154.939 20.8788C155.116 20.879 155.116 20.879 155.296 20.8791C156.125 20.8794 156.955 20.8779 157.784 20.8756C158.796 20.8728 159.807 20.8728 160.819 20.8764C161.335 20.8782 161.851 20.8782 162.366 20.8757C162.927 20.8732 163.487 20.8756 164.047 20.8791C164.208 20.8773 164.37 20.8754 164.536 20.8735C165.647 20.8878 166.516 21.1363 167.439 21.7695C168.258 22.6669 168.533 23.8609 168.863 25.0028C168.945 25.278 168.945 25.278 169.029 25.5587C169.186 26.0881 169.341 26.6182 169.496 27.1485C169.569 27.3912 169.641 27.6339 169.714 27.8764C169.995 28.8136 170.265 29.7529 170.52 30.6975C171.052 32.659 171.641 34.5945 172.284 36.522C172.321 36.6313 172.357 36.7406 172.395 36.8533C172.823 38.1375 173.276 39.406 173.783 40.6617C173.926 41.0703 173.926 41.0703 173.926 41.5449C172.307 41.5449 170.689 41.5449 169.021 41.5449C168.969 41.1273 168.917 40.7096 168.863 40.2793C168.449 37.564 167.046 35.3644 164.831 33.7293C162.567 32.2891 160.002 31.8255 157.368 32.3197C154.861 33.0375 152.698 34.546 151.376 36.8192C150.576 38.3904 150.293 39.7543 150.037 41.5449C138.499 41.5449 126.962 41.5449 115.074 41.5449C115.252 40.4766 115.252 40.4766 115.439 39.9882C115.499 39.829 115.499 39.829 115.561 39.6666C115.602 39.5588 115.644 39.451 115.687 39.34C115.748 39.1792 115.748 39.1792 115.81 39.0152C116.004 38.5075 116.206 38.009 116.427 37.512C116.679 36.9027 116.855 36.298 117.022 35.6618C117.305 34.616 117.6 33.5748 117.912 32.5372C117.952 32.4047 117.992 32.2721 118.033 32.1356C118.337 31.1297 118.657 30.1291 118.978 29.1285C119.371 27.888 119.715 26.6339 120.052 25.3769C120.888 22.3091 120.888 22.3091 122.348 21.279C123.115 20.8512 123.875 20.8902 124.735 20.8971Z" fill="#88CBFE"/>
<path d="M135.323 50.9552C135.543 50.9543 135.764 50.9532 135.984 50.9518C136.579 50.949 137.175 50.9501 137.77 50.9521C138.395 50.9537 139.02 50.9522 139.646 50.9512C140.696 50.9501 141.746 50.9516 142.795 50.9546C144.006 50.958 145.217 50.9569 146.427 50.9534C147.47 50.9506 148.512 50.9502 149.555 50.9518C150.176 50.9528 150.798 50.9529 151.419 50.9508C152.003 50.949 152.588 50.9503 153.172 50.9539C153.487 50.9552 153.801 50.9533 154.116 50.9513C155.74 50.9665 157.09 51.2879 158.291 52.435C159.253 53.5739 159.68 54.7533 159.6 56.2411C159.406 57.5856 158.831 58.6958 157.789 59.5801C156.832 60.1647 155.957 60.5472 154.829 60.5547C154.641 60.5563 154.453 60.5579 154.259 60.5595C153.948 60.5609 153.948 60.5609 153.632 60.5623C153.412 60.5638 153.192 60.5654 152.972 60.567C152.25 60.572 151.527 60.5752 150.804 60.5781C150.681 60.5786 150.558 60.5791 150.431 60.5797C149.268 60.5846 148.105 60.5888 146.943 60.5915C145.459 60.5949 143.974 60.6015 142.49 60.6126C141.445 60.6201 140.4 60.6239 139.355 60.625C138.732 60.6258 138.109 60.6282 137.485 60.6345C136.898 60.6404 136.31 60.6416 135.723 60.6395C135.407 60.6395 135.091 60.6442 134.776 60.6491C133.264 60.6371 132.016 60.2813 130.857 59.2723C129.883 58.2763 129.446 57.1021 129.372 55.7239C129.422 54.3104 129.994 53.1139 131.023 52.1445C132.317 51.0476 133.684 50.9449 135.323 50.9552Z" fill="#2269AC"/>
<path d="M173.955 50.345C175.434 51.2945 176.428 52.6404 176.813 54.3495C177.116 56.1595 176.854 57.8174 175.864 59.4021C174.848 60.7932 173.498 61.7414 171.796 62.0601C169.817 62.3127 168.292 61.9801 166.668 60.7963C165.22 59.5813 164.409 57.9971 164.232 56.1138C164.172 54.2615 164.762 52.7236 166.016 51.3535C168.185 49.1536 171.275 48.874 173.955 50.345Z" fill="#236AAC"/>
<path d="M121.748 50.345C123.227 51.2945 124.221 52.6404 124.606 54.3495C124.909 56.1595 124.647 57.8174 123.657 59.4021C122.641 60.7932 121.291 61.7414 119.589 62.0601C117.61 62.3127 116.085 61.9801 114.461 60.7963C113.013 59.5813 112.202 57.9971 112.025 56.1138C111.965 54.2615 112.555 52.7236 113.809 51.3535C115.978 49.1536 119.068 48.874 121.748 50.345Z" fill="#236AAC"/>
<path d="M134.413 54.179C134.593 54.1781 134.773 54.1772 134.959 54.1762C135.158 54.1761 135.357 54.1759 135.562 54.1757C135.77 54.1749 135.979 54.1741 136.193 54.1733C136.767 54.1712 137.34 54.1702 137.913 54.1695C138.272 54.1691 138.63 54.1684 138.988 54.1677C140.108 54.1655 141.229 54.164 142.349 54.1634C143.643 54.1627 144.936 54.1599 146.23 54.1553C147.229 54.1519 148.229 54.1503 149.228 54.1501C149.825 54.1499 150.422 54.149 151.019 54.1462C151.582 54.1436 152.144 54.1432 152.706 54.1446C153.01 54.1448 153.314 54.1426 153.618 54.1404C155.32 54.1486 155.32 54.1486 156.049 54.6758C156.442 55.2652 156.425 55.5597 156.365 56.2578C156.154 56.7578 156.022 56.9835 155.534 57.226C155.062 57.3772 154.687 57.4063 154.193 57.4086C154.012 57.4102 153.831 57.4118 153.645 57.4134C153.447 57.4135 153.25 57.4136 153.047 57.4137C152.839 57.415 152.63 57.4164 152.415 57.4177C151.844 57.4212 151.272 57.4226 150.701 57.4234C150.344 57.424 149.987 57.4249 149.629 57.4261C148.383 57.4299 147.137 57.432 145.891 57.4326C144.73 57.4331 143.569 57.4379 142.407 57.4445C141.41 57.45 140.412 57.4524 139.415 57.4525C138.819 57.4527 138.224 57.4541 137.628 57.4586C136.964 57.4635 136.3 57.4621 135.636 57.4601C135.439 57.4624 135.242 57.4648 135.039 57.4672C133.557 57.4545 133.557 57.4545 133.069 56.9864C132.664 56.3819 132.54 55.8739 132.635 55.1504C133.01 54.6758 133.01 54.6758 133.426 54.3594C133.696 54.0895 134.044 54.1801 134.413 54.179Z" fill="#FEFEFE"/>
<path d="M162.693 36.0078C164.226 36.9252 165.066 38.1893 165.739 39.8047C165.857 40.2793 165.857 40.2793 165.857 41.5449C161.681 41.5449 157.504 41.5449 153.201 41.5449C153.201 39.6531 153.88 38.1919 155.203 36.8495C157.332 34.9045 160.161 34.7004 162.693 36.0078Z" fill="#88CBFE"/>
<path d="M139.053 14.5432C139.165 14.5448 139.278 14.5464 139.394 14.548C139.575 14.5459 139.575 14.5459 139.759 14.5438C140.156 14.5403 140.553 14.5426 140.95 14.5453C141.227 14.5448 141.503 14.544 141.78 14.543C142.36 14.5419 142.939 14.5436 143.519 14.5472C144.261 14.5518 145.003 14.5492 145.744 14.5444C146.316 14.5416 146.887 14.5425 147.459 14.5445C147.732 14.5451 148.006 14.5444 148.279 14.5426C148.662 14.5405 149.045 14.5436 149.427 14.548C149.54 14.5464 149.652 14.5448 149.767 14.5432C150.324 14.555 150.716 14.6716 151.222 14.904C151.619 15.4414 151.619 15.4414 151.619 17.8144C146.921 17.8144 142.222 17.8144 137.381 17.8144C137.381 14.5787 137.381 14.5787 139.053 14.5432Z" fill="#FEFEFE"/>
<path d="M169.021 70.0215C171.11 70.0215 173.198 70.0215 175.35 70.0215C175.35 72.1098 175.35 74.198 175.35 76.3496C173.261 76.3496 171.173 76.3496 169.021 76.3496C169.021 74.2613 169.021 72.173 169.021 70.0215Z" fill="white"/>
<path d="M113.65 70.0215C115.739 70.0215 117.827 70.0215 119.979 70.0215C119.979 72.1098 119.979 74.198 119.979 76.3496C117.89 76.3496 115.802 76.3496 113.65 76.3496C113.65 74.2613 113.65 72.173 113.65 70.0215Z" fill="white"/>
<path d="M172.331 53.0288C173.037 53.5071 173.5 54.1907 173.768 54.9922C173.898 56.0569 173.707 56.9306 173.135 57.8398C172.529 58.5387 171.816 58.877 170.904 58.9874C169.987 59.0362 169.299 58.8466 168.547 58.3144C167.749 57.5938 167.436 56.78 167.38 55.7239C167.404 54.9457 167.6 54.3487 168.072 53.7265C169.358 52.5362 170.726 52.2448 172.331 53.0288Z" fill="#FBFCFD"/>
<path d="M120.124 53.0288C120.83 53.5071 121.293 54.1907 121.561 54.9922C121.691 56.0569 121.5 56.9306 120.928 57.8398C120.322 58.5387 119.609 58.877 118.697 58.9874C117.78 59.0362 117.092 58.8466 116.34 58.3144C115.542 57.5938 115.229 56.78 115.173 55.7239C115.197 54.9457 115.393 54.3487 115.865 53.7265C117.151 52.5362 118.519 52.2448 120.124 53.0288Z" fill="#FBFCFD"/>
<path d="M108.696 38.3629C108.881 38.3637 109.066 38.3646 109.256 38.3654C109.455 38.3659 109.655 38.3664 109.86 38.367C110.072 38.3683 110.284 38.3696 110.496 38.371C110.709 38.3718 110.922 38.3725 111.134 38.3732C111.657 38.375 112.179 38.3776 112.701 38.3809C112.613 38.8663 112.507 39.3116 112.32 39.7682C112.278 39.8728 112.235 39.9773 112.192 40.085C112.148 40.1915 112.104 40.2981 112.059 40.4079C112.014 40.5175 111.969 40.6271 111.923 40.74C111.814 41.0086 111.704 41.2768 111.594 41.5449C111.057 41.568 110.52 41.582 109.982 41.5944C109.83 41.601 109.678 41.6076 109.522 41.6145C108.395 41.634 108.395 41.634 107.78 41.1908C107.358 40.5758 107.226 40.0723 107.322 39.3301C107.698 38.8555 107.698 38.8555 108.113 38.5391C108.272 38.3809 108.272 38.3809 108.696 38.3629Z" fill="#FCFCFD"/>
<path d="M176.299 38.3809C176.965 38.367 177.63 38.3586 178.296 38.3512C178.578 38.3452 178.578 38.3452 178.867 38.3391C180.636 38.3243 180.636 38.3243 181.361 38.8555C181.759 39.452 181.7 39.7274 181.606 40.4122C181.486 40.8877 181.284 41.1066 180.887 41.3867C180.44 41.5356 180.17 41.5635 179.708 41.5604C179.574 41.5599 179.44 41.5594 179.302 41.5588C179.163 41.5575 179.023 41.5562 178.88 41.5548C178.738 41.5541 178.597 41.5534 178.452 41.5526C178.103 41.5508 177.755 41.5482 177.406 41.5449C177.221 41.107 177.036 40.6686 176.853 40.2299C176.773 40.0434 176.773 40.0434 176.692 39.8532C176.643 39.7334 176.593 39.6136 176.541 39.4901C176.495 39.3799 176.448 39.2698 176.4 39.1562C176.299 38.8555 176.299 38.8555 176.299 38.3809Z" fill="#FCFDFE"/>
</svg>
