<svg width="607" height="105" viewBox="0 0 607 105" fill="none" xmlns="http://www.w3.org/2000/svg">
<g filter="url(#filter0_d_2566_67)">
<path d="M153.72 81H141.2V32.28H153.72V81ZM167.8 40.32H127.08V29.88H167.8V40.32ZM190.204 29.88V81H177.684V29.88H190.204ZM220.684 29.88V81H208.124V29.88H220.684ZM184.884 60.08V49.64H212.844V60.08H184.884ZM242.069 81H229.429L244.069 29.88H262.869L277.429 81H264.789L253.949 38.12H253.029L242.069 81ZM264.909 68.96H241.869V59.24H264.909V68.96ZM300.789 82.12C296.895 82.12 293.629 81.28 290.989 79.6C288.375 77.92 286.415 75.4933 285.109 72.32C283.802 69.12 283.149 65.28 283.149 60.8V51.8C283.149 44.28 285.175 38.56 289.229 34.64C293.309 30.72 299.255 28.76 307.069 28.76C309.469 28.76 311.695 28.9333 313.749 29.28C315.802 29.6 317.669 30.0267 319.349 30.56C321.055 31.0933 322.535 31.68 323.789 32.32L324.869 42.88C322.842 41.9733 320.575 41.1733 318.069 40.48C315.589 39.76 312.735 39.4 309.509 39.4C304.815 39.4 301.375 40.4667 299.189 42.6C297.002 44.7067 295.909 48.0133 295.909 52.52V60.92C295.909 64.28 296.695 66.88 298.269 68.72C299.869 70.56 302.349 71.48 305.709 71.48C307.202 71.48 308.495 71.2667 309.589 70.84C310.709 70.3867 311.629 69.8 312.349 69.08C313.095 68.36 313.682 67.56 314.109 66.68V56.92L315.749 60.6L305.909 60.64V51H326.109V72.48H313.869C313.469 74.32 312.789 75.9733 311.829 77.44C310.895 78.88 309.535 80.0267 307.749 80.88C305.989 81.7067 303.669 82.12 300.789 82.12ZM313.989 81L314.389 70.48H326.109V81H313.989ZM347.063 81H334.423L349.063 29.88H367.863L382.423 81H369.783L358.943 38.12H358.023L347.063 81ZM369.903 68.96H346.863V59.24H369.903V68.96ZM413.867 81H403.347V31.84H413.867V81ZM428.347 38.64H388.787V29.88H428.347V38.64ZM466.52 81H456.4L456.76 71.4L456.48 70.52V58.24L456.44 56.48C456.44 53.92 455.733 52.04 454.32 50.84C452.933 49.64 450.653 49.04 447.48 49.04C444.787 49.04 442.253 49.4 439.88 50.12C437.533 50.8133 435.36 51.6267 433.36 52.56L434.24 44.4C435.413 43.7867 436.747 43.2133 438.24 42.68C439.76 42.12 441.453 41.6667 443.32 41.32C445.187 40.9733 447.2 40.8 449.36 40.8C452.56 40.8 455.267 41.1867 457.48 41.96C459.693 42.7067 461.453 43.7867 462.76 45.2C464.093 46.6133 465.053 48.3067 465.64 50.28C466.227 52.2267 466.52 54.3867 466.52 56.76V81ZM443.56 81.92C439.667 81.92 436.693 80.9467 434.64 79C432.613 77.0533 431.6 74.28 431.6 70.68V69.56C431.6 65.7467 432.773 62.9333 435.12 61.12C437.467 59.28 441.187 58.0133 446.28 57.32L457.4 55.8L458 62.4L447.76 63.88C445.52 64.1733 443.92 64.7067 442.96 65.48C442.027 66.2533 441.56 67.3867 441.56 68.88V69.28C441.56 70.7467 442.013 71.8933 442.92 72.72C443.853 73.52 445.307 73.92 447.28 73.92C449.04 73.92 450.547 73.64 451.8 73.08C453.053 72.52 454.08 71.7867 454.88 70.88C455.707 69.9467 456.293 68.9067 456.64 67.76L458.08 72.84H456.32C455.893 74.52 455.2 76.0533 454.24 77.44C453.307 78.8 451.987 79.8933 450.28 80.72C448.573 81.52 446.333 81.92 443.56 81.92ZM485.617 81H474.537L486.417 59.16V62L474.817 41.76H485.897L493.657 56.24H494.337L502.017 41.76H513.057L501.497 62V59.16L513.377 81H502.297L494.337 65.68H493.657L485.617 81ZM532.509 81H522.269V41.76H532.509V81ZM527.389 37.12C525.443 37.12 524.003 36.6667 523.069 35.76C522.163 34.8267 521.709 33.5467 521.709 31.92V31.72C521.709 30.0933 522.163 28.8133 523.069 27.88C524.003 26.9467 525.443 26.48 527.389 26.48C529.309 26.48 530.736 26.9467 531.669 27.88C532.603 28.8133 533.069 30.0933 533.069 31.72V31.92C533.069 33.5733 532.603 34.8533 531.669 35.76C530.736 36.6667 529.309 37.12 527.389 37.12Z" fill="white"/>
<path d="M153.72 81V82H154.72V81H153.72ZM141.2 81H140.2V82H141.2V81ZM141.2 32.28V31.28H140.2V32.28H141.2ZM153.72 32.28H154.72V31.28H153.72V32.28ZM167.8 40.32V41.32H168.8V40.32H167.8ZM127.08 40.32H126.08V41.32H127.08V40.32ZM127.08 29.88V28.88H126.08V29.88H127.08ZM167.8 29.88H168.8V28.88H167.8V29.88ZM153.72 80H141.2V82H153.72V80ZM142.2 81V32.28H140.2V81H142.2ZM141.2 33.28H153.72V31.28H141.2V33.28ZM152.72 32.28V81H154.72V32.28H152.72ZM167.8 39.32H127.08V41.32H167.8V39.32ZM128.08 40.32V29.88H126.08V40.32H128.08ZM127.08 30.88H167.8V28.88H127.08V30.88ZM166.8 29.88V40.32H168.8V29.88H166.8ZM190.204 29.88H191.204V28.88H190.204V29.88ZM190.204 81V82H191.204V81H190.204ZM177.684 81H176.684V82H177.684V81ZM177.684 29.88V28.88H176.684V29.88H177.684ZM220.684 29.88H221.684V28.88H220.684V29.88ZM220.684 81V82H221.684V81H220.684ZM208.124 81H207.124V82H208.124V81ZM208.124 29.88V28.88H207.124V29.88H208.124ZM184.884 60.08H183.884V61.08H184.884V60.08ZM184.884 49.64V48.64H183.884V49.64H184.884ZM212.844 49.64H213.844V48.64H212.844V49.64ZM212.844 60.08V61.08H213.844V60.08H212.844ZM189.204 29.88V81H191.204V29.88H189.204ZM190.204 80H177.684V82H190.204V80ZM178.684 81V29.88H176.684V81H178.684ZM177.684 30.88H190.204V28.88H177.684V30.88ZM219.684 29.88V81H221.684V29.88H219.684ZM220.684 80H208.124V82H220.684V80ZM209.124 81V29.88H207.124V81H209.124ZM208.124 30.88H220.684V28.88H208.124V30.88ZM185.884 60.08V49.64H183.884V60.08H185.884ZM184.884 50.64H212.844V48.64H184.884V50.64ZM211.844 49.64V60.08H213.844V49.64H211.844ZM212.844 59.08H184.884V61.08H212.844V59.08ZM242.069 81V82H242.846L243.038 81.2476L242.069 81ZM229.429 81L228.468 80.7247L228.103 82H229.429V81ZM244.069 29.88V28.88H243.316L243.108 29.6047L244.069 29.88ZM262.869 29.88L263.831 29.6061L263.624 28.88H262.869V29.88ZM277.429 81V82H278.754L278.391 80.7261L277.429 81ZM264.789 81L263.82 81.2451L264.011 82H264.789V81ZM253.949 38.12L254.919 37.8749L254.728 37.12H253.949V38.12ZM253.029 38.12V37.12H252.253L252.061 37.8724L253.029 38.12ZM264.909 68.96V69.96H265.909V68.96H264.909ZM241.869 68.96H240.869V69.96H241.869V68.96ZM241.869 59.24V58.24H240.869V59.24H241.869ZM264.909 59.24H265.909V58.24H264.909V59.24ZM242.069 80H229.429V82H242.069V80ZM230.391 81.2753L245.031 30.1553L243.108 29.6047L228.468 80.7247L230.391 81.2753ZM244.069 30.88H262.869V28.88H244.069V30.88ZM261.908 30.1539L276.468 81.2739L278.391 80.7261L263.831 29.6061L261.908 30.1539ZM277.429 80H264.789V82H277.429V80ZM265.759 80.7549L254.919 37.8749L252.98 38.3651L263.82 81.2451L265.759 80.7549ZM253.949 37.12H253.029V39.12H253.949V37.12ZM252.061 37.8724L241.101 80.7524L243.038 81.2476L253.998 38.3676L252.061 37.8724ZM264.909 67.96H241.869V69.96H264.909V67.96ZM242.869 68.96V59.24H240.869V68.96H242.869ZM241.869 60.24H264.909V58.24H241.869V60.24ZM263.909 59.24V68.96H265.909V59.24H263.909ZM290.989 79.6L290.448 80.4412L290.452 80.4437L290.989 79.6ZM285.109 72.32L284.183 72.698L284.184 72.7007L285.109 72.32ZM289.229 34.64L288.536 33.9189L288.534 33.9212L289.229 34.64ZM313.749 29.28L313.582 30.2661L313.595 30.2681L313.749 29.28ZM319.349 30.56L319.046 31.5131L319.05 31.5145L319.349 30.56ZM323.789 32.32L324.784 32.2183L324.728 31.6769L324.244 31.4294L323.789 32.32ZM324.869 42.88L324.46 43.7928L326.04 44.4993L325.864 42.7783L324.869 42.88ZM318.069 40.48L317.79 41.4404L317.802 41.4438L318.069 40.48ZM299.189 42.6L299.883 43.3202L299.887 43.3158L299.189 42.6ZM298.269 68.72L297.509 69.3699L297.514 69.3762L298.269 68.72ZM309.589 70.84L309.952 71.7717L309.964 71.7669L309.589 70.84ZM312.349 69.08L311.655 68.3602L311.648 68.3665L311.642 68.3729L312.349 69.08ZM314.109 66.68L315.009 67.1163L315.109 66.9096V66.68H314.109ZM314.109 56.92L315.022 56.5129L313.109 56.92H314.109ZM315.749 60.6L315.753 61.6L317.286 61.5938L316.662 60.1929L315.749 60.6ZM305.909 60.64H304.909V61.6441L305.913 61.64L305.909 60.64ZM305.909 51V50H304.909V51H305.909ZM326.109 51H327.109V50H326.109V51ZM326.109 72.48V73.48H327.109V72.48H326.109ZM313.869 72.48V71.48H313.063L312.892 72.2676L313.869 72.48ZM311.829 77.44L310.992 76.8923L310.99 76.8961L311.829 77.44ZM307.749 80.88L308.174 81.7851L308.18 81.7824L307.749 80.88ZM313.989 81L312.989 80.962L312.95 82H313.989V81ZM314.389 70.48V69.48H313.426L313.389 70.442L314.389 70.48ZM326.109 70.48H327.109V69.48H326.109V70.48ZM326.109 81V82H327.109V81H326.109ZM300.789 81.12C297.039 81.12 293.97 80.3119 291.526 78.7563L290.452 80.4437C293.287 82.2481 296.752 83.12 300.789 83.12V81.12ZM291.53 78.7588C289.106 77.2009 287.271 74.9441 286.033 71.9392L284.184 72.7007C285.56 76.0425 287.645 78.6391 290.448 80.4412L291.53 78.7588ZM286.035 71.942C284.789 68.8918 284.149 65.187 284.149 60.8H282.149C282.149 65.373 282.815 69.3482 284.183 72.698L286.035 71.942ZM284.149 60.8V51.8H282.149V60.8H284.149ZM284.149 51.8C284.149 44.4571 286.124 39.0339 289.924 35.3588L288.534 33.9212C284.227 38.0861 282.149 44.1029 282.149 51.8H284.149ZM289.922 35.3611C293.754 31.6789 299.414 29.76 307.069 29.76V27.76C299.097 27.76 292.863 29.7611 288.536 33.9189L289.922 35.3611ZM307.069 29.76C309.421 29.76 311.592 29.9299 313.582 30.266L313.915 28.294C311.799 27.9367 309.516 27.76 307.069 27.76V29.76ZM313.595 30.2681C315.606 30.5816 317.422 30.9976 319.046 31.5131L319.651 29.6069C317.915 29.0557 315.998 28.6184 313.903 28.2919L313.595 30.2681ZM319.05 31.5145C320.717 32.0352 322.142 32.6021 323.334 33.2106L324.244 31.4294C322.929 30.7579 321.394 30.1514 319.647 29.6055L319.05 31.5145ZM322.794 32.4217L323.874 42.9817L325.864 42.7783L324.784 32.2183L322.794 32.4217ZM325.277 41.9672C323.198 41.0368 320.882 40.2207 318.335 39.5162L317.802 41.4438C320.268 42.1259 322.487 42.9098 324.46 43.7928L325.277 41.9672ZM318.348 39.5197C315.758 38.7678 312.807 38.4 309.509 38.4V40.4C312.664 40.4 315.42 40.7522 317.79 41.4403L318.348 39.5197ZM309.509 38.4C304.691 38.4 300.943 39.4916 298.49 41.8842L299.887 43.3158C301.808 41.4418 304.94 40.4 309.509 40.4V38.4ZM298.495 41.8798C296.035 44.2499 294.909 47.873 294.909 52.52H296.909C296.909 48.1537 297.969 45.1634 299.883 43.3202L298.495 41.8798ZM294.909 52.52V60.92H296.909V52.52H294.909ZM294.909 60.92C294.909 64.4263 295.73 67.2893 297.509 69.3699L299.029 68.0701C297.661 66.4707 296.909 64.1337 296.909 60.92H294.909ZM297.514 69.3762C299.368 71.5081 302.174 72.48 305.709 72.48V70.48C302.524 70.48 300.37 69.6119 299.023 68.0638L297.514 69.3762ZM305.709 72.48C307.294 72.48 308.716 72.2539 309.952 71.7716L309.225 69.9084C308.275 70.2794 307.11 70.48 305.709 70.48V72.48ZM309.964 71.7669C311.185 71.2725 312.225 70.6179 313.056 69.7871L311.642 68.3729C311.032 68.9821 310.232 69.5008 309.214 69.9131L309.964 71.7669ZM313.043 69.7998C313.869 69.0032 314.528 68.1084 315.009 67.1163L313.209 66.2437C312.837 67.0116 312.322 67.7168 311.655 68.3602L313.043 69.7998ZM315.109 66.68V56.92H313.109V66.68H315.109ZM313.195 57.3271L314.835 61.0071L316.662 60.1929L315.022 56.5129L313.195 57.3271ZM315.745 59.6L305.905 59.64L305.913 61.64L315.753 61.6L315.745 59.6ZM306.909 60.64V51H304.909V60.64H306.909ZM305.909 52H326.109V50H305.909V52ZM325.109 51V72.48H327.109V51H325.109ZM326.109 71.48H313.869V73.48H326.109V71.48ZM312.892 72.2676C312.516 73.9971 311.88 75.5353 310.992 76.8923L312.665 77.9877C313.697 76.4114 314.422 74.6429 314.846 72.6924L312.892 72.2676ZM310.99 76.8961C310.171 78.1586 308.964 79.1914 307.318 79.9776L308.18 81.7824C310.107 80.862 311.62 79.6014 312.668 77.9839L310.99 76.8961ZM307.324 79.9749C305.745 80.7164 303.587 81.12 300.789 81.12V83.12C303.751 83.12 306.233 82.697 308.174 81.7851L307.324 79.9749ZM314.988 81.038L315.388 70.518L313.389 70.442L312.989 80.962L314.988 81.038ZM314.389 71.48H326.109V69.48H314.389V71.48ZM325.109 70.48V81H327.109V70.48H325.109ZM326.109 80H313.989V82H326.109V80ZM347.063 81V82H347.84L348.032 81.2476L347.063 81ZM334.423 81L333.462 80.7247L333.097 82H334.423V81ZM349.063 29.88V28.88H348.309L348.102 29.6047L349.063 29.88ZM367.863 29.88L368.825 29.6061L368.618 28.88H367.863V29.88ZM382.423 81V82H383.748L383.385 80.7261L382.423 81ZM369.783 81L368.814 81.2451L369.004 82H369.783V81ZM358.943 38.12L359.913 37.8749L359.722 37.12H358.943V38.12ZM358.023 38.12V37.12H357.247L357.054 37.8724L358.023 38.12ZM369.903 68.96V69.96H370.903V68.96H369.903ZM346.863 68.96H345.863V69.96H346.863V68.96ZM346.863 59.24V58.24H345.863V59.24H346.863ZM369.903 59.24H370.903V58.24H369.903V59.24ZM347.063 80H334.423V82H347.063V80ZM335.384 81.2753L350.024 30.1553L348.102 29.6047L333.462 80.7247L335.384 81.2753ZM349.063 30.88H367.863V28.88H349.063V30.88ZM366.901 30.1539L381.461 81.2739L383.385 80.7261L368.825 29.6061L366.901 30.1539ZM382.423 80H369.783V82H382.423V80ZM370.753 80.7549L359.913 37.8749L357.974 38.3651L368.814 81.2451L370.753 80.7549ZM358.943 37.12H358.023V39.12H358.943V37.12ZM357.054 37.8724L346.094 80.7524L348.032 81.2476L358.992 38.3676L357.054 37.8724ZM369.903 67.96H346.863V69.96H369.903V67.96ZM347.863 68.96V59.24H345.863V68.96H347.863ZM346.863 60.24H369.903V58.24H346.863V60.24ZM368.903 59.24V68.96H370.903V59.24H368.903ZM413.867 81V82H414.867V81H413.867ZM403.347 81H402.347V82H403.347V81ZM403.347 31.84V30.84H402.347V31.84H403.347ZM413.867 31.84H414.867V30.84H413.867V31.84ZM428.347 38.64V39.64H429.347V38.64H428.347ZM388.787 38.64H387.787V39.64H388.787V38.64ZM388.787 29.88V28.88H387.787V29.88H388.787ZM428.347 29.88H429.347V28.88H428.347V29.88ZM413.867 80H403.347V82H413.867V80ZM404.347 81V31.84H402.347V81H404.347ZM403.347 32.84H413.867V30.84H403.347V32.84ZM412.867 31.84V81H414.867V31.84H412.867ZM428.347 37.64H388.787V39.64H428.347V37.64ZM389.787 38.64V29.88H387.787V38.64H389.787ZM388.787 30.88H428.347V28.88H388.787V30.88ZM427.347 29.88V38.64H429.347V29.88H427.347ZM466.52 81V82H467.52V81H466.52ZM456.4 81L455.401 80.9625L455.362 82H456.4V81ZM456.76 71.4L457.759 71.4375L457.766 71.2631L457.713 71.0968L456.76 71.4ZM456.48 70.52H455.48V70.6753L455.527 70.8232L456.48 70.52ZM456.48 58.24H457.48V58.2286L457.48 58.2173L456.48 58.24ZM456.44 56.48H455.44V56.4914L455.44 56.5027L456.44 56.48ZM454.32 50.84L453.666 51.5962L453.673 51.6023L454.32 50.84ZM439.88 50.12L440.163 51.079L440.17 51.0769L439.88 50.12ZM433.36 52.56L432.366 52.4528L432.176 54.2163L433.783 53.4662L433.36 52.56ZM434.24 44.4L433.777 43.5138L433.303 43.7614L433.246 44.2928L434.24 44.4ZM438.24 42.68L438.576 43.6218L438.586 43.6183L438.24 42.68ZM443.32 41.32L443.137 40.3368L443.137 40.3368L443.32 41.32ZM457.48 41.96L457.15 42.9041L457.16 42.9075L457.48 41.96ZM462.76 45.2L462.026 45.8789L462.033 45.8862L462.76 45.2ZM465.64 50.28L464.681 50.565L464.683 50.5686L465.64 50.28ZM434.64 79L433.947 79.7212L433.952 79.7257L434.64 79ZM435.12 61.12L435.731 61.9113L435.737 61.9069L435.12 61.12ZM446.28 57.32L446.415 58.3109L446.415 58.3108L446.28 57.32ZM457.4 55.8L458.396 55.7095L458.301 54.6675L457.265 54.8092L457.4 55.8ZM458 62.4L458.143 63.3897L459.082 63.254L458.996 62.3095L458 62.4ZM447.76 63.88L447.89 64.8716L447.903 64.8697L447.76 63.88ZM442.96 65.48L442.333 64.7012L442.322 64.71L442.96 65.48ZM442.92 72.72L442.246 73.459L442.258 73.4693L442.269 73.4793L442.92 72.72ZM451.8 73.08L451.392 72.167L451.392 72.167L451.8 73.08ZM454.88 70.88L454.131 70.217L454.13 70.2184L454.88 70.88ZM456.64 67.76L457.602 67.4873L456.671 64.2022L455.683 67.4706L456.64 67.76ZM458.08 72.84V73.84H459.403L459.042 72.5673L458.08 72.84ZM456.32 72.84V71.84H455.542L455.351 72.5938L456.32 72.84ZM454.24 77.44L453.418 76.8708L453.416 76.8742L454.24 77.44ZM450.28 80.72L450.704 81.6255L450.716 81.62L450.28 80.72ZM466.52 80H456.4V82H466.52V80ZM457.399 81.0375L457.759 71.4375L455.761 71.3625L455.401 80.9625L457.399 81.0375ZM457.713 71.0968L457.433 70.2168L455.527 70.8232L455.807 71.7032L457.713 71.0968ZM457.48 70.52V58.24H455.48V70.52H457.48ZM457.48 58.2173L457.44 56.4573L455.44 56.5027L455.48 58.2627L457.48 58.2173ZM457.44 56.48C457.44 53.7435 456.68 51.5323 454.967 50.0777L453.673 51.6023C454.786 52.5477 455.44 54.0965 455.44 56.48H457.44ZM454.974 50.0838C453.314 48.6465 450.734 48.04 447.48 48.04V50.04C450.573 50.04 452.553 50.6335 453.666 51.5962L454.974 50.0838ZM447.48 48.04C444.697 48.04 442.065 48.4122 439.59 49.1631L440.17 51.0769C442.442 50.3878 444.877 50.04 447.48 50.04V48.04ZM439.597 49.161C437.207 49.8669 434.987 50.6973 432.937 51.6538L433.783 53.4662C435.733 52.556 437.859 51.7597 440.163 51.079L439.597 49.161ZM434.354 52.6672L435.234 44.5072L433.246 44.2928L432.366 52.4528L434.354 52.6672ZM434.703 45.2862C435.829 44.698 437.118 44.1425 438.576 43.6217L437.904 41.7383C436.375 42.2842 434.998 42.8753 433.777 43.5138L434.703 45.2862ZM438.586 43.6183C440.045 43.0809 441.682 42.6412 443.503 42.3032L443.137 40.3368C441.224 40.6921 439.475 41.1591 437.894 41.7417L438.586 43.6183ZM443.503 42.3032C445.301 41.9691 447.253 41.8 449.36 41.8V39.8C447.147 39.8 445.072 39.9776 443.137 40.3368L443.503 42.3032ZM449.36 41.8C452.486 41.8 455.074 42.1785 457.15 42.904L457.81 41.016C455.46 40.1948 452.634 39.8 449.36 39.8V41.8ZM457.16 42.9075C459.249 43.6121 460.854 44.612 462.026 45.8789L463.494 44.5211C462.052 42.9613 460.138 41.8013 457.8 41.0125L457.16 42.9075ZM462.033 45.8862C463.252 47.179 464.137 48.7325 464.681 50.565L466.599 49.995C465.97 47.8809 464.934 46.0477 463.487 44.5138L462.033 45.8862ZM464.683 50.5686C465.237 52.4075 465.52 54.4685 465.52 56.76H467.52C467.52 54.3048 467.217 52.0458 466.597 49.9914L464.683 50.5686ZM465.52 56.76V81H467.52V56.76H465.52ZM443.56 80.92C439.825 80.92 437.135 79.9876 435.328 78.2743L433.952 79.7257C436.252 81.9058 439.508 82.92 443.56 82.92V80.92ZM435.333 78.2788C433.554 76.5701 432.6 74.0885 432.6 70.68H430.6C430.6 74.4715 431.673 77.5366 433.947 79.7212L435.333 78.2788ZM432.6 70.68V69.56H430.6V70.68H432.6ZM432.6 69.56C432.6 65.9596 433.697 63.4831 435.731 61.9113L434.509 60.3287C431.849 62.3836 430.6 65.5337 430.6 69.56H432.6ZM435.737 61.9069C437.876 60.2297 441.386 58.9954 446.415 58.3109L446.145 56.3291C440.987 57.0313 437.057 58.3303 434.503 60.3331L435.737 61.9069ZM446.415 58.3108L457.535 56.7908L457.265 54.8092L446.145 56.3292L446.415 58.3108ZM456.404 55.8905L457.004 62.4905L458.996 62.3095L458.396 55.7095L456.404 55.8905ZM457.857 61.4103L447.617 62.8903L447.903 64.8697L458.143 63.3897L457.857 61.4103ZM447.63 62.8885C445.338 63.1887 443.512 63.7516 442.333 64.7012L443.587 66.2588C444.328 65.6617 445.702 65.158 447.89 64.8715L447.63 62.8885ZM442.322 64.71C441.107 65.7168 440.56 67.1646 440.56 68.88H442.56C442.56 67.6088 442.946 66.7899 443.598 66.25L442.322 64.71ZM440.56 68.88V69.28H442.56V68.88H440.56ZM440.56 69.28C440.56 70.9681 441.091 72.406 442.246 73.459L443.594 71.981C442.935 71.3807 442.56 70.5252 442.56 69.28H440.56ZM442.269 73.4793C443.466 74.5046 445.204 74.92 447.28 74.92V72.92C445.41 72.92 444.241 72.5354 443.571 71.9607L442.269 73.4793ZM447.28 74.92C449.142 74.92 450.795 74.6241 452.208 73.993L451.392 72.167C450.298 72.6559 448.938 72.92 447.28 72.92V74.92ZM452.208 73.993C453.574 73.3825 454.723 72.5692 455.63 71.5416L454.13 70.2184C453.437 71.0041 452.532 71.6575 451.392 72.167L452.208 73.993ZM455.629 71.543C456.547 70.5062 457.207 69.3399 457.597 68.0494L455.683 67.4706C455.38 68.4735 454.866 69.3871 454.131 70.217L455.629 71.543ZM455.678 68.0327L457.118 73.1127L459.042 72.5673L457.602 67.4873L455.678 68.0327ZM458.08 71.84H456.32V73.84H458.08V71.84ZM455.351 72.5938C454.953 74.1615 454.308 75.5849 453.418 76.8708L455.062 78.0092C456.092 76.5218 456.834 74.8785 457.289 73.0862L455.351 72.5938ZM453.416 76.8742C452.594 78.0707 451.418 79.0576 449.844 79.82L450.716 81.62C452.555 80.7291 454.019 79.5293 455.065 78.0058L453.416 76.8742ZM449.856 79.8145C448.329 80.53 446.25 80.92 443.56 80.92V82.92C446.417 82.92 448.817 82.51 450.704 81.6255L449.856 79.8145ZM485.617 81V82H486.222L486.503 81.4647L485.617 81ZM474.537 81L473.659 80.5222L472.855 82H474.537V81ZM486.417 59.16H487.417L485.539 58.6822L486.417 59.16ZM486.417 62L485.55 62.4972L487.417 65.7559V62H486.417ZM474.817 41.76V40.76H473.092L473.95 42.2572L474.817 41.76ZM485.897 41.76L486.779 41.2876L486.496 40.76H485.897V41.76ZM493.657 56.24L492.776 56.7124L493.059 57.24H493.657V56.24ZM494.337 56.24V57.24H494.939L495.221 56.7086L494.337 56.24ZM502.017 41.76V40.76H501.416L501.134 41.2914L502.017 41.76ZM513.057 41.76L513.926 42.256L514.78 40.76H513.057V41.76ZM501.497 62H500.497V65.7672L502.366 62.496L501.497 62ZM501.497 59.16L502.376 58.6822L500.497 59.16H501.497ZM513.377 81V82H515.06L514.256 80.5222L513.377 81ZM502.297 81L501.41 81.4611L501.69 82H502.297V81ZM494.337 65.68L495.225 65.2189L494.945 64.68H494.337V65.68ZM493.657 65.68V64.68H493.053L492.772 65.2153L493.657 65.68ZM485.617 80H474.537V82H485.617V80ZM475.416 81.4778L487.296 59.6378L485.539 58.6822L473.659 80.5222L475.416 81.4778ZM485.417 59.16V62H487.417V59.16H485.417ZM487.285 61.5028L475.685 41.2628L473.95 42.2572L485.55 62.4972L487.285 61.5028ZM474.817 42.76H485.897V40.76H474.817V42.76ZM485.016 42.2324L492.776 56.7124L494.539 55.7676L486.779 41.2876L485.016 42.2324ZM493.657 57.24H494.337V55.24H493.657V57.24ZM495.221 56.7086L502.901 42.2286L501.134 41.2914L493.454 55.7714L495.221 56.7086ZM502.017 42.76H513.057V40.76H502.017V42.76ZM512.189 41.264L500.629 61.504L502.366 62.496L513.926 42.256L512.189 41.264ZM502.497 62V59.16H500.497V62H502.497ZM500.619 59.6378L512.499 81.4778L514.256 80.5222L502.376 58.6822L500.619 59.6378ZM513.377 80H502.297V82H513.377V80ZM503.185 80.5389L495.225 65.2189L493.45 66.1411L501.41 81.4611L503.185 80.5389ZM494.337 64.68H493.657V66.68H494.337V64.68ZM492.772 65.2153L484.732 80.5353L486.503 81.4647L494.543 66.1447L492.772 65.2153ZM532.509 81V82H533.509V81H532.509ZM522.269 81H521.269V82H522.269V81ZM522.269 41.76V40.76H521.269V41.76H522.269ZM532.509 41.76H533.509V40.76H532.509V41.76ZM523.069 35.76L522.352 36.4568L522.362 36.4672L522.373 36.4773L523.069 35.76ZM523.069 27.88L522.362 27.1729L522.357 27.178L522.352 27.1832L523.069 27.88ZM532.509 80H522.269V82H532.509V80ZM523.269 81V41.76H521.269V81H523.269ZM522.269 42.76H532.509V40.76H522.269V42.76ZM531.509 41.76V81H533.509V41.76H531.509ZM527.389 36.12C525.576 36.12 524.438 35.6955 523.766 35.0427L522.373 36.4773C523.567 37.6378 525.31 38.12 527.389 38.12V36.12ZM523.787 35.0632C523.104 34.3604 522.709 33.3549 522.709 31.92H520.709C520.709 33.7384 521.221 35.2929 522.352 36.4568L523.787 35.0632ZM522.709 31.92V31.72H520.709V31.92H522.709ZM522.709 31.72C522.709 30.2851 523.104 29.2796 523.787 28.5768L522.352 27.1832C521.221 28.3471 520.709 29.9016 520.709 31.72H522.709ZM523.776 28.5871C524.449 27.9144 525.583 27.48 527.389 27.48V25.48C525.303 25.48 523.556 25.9789 522.362 27.1729L523.776 28.5871ZM527.389 27.48C529.165 27.48 530.287 27.9121 530.962 28.5871L532.376 27.1729C531.185 25.9812 529.454 25.48 527.389 25.48V27.48ZM530.962 28.5871C531.666 29.2912 532.069 30.2931 532.069 31.72H534.069C534.069 29.8935 533.539 28.3354 532.376 27.1729L530.962 28.5871ZM532.069 31.72V31.92H534.069V31.72H532.069ZM532.069 31.92C532.069 33.3803 531.663 34.3721 530.973 35.0427L532.366 36.4773C533.542 35.3346 534.069 33.7664 534.069 31.92H532.069ZM530.973 35.0427C530.298 35.6976 529.172 36.12 527.389 36.12V38.12C529.447 38.12 531.174 37.6357 532.366 36.4773L530.973 35.0427Z" fill="white"/>
</g>
<path d="M0 25C0 11.1929 11.1929 0 25 0H80C93.8071 0 105 11.1929 105 25V80C105 93.8071 93.8071 105 80 105H25C11.1929 105 0 93.8071 0 80V25Z" fill="white" fill-opacity="0.8"/>
<path d="M18.026 95H15.835V86.474H18.026V95ZM20.49 87.881H13.364V86.054H20.49V87.881ZM24.4107 86.054V95H22.2197V86.054H24.4107ZM29.7447 86.054V95H27.5467V86.054H29.7447ZM23.4797 91.339V89.512H28.3727V91.339H23.4797ZM33.4871 95H31.2751L33.8371 86.054H37.1271L39.6751 95H37.4631L35.5661 87.496H35.4051L33.4871 95ZM37.4841 92.893H33.4521V91.192H37.4841V92.893ZM43.763 95.196C43.0817 95.196 42.51 95.049 42.048 94.755C41.5907 94.461 41.2477 94.0363 41.019 93.481C40.7904 92.921 40.676 92.249 40.676 91.465V89.89C40.676 88.574 41.0307 87.573 41.74 86.887C42.454 86.201 43.4947 85.858 44.862 85.858C45.282 85.858 45.6717 85.8883 46.031 85.949C46.3904 86.005 46.717 86.0797 47.011 86.173C47.3097 86.2663 47.5687 86.369 47.788 86.481L47.977 88.329C47.6224 88.1703 47.2257 88.0303 46.787 87.909C46.353 87.783 45.8537 87.72 45.289 87.72C44.4677 87.72 43.8657 87.9067 43.483 88.28C43.1004 88.6487 42.909 89.2273 42.909 90.016V91.486C42.909 92.074 43.0467 92.529 43.322 92.851C43.602 93.173 44.036 93.334 44.624 93.334C44.8854 93.334 45.1117 93.2967 45.303 93.222C45.499 93.1427 45.66 93.04 45.786 92.914C45.9167 92.788 46.0194 92.648 46.094 92.494V90.786L46.381 91.43L44.659 91.437V89.75H48.194V93.509H46.052C45.982 93.831 45.863 94.1203 45.695 94.377C45.5317 94.629 45.2937 94.8297 44.981 94.979C44.673 95.1237 44.267 95.196 43.763 95.196ZM46.073 95L46.143 93.159H48.194V95H46.073ZM51.861 95H49.649L52.211 86.054H55.501L58.049 95H55.837L53.94 87.496H53.779L51.861 95ZM55.858 92.893H51.826V91.192H55.858V92.893ZM67.2551 95H65.0641V86.474H67.2551V95ZM69.7191 87.881H62.5931V86.054H69.7191V87.881ZM71.9434 95H69.7314L72.2934 86.054H75.5834L78.1314 95H75.9194L74.0224 87.496H73.8614L71.9434 95ZM75.9404 92.893H71.9084V91.192H75.9404V92.893ZM81.3871 95H79.0141L81.4711 90.114V90.576L79.1051 86.054H81.4291L83.0041 89.232H83.1231L84.6981 86.054H87.0221L84.6491 90.576V90.114L87.1061 95H84.7331L83.1231 91.591H83.0041L81.3871 95ZM90.8449 86.054V95H88.6469V86.054H90.8449Z" fill="#2169AC"/>
<path d="M46.8458 11.4558C46.9791 11.4545 47.1125 11.4532 47.2498 11.4519C47.6916 11.448 48.1334 11.4454 48.5752 11.4431C48.7264 11.4422 48.8776 11.4414 49.0333 11.4405C49.8342 11.4363 50.6351 11.4332 51.436 11.431C52.0973 11.4288 52.7584 11.4244 53.4196 11.418C54.2192 11.4101 55.0188 11.4063 55.8185 11.4051C56.1223 11.4041 56.4261 11.4017 56.7299 11.3979C58.6007 11.3758 59.9851 11.4076 61.4879 12.6432C62.1998 13.5178 62.8064 14.353 62.7986 15.5125C62.7981 15.6466 62.7976 15.7807 62.7971 15.9188C62.7958 16.0582 62.7945 16.1976 62.7931 16.3412C62.7924 16.4824 62.7917 16.6236 62.7909 16.7691C62.7891 17.1176 62.7865 17.466 62.7832 17.8145C62.928 17.8131 63.0728 17.8117 63.2219 17.8102C64.5927 17.7975 65.9634 17.7879 67.3341 17.7817C68.0387 17.7784 68.7432 17.7739 69.4478 17.7667C70.1289 17.7598 70.81 17.7561 71.4911 17.7544C71.7498 17.7533 72.0084 17.751 72.267 17.7476C74.4466 17.7197 76.1777 17.9967 77.8125 19.5547C79.307 21.1309 79.7913 23.4123 80.3858 25.4428C80.4622 25.7011 80.5387 25.9593 80.6153 26.2176C80.8149 26.8912 81.0132 27.5651 81.2112 28.2392C81.3735 28.7906 81.5366 29.3418 81.6998 29.893C82.0369 31.0315 82.3734 32.1702 82.7083 33.3094C82.739 33.4136 82.7698 33.5178 82.8014 33.6252C82.941 34.1009 83.0764 34.5763 83.1914 35.0586C83.3684 35.0584 83.5453 35.0582 83.7277 35.0581C84.3929 35.0587 85.058 35.0655 85.7232 35.0741C86.0095 35.0769 86.2958 35.0781 86.582 35.0776C88.4795 35.0755 90.0743 35.1225 91.5725 36.4414C91.826 36.703 92.0157 36.965 92.209 37.2734C92.2738 37.3717 92.3387 37.47 92.4055 37.5713C93.0143 38.6755 93.0396 40.0041 92.8418 41.2285C92.4745 42.3875 91.8674 43.4597 90.7852 44.0762C90.471 44.1883 90.1548 44.2949 89.8359 44.3926C89.9277 44.519 90.0195 44.6455 90.114 44.7757C92.2483 47.7567 92.9433 50.4234 92.9258 54.0405C92.9263 54.3557 92.9269 54.6709 92.9277 54.9861C92.9286 55.6424 92.9273 56.2987 92.9243 56.955C92.9207 57.792 92.9228 58.629 92.9266 59.466C92.9288 60.1153 92.9281 60.7646 92.9265 61.414C92.9261 61.7225 92.9266 62.031 92.928 62.3396C92.9368 64.6634 92.7837 66.5191 91.1016 68.2813C90.0035 69.3295 88.7405 70.0418 87.1962 70.0277C87.0683 70.0268 86.9404 70.0259 86.8086 70.025C86.7113 70.0238 86.614 70.0227 86.5137 70.0215C86.5154 70.1288 86.5172 70.236 86.519 70.3465C86.5365 71.4628 86.5484 72.5791 86.5571 73.6956C86.5611 74.1122 86.5665 74.5289 86.5733 74.9455C86.5829 75.5443 86.5874 76.1431 86.5909 76.742C86.595 76.9283 86.5991 77.1145 86.6033 77.3064C86.6033 77.4806 86.6034 77.6547 86.6035 77.8341C86.6052 77.987 86.607 78.1398 86.6088 78.2972C86.472 78.909 86.2181 79.1392 85.7227 79.5137C85.2124 79.6141 85.2124 79.6141 84.6288 79.616C84.4685 79.6181 84.4685 79.6181 84.305 79.6202C83.9535 79.6237 83.6023 79.6214 83.2507 79.6187C83.0055 79.6193 82.7602 79.62 82.5149 79.621C82.0016 79.6222 81.4884 79.6205 80.975 79.6168C80.318 79.6123 79.6612 79.6149 79.0041 79.6196C78.4979 79.6225 77.9917 79.6216 77.4854 79.6195C77.2432 79.619 77.001 79.6197 76.7588 79.6215C76.4198 79.6235 76.0812 79.6204 75.7423 79.616C75.5497 79.6154 75.3571 79.6148 75.1587 79.6141C74.6484 79.5137 74.6484 79.5137 73.8574 78.7227C73.8574 75.8513 73.8574 72.9799 73.8574 70.0215C59.7615 70.0215 45.6656 70.0215 31.1426 70.0215C31.1426 72.8929 31.1426 75.7643 31.1426 78.7227C30.2525 79.6128 30.2525 79.6128 29.2577 79.616C29.0974 79.6181 29.0974 79.6181 28.9339 79.6202C28.5824 79.6237 28.2312 79.6214 27.8796 79.6187C27.6344 79.6193 27.3891 79.62 27.1439 79.621C26.6305 79.6222 26.1173 79.6205 25.6039 79.6168C24.9469 79.6123 24.2901 79.6149 23.633 79.6196C23.1268 79.6225 22.6206 79.6216 22.1143 79.6195C21.8721 79.619 21.6299 79.6197 21.3877 79.6215C21.0487 79.6235 20.7101 79.6204 20.3712 79.616C20.1786 79.6154 19.986 79.6148 19.7876 79.6141C19.1229 79.4833 18.889 79.2607 18.4863 78.7227C18.3912 78.2972 18.3912 78.2972 18.3965 77.8341C18.3966 77.66 18.3966 77.4858 18.3967 77.3064C18.4008 77.1202 18.4049 76.9339 18.4091 76.742C18.4102 76.55 18.4113 76.358 18.4125 76.1602C18.4169 75.5476 18.4268 74.9352 18.4369 74.3226C18.4409 73.9071 18.4445 73.4915 18.4477 73.0759C18.4564 72.0577 18.4697 71.0396 18.4863 70.0215C18.389 70.0227 18.2917 70.0238 18.1914 70.025C18.0635 70.0259 17.9356 70.0268 17.8038 70.0277C17.6771 70.0289 17.5504 70.03 17.4198 70.0312C15.8903 69.9896 14.6003 69.0165 13.5864 67.9544C12.0377 66.1164 12.0632 64.1648 12.0742 61.8815C12.0737 61.5669 12.0731 61.2523 12.0723 60.9377C12.0714 60.2802 12.0727 59.6229 12.0757 58.9654C12.0793 58.1291 12.0772 57.293 12.0734 56.4567C12.0711 55.8073 12.0719 55.158 12.0735 54.5086C12.0739 54.2006 12.0734 53.8926 12.072 53.5846C12.0584 50.0017 12.9151 47.2549 15.1641 44.3926C15.0189 44.3481 14.8737 44.3037 14.7241 44.2579C13.6844 43.8869 13.1103 43.2234 12.5636 42.2766C11.9486 40.9406 11.8871 39.5437 12.3343 38.1473C12.9893 36.7244 13.8336 35.9633 15.2499 35.3501C15.8755 35.1356 16.4709 35.1214 17.1274 35.1204C17.2623 35.1178 17.3973 35.1152 17.5363 35.1125C17.9617 35.1049 18.3871 35.1014 18.8126 35.0982C19.1034 35.0937 19.3941 35.089 19.6849 35.0839C20.3928 35.0723 21.1006 35.0644 21.8086 35.0586C21.8418 34.9458 21.875 34.833 21.9092 34.7167C22.2277 33.6352 22.5463 32.5538 22.8651 31.4724C23.0288 30.9169 23.1925 30.3614 23.3561 29.8058C23.7003 28.6366 24.0455 27.4677 24.3926 26.2994C24.5871 25.6438 24.7786 24.9874 24.9689 24.3305C25.0638 24.0077 25.1588 23.6849 25.2538 23.3621C25.2943 23.2199 25.3347 23.0778 25.3764 22.9313C25.9136 21.1253 26.8861 19.3983 28.5845 18.4652C30.0475 17.7145 31.4801 17.7522 33.0861 17.7681C33.3501 17.769 33.6141 17.7697 33.8781 17.7702C34.5686 17.772 35.2591 17.7766 35.9496 17.7819C36.6559 17.7868 37.3623 17.7889 38.0686 17.7913C39.4514 17.7964 40.8341 17.8044 42.2168 17.8145C42.2128 17.6083 42.2088 17.4021 42.2046 17.1896C42.2014 16.9163 42.1982 16.643 42.1952 16.3696C42.1923 16.234 42.1894 16.0985 42.1864 15.9588C42.1752 14.6288 42.5339 13.803 43.3737 12.7816C44.5059 11.86 45.3763 11.4637 46.8458 11.4558Z" fill="#2169AC"/>
<path d="M23.1479 44.6075C23.4117 44.6064 23.6755 44.6051 23.9392 44.6034C24.661 44.5998 25.3828 44.6011 26.1046 44.6032C26.8842 44.6047 27.6638 44.6016 28.4434 44.5991C29.9695 44.595 31.4955 44.5952 33.0217 44.5969C34.2622 44.5983 35.5027 44.5981 36.7433 44.597C36.92 44.5968 37.0966 44.5966 37.2787 44.5965C37.6376 44.5961 37.9965 44.5958 38.3554 44.5954C41.7199 44.5923 45.0844 44.5942 48.4489 44.5978C51.3345 44.6006 54.22 44.5989 57.1056 44.5939C60.458 44.5881 63.8103 44.5854 67.1627 44.5875C67.5203 44.5877 67.8779 44.5879 68.2356 44.5881C68.4995 44.5883 68.4995 44.5883 68.7688 44.5884C70.0074 44.5889 71.2461 44.5871 72.4848 44.5844C73.9949 44.5812 75.5049 44.5814 77.015 44.5858C77.7852 44.588 78.5553 44.5886 79.3255 44.5852C80.0312 44.582 80.7367 44.5833 81.4424 44.5881C81.6971 44.589 81.9517 44.5884 82.2063 44.5859C84.3099 44.5674 85.7454 45.1023 87.2843 46.5586C89.384 48.8355 89.8021 51.2883 89.7772 54.2494C89.7774 54.537 89.7778 54.8245 89.7784 55.1121C89.7788 55.7102 89.7766 56.3082 89.7722 56.9062C89.7668 57.6695 89.7678 58.4327 89.7707 59.196C89.7724 59.7881 89.771 60.3801 89.7686 60.9721C89.7678 61.2535 89.7678 61.5349 89.7688 61.8164C89.7757 64.9215 89.7757 64.9215 88.8272 65.9968C87.9819 66.7736 87.0535 66.9047 85.9486 66.8981C85.8306 66.8987 85.7126 66.8992 85.5911 66.8998C85.1955 66.9013 84.7999 66.9005 84.4042 66.8997C84.1178 66.9003 83.8315 66.901 83.5451 66.9019C82.7578 66.9038 81.9705 66.9038 81.1833 66.9034C80.3343 66.9033 79.4854 66.9051 78.6364 66.9066C76.9732 66.9092 75.3099 66.9101 73.6466 66.9103C72.2949 66.9104 70.9431 66.9111 69.5914 66.9121C65.7601 66.9149 61.9289 66.9163 58.0977 66.9161C57.7878 66.9161 57.7878 66.9161 57.4717 66.916C57.2648 66.916 57.058 66.916 56.8449 66.916C53.4918 66.9159 50.1388 66.9189 46.7857 66.9234C43.3439 66.9279 39.9022 66.9301 36.4605 66.9298C34.5277 66.9297 32.595 66.9306 30.6622 66.934C29.0168 66.9369 27.3715 66.9376 25.7261 66.9354C24.8865 66.9344 24.0469 66.9344 23.2072 66.9371C22.4386 66.9396 21.6701 66.9391 20.9015 66.9364C20.6234 66.9359 20.3454 66.9365 20.0673 66.9382C17.2242 66.955 17.2242 66.955 16.1928 66.0068C15.389 65.1326 15.2748 64.193 15.2738 63.0507C15.2725 62.9263 15.2712 62.8019 15.2698 62.6737C15.266 62.264 15.2646 61.8543 15.2636 61.4445C15.2622 61.1572 15.2607 60.8698 15.2592 60.5824C15.2566 59.9799 15.2554 59.3774 15.255 58.7748C15.2541 58.0089 15.2482 57.2431 15.2409 56.4772C15.2362 55.8831 15.2351 55.289 15.2349 54.6949C15.2343 54.4129 15.2323 54.1309 15.229 53.849C15.1981 51.0156 15.7583 48.6664 17.7565 46.5178C19.4232 44.9296 20.8969 44.5915 23.1479 44.6075Z" fill="#FEFEFE"/>
<path d="M32.7345 20.8971C32.9969 20.8955 32.9969 20.8955 33.2645 20.8938C33.8499 20.8909 34.4352 20.8925 35.0206 20.8941C35.4406 20.893 35.8606 20.8917 36.2806 20.89C37.3026 20.8866 38.3246 20.8866 39.3466 20.8879C40.1776 20.8889 41.0086 20.8887 41.8397 20.8877C41.958 20.8875 42.0764 20.8874 42.1984 20.8873C42.4389 20.887 42.6794 20.8867 42.9199 20.8864C45.1745 20.8838 47.4291 20.8851 49.6837 20.8878C51.7445 20.8901 53.8053 20.8878 55.866 20.8832C57.9838 20.8786 60.1016 20.8769 62.2193 20.8784C62.4591 20.8785 62.6989 20.8787 62.9386 20.8788C63.1156 20.879 63.1156 20.879 63.2961 20.8791C64.1254 20.8794 64.9547 20.8779 65.7841 20.8756C66.7958 20.8728 67.8075 20.8728 68.8192 20.8764C69.335 20.8782 69.8507 20.8782 70.3664 20.8757C70.9267 20.8732 71.4867 20.8756 72.047 20.8791C72.2085 20.8773 72.3699 20.8754 72.5363 20.8735C73.6467 20.8878 74.5161 21.1363 75.4395 21.7695C76.2583 22.6669 76.533 23.8609 76.8633 25.0028C76.9452 25.278 76.9452 25.278 77.0289 25.5587C77.1862 26.0881 77.3412 26.6182 77.4961 27.1485C77.5685 27.3912 77.6412 27.6339 77.7142 27.8764C77.995 28.8136 78.2652 29.7529 78.5201 30.6975C79.0524 32.659 79.6412 34.5945 80.2844 36.522C80.3208 36.6313 80.3571 36.7406 80.3946 36.8533C80.8228 38.1375 81.2759 39.406 81.7826 40.6617C81.9258 41.0703 81.9258 41.0703 81.9258 41.5449C80.3074 41.5449 78.6889 41.5449 77.0215 41.5449C76.9693 41.1273 76.9171 40.7096 76.8633 40.2793C76.4486 37.564 75.0458 35.3644 72.831 33.7293C70.5668 32.2891 68.0017 31.8255 65.3676 32.3197C62.8614 33.0375 60.6977 34.546 59.3757 36.8192C58.5762 38.3904 58.2929 39.7543 58.0371 41.5449C46.4994 41.5449 34.9616 41.5449 23.0742 41.5449C23.2523 40.4766 23.2523 40.4766 23.4388 39.9882C23.4991 39.829 23.4991 39.829 23.5606 39.6666C23.6024 39.5588 23.6442 39.451 23.6873 39.34C23.7481 39.1792 23.7481 39.1792 23.8102 39.0152C24.004 38.5075 24.2063 38.009 24.427 37.512C24.6787 36.9027 24.8546 36.298 25.0221 35.6618C25.3053 34.616 25.6001 33.5748 25.912 32.5372C25.9518 32.4047 25.9917 32.2721 26.0327 32.1356C26.337 31.1297 26.6565 30.1291 26.9779 29.1285C27.3712 27.888 27.7154 26.6339 28.052 25.3769C28.8882 22.3091 28.8882 22.3091 30.3479 21.279C31.1147 20.8512 31.8752 20.8902 32.7345 20.8971Z" fill="#88CBFE"/>
<path d="M43.3226 50.9552C43.5432 50.9544 43.7637 50.9533 43.9842 50.9519C44.5795 50.949 45.1746 50.9501 45.7699 50.9521C46.3952 50.9537 47.0205 50.9522 47.6458 50.9512C48.6957 50.9501 49.7456 50.9516 50.7955 50.9546C52.0061 50.9581 53.2166 50.957 54.4272 50.9535C55.4699 50.9506 56.5125 50.9502 57.5551 50.9518C58.1764 50.9528 58.7977 50.953 59.419 50.9509C60.0035 50.949 60.5879 50.9503 61.1724 50.954C61.4868 50.9552 61.8013 50.9533 62.1157 50.9514C63.7396 50.9666 65.0901 51.2879 66.2909 52.435C67.253 53.5739 67.6804 54.7534 67.6004 56.2411C67.4059 57.5856 66.8305 58.6958 65.7891 59.5801C64.8321 60.1647 63.9568 60.5472 62.8293 60.5547C62.641 60.5563 62.4527 60.5579 62.2588 60.5595C61.9485 60.5609 61.9485 60.5609 61.6319 60.5623C61.4121 60.5638 61.1922 60.5654 60.9723 60.567C60.2496 60.572 59.5268 60.5752 58.804 60.5781C58.6809 60.5787 58.5577 60.5792 58.4308 60.5797C57.2681 60.5846 56.1055 60.5888 54.9428 60.5915C53.4585 60.5949 51.9744 60.6016 50.4902 60.6126C49.4451 60.6201 48.4001 60.6239 47.355 60.6251C46.7317 60.6258 46.1086 60.6282 45.4853 60.6345C44.8977 60.6404 44.3102 60.6417 43.7225 60.6396C43.407 60.6396 43.0915 60.6443 42.776 60.6492C41.2644 60.6371 40.0164 60.2814 38.8575 59.2723C37.883 58.2763 37.4459 57.1021 37.3718 55.7239C37.4218 54.3104 37.9939 53.1139 39.0231 52.1445C40.3171 51.0476 41.684 50.9449 43.3226 50.9552Z" fill="#2269AC"/>
<path d="M81.9555 50.345C83.4337 51.2944 84.4279 52.6403 84.813 54.3495C85.1156 56.1595 84.8536 57.8173 83.8638 59.4021C82.8479 60.7931 81.4976 61.7414 79.7962 62.06C77.8173 62.3127 76.2918 61.98 74.6682 60.7963C73.2202 59.5813 72.4091 57.9971 72.2321 56.1138C72.1725 54.2615 72.7623 52.7235 74.0156 51.3535C76.1849 49.1536 79.275 48.874 81.9555 50.345Z" fill="#236AAC"/>
<path d="M29.7484 50.345C31.2267 51.2944 32.2209 52.6403 32.606 54.3495C32.9085 56.1595 32.6465 57.8173 31.6567 59.4021C30.6409 60.7931 29.2906 61.7414 27.5892 62.06C25.6103 62.3127 24.0848 61.98 22.4612 60.7963C21.0132 59.5813 20.2021 57.9971 20.0251 56.1138C19.9654 54.2615 20.5553 52.7235 21.8086 51.3535C23.9778 49.1536 27.068 48.874 29.7484 50.345Z" fill="#236AAC"/>
<path d="M42.4134 54.1789C42.5933 54.178 42.7732 54.1771 42.9585 54.1762C43.1577 54.176 43.3568 54.1758 43.562 54.1757C43.7703 54.1749 43.9787 54.1741 44.1933 54.1733C44.7667 54.1712 45.34 54.1702 45.9134 54.1695C46.2716 54.169 46.6297 54.1684 46.9879 54.1677C48.1083 54.1655 49.2287 54.164 50.3491 54.1634C51.6427 54.1627 52.9363 54.1599 54.2299 54.1553C55.2294 54.1519 56.2288 54.1503 57.2283 54.1501C57.8254 54.1499 58.4224 54.149 59.0195 54.1461C59.5816 54.1435 60.1437 54.1432 60.7059 54.1446C61.0099 54.1448 61.3139 54.1426 61.6179 54.1404C63.3197 54.1486 63.3197 54.1486 64.0488 54.6758C64.4418 55.2652 64.4254 55.5597 64.3652 56.2578C64.1542 56.7577 64.0222 56.9835 63.5339 57.2259C63.0624 57.3772 62.6875 57.4063 62.193 57.4086C62.012 57.4102 61.831 57.4117 61.6446 57.4134C61.4475 57.4135 61.2504 57.4136 61.0473 57.4137C60.8386 57.415 60.6299 57.4163 60.4149 57.4177C59.8435 57.4211 59.2722 57.4225 58.7008 57.4234C58.3437 57.4239 57.9866 57.4249 57.6295 57.426C56.3833 57.4299 55.1371 57.432 53.8909 57.4325C52.7298 57.4331 51.5686 57.4379 50.4075 57.4445C49.4099 57.45 48.4123 57.4524 47.4147 57.4525C46.8191 57.4526 46.2236 57.454 45.6281 57.4585C44.9641 57.4634 44.3003 57.462 43.6363 57.46C43.4392 57.4624 43.2421 57.4647 43.039 57.4672C41.5572 57.4545 41.5572 57.4545 41.0689 56.9863C40.6642 56.3819 40.5404 55.8739 40.6348 55.1504C41.0105 54.6758 41.0105 54.6758 41.4258 54.3594C41.6957 54.0894 42.0444 54.18 42.4134 54.1789Z" fill="#FEFEFE"/>
<path d="M70.6934 36.0078C72.2258 36.9253 73.0657 38.1893 73.7388 39.8047C73.8574 40.2793 73.8574 40.2793 73.8574 41.5449C69.6809 41.5449 65.5043 41.5449 61.2012 41.5449C61.2012 39.6532 61.8798 38.1919 63.2034 36.8495C65.3322 34.9046 68.1612 34.7004 70.6934 36.0078Z" fill="#88CBFE"/>
<path d="M47.0529 14.5432C47.1654 14.5448 47.278 14.5464 47.3939 14.5481C47.5746 14.546 47.5746 14.546 47.759 14.5439C48.156 14.5404 48.5527 14.5427 48.9497 14.5453C49.2265 14.5448 49.5033 14.544 49.7801 14.5431C50.3598 14.5419 50.9394 14.5436 51.5191 14.5473C52.2609 14.5518 53.0025 14.5492 53.7443 14.5445C54.3159 14.5416 54.8873 14.5425 55.4589 14.5446C55.7323 14.5451 56.0057 14.5444 56.2792 14.5426C56.662 14.5406 57.0446 14.5437 57.4274 14.5481C57.5396 14.5465 57.6519 14.5448 57.7675 14.5432C58.3241 14.555 58.7161 14.6716 59.2222 14.904C59.6191 15.4414 59.6191 15.4414 59.6191 17.8145C54.9205 17.8145 50.2219 17.8145 45.3809 17.8145C45.3809 14.5788 45.3809 14.5788 47.0529 14.5432Z" fill="#FEFEFE"/>
<path d="M77.0215 70.0215C79.1098 70.0215 81.198 70.0215 83.3496 70.0215C83.3496 72.1098 83.3496 74.198 83.3496 76.3496C81.2613 76.3496 79.173 76.3496 77.0215 76.3496C77.0215 74.2613 77.0215 72.173 77.0215 70.0215Z" fill="white"/>
<path d="M21.6504 70.0215C23.7387 70.0215 25.827 70.0215 27.9785 70.0215C27.9785 72.1098 27.9785 74.198 27.9785 76.3496C25.8902 76.3496 23.802 76.3496 21.6504 76.3496C21.6504 74.2613 21.6504 72.173 21.6504 70.0215Z" fill="white"/>
<path d="M80.3308 53.0289C81.0369 53.5071 81.5004 54.1907 81.7676 54.9922C81.898 56.0569 81.7068 56.9306 81.1348 57.8399C80.5294 58.5387 79.8163 58.8771 78.9045 58.9874C77.9866 59.0363 77.2991 58.8466 76.5469 58.3145C75.7493 57.5938 75.4363 56.78 75.3801 55.7239C75.4037 54.9457 75.6004 54.3487 76.0723 53.7266C77.3583 52.5363 78.7261 52.2448 80.3308 53.0289Z" fill="#FBFCFD"/>
<path d="M28.1237 53.0289C28.8299 53.5071 29.2934 54.1907 29.5605 54.9922C29.691 56.0569 29.4997 56.9306 28.9277 57.8399C28.3224 58.5387 27.6093 58.8771 26.6974 58.9874C25.7796 59.0363 25.092 58.8466 24.3398 58.3145C23.5423 57.5938 23.2293 56.78 23.1731 55.7239C23.1966 54.9457 23.3934 54.3487 23.8652 53.7266C25.1513 52.5363 26.5191 52.2448 28.1237 53.0289Z" fill="#FBFCFD"/>
<path d="M16.6961 38.3629C16.8808 38.3637 17.0656 38.3646 17.2559 38.3654C17.4553 38.3659 17.6546 38.3664 17.86 38.367C18.0721 38.3683 18.2841 38.3696 18.4962 38.371C18.7089 38.3718 18.9216 38.3725 19.1343 38.3732C19.6566 38.375 20.1789 38.3776 20.7012 38.3809C20.6129 38.8663 20.5065 39.3116 20.3199 39.7682C20.2775 39.8728 20.2352 39.9773 20.1916 40.085C20.1477 40.1915 20.1037 40.2981 20.0585 40.4079C20.0139 40.5175 19.9693 40.6271 19.9234 40.74C19.8142 41.0086 19.704 41.2768 19.5937 41.5449C19.0566 41.568 18.5195 41.582 17.982 41.5944C17.8302 41.601 17.6784 41.6076 17.522 41.6145C16.395 41.634 16.395 41.634 15.7802 41.1908C15.3583 40.5758 15.2254 40.0723 15.3223 39.3301C15.698 38.8555 15.698 38.8555 16.1133 38.5391C16.2715 38.3809 16.2715 38.3809 16.6961 38.3629Z" fill="#FCFCFD"/>
<path d="M84.2988 38.3809C84.9646 38.367 85.6303 38.3586 86.2961 38.3512C86.5785 38.3452 86.5785 38.3452 86.8665 38.3391C88.6358 38.3243 88.6358 38.3243 89.3613 38.8555C89.759 39.452 89.6996 39.7274 89.606 40.4122C89.4856 40.8877 89.2836 41.1066 88.8867 41.3867C88.4399 41.5356 88.1702 41.5635 87.7082 41.5604C87.5741 41.5599 87.4401 41.5594 87.3019 41.5588C87.1625 41.5575 87.0231 41.5562 86.8795 41.5548C86.7383 41.5541 86.5971 41.5534 86.4516 41.5526C86.1031 41.5508 85.7547 41.5482 85.4062 41.5449C85.2207 41.107 85.0363 40.6686 84.8525 40.2299C84.7733 40.0434 84.7733 40.0434 84.6925 39.8532C84.6425 39.7334 84.5926 39.6136 84.5411 39.4901C84.4947 39.3799 84.4483 39.2698 84.4005 39.1562C84.2988 38.8555 84.2988 38.8555 84.2988 38.3809Z" fill="#FCFDFE"/>
<defs>
<filter id="filter0_d_2566_67" x="127.08" y="26.48" width="414.989" height="63.64" filterUnits="userSpaceOnUse" color-interpolation-filters="sRGB">
<feFlood flood-opacity="0" result="BackgroundImageFix"/>
<feColorMatrix in="SourceAlpha" type="matrix" values="0 0 0 0 0 0 0 0 0 0 0 0 0 0 0 0 0 0 127 0" result="hardAlpha"/>
<feOffset dx="5" dy="4"/>
<feGaussianBlur stdDeviation="2"/>
<feComposite in2="hardAlpha" operator="out"/>
<feColorMatrix type="matrix" values="0 0 0 0 0 0 0 0 0 0 0 0 0 0 0 0 0 0 0.6 0"/>
<feBlend mode="normal" in2="BackgroundImageFix" result="effect1_dropShadow_2566_67"/>
<feBlend mode="normal" in="SourceGraphic" in2="effect1_dropShadow_2566_67" result="shape"/>
</filter>
</defs>
</svg>
